<?xml version="1.0" encoding="UTF-8" standalone="no"?>
<!-- Created with Inkscape (http://www.inkscape.org/) -->

<svg
   xmlns:dc="http://purl.org/dc/elements/1.1/"
   xmlns:cc="http://creativecommons.org/ns#"
   xmlns:rdf="http://www.w3.org/1999/02/22-rdf-syntax-ns#"
   xmlns:svg="http://www.w3.org/2000/svg"
   xmlns="http://www.w3.org/2000/svg"
   xmlns:sodipodi="http://sodipodi.sourceforge.net/DTD/sodipodi-0.dtd"
   xmlns:inkscape="http://www.inkscape.org/namespaces/inkscape"
   width="263.65625"
   height="124.67783"
   id="svg4761"
   version="1.1"
   inkscape:version="0.48.3.1 r9886"
   sodipodi:docname="New document 8">
  <defs
     id="defs4763" />
  <sodipodi:namedview
     id="base"
     pagecolor="#ffffff"
     bordercolor="#666666"
     borderopacity="1.0"
     inkscape:pageopacity="0.0"
     inkscape:pageshadow="2"
     inkscape:zoom="0.35"
     inkscape:cx="38.08483"
     inkscape:cy="302.29833"
     inkscape:document-units="px"
     inkscape:current-layer="layer1"
     showgrid="false"
     fit-margin-top="0"
     fit-margin-left="0"
     fit-margin-right="0"
     fit-margin-bottom="0"
     inkscape:window-width="472"
     inkscape:window-height="383"
     inkscape:window-x="0"
     inkscape:window-y="24"
     inkscape:window-maximized="0" />
  <metadata
     id="metadata4766">
    <rdf:RDF>
      <cc:Work
         rdf:about="">
        <dc:format>image/svg+xml</dc:format>
        <dc:type
           rdf:resource="http://purl.org/dc/dcmitype/StillImage" />
        <dc:title></dc:title>
      </cc:Work>
    </rdf:RDF>
  </metadata>
  <g
     inkscape:label="Layer 1"
     inkscape:groupmode="layer"
     id="layer1"
     transform="translate(-336.91517,-709.98268)">
    <g
       transform="translate(636.32142,19.214251)"
       id="g4746">
      <path
         sodipodi:nodetypes="ccc"
         transform="translate(0,602.36218)"
         inkscape:connector-curvature="0"
         id="path4196"
         d="m -38.499998,92.000018 -10.5,17.500002 c -12.17839,141.14573 -186.502732,112.12782 -247.999992,42.49999"
         style="fill:none;stroke:#000000;stroke-width:6.4000001;stroke-linecap:butt;stroke-linejoin:miter;stroke-miterlimit:4;stroke-opacity:1;stroke-dasharray:none" />
      <path
         sodipodi:nodetypes="ccc"
         transform="translate(0,602.36218)"
         inkscape:connector-curvature="0"
         id="path4198"
         d="m -296.99999,152.00001 5,-14.99999 c 34.80031,30.06604 72.92366,44.8257 142.5,49.99999"
         style="fill:none;stroke:#000000;stroke-width:2;stroke-linecap:butt;stroke-linejoin:miter;stroke-miterlimit:4;stroke-opacity:1;stroke-dasharray:none" />
      <path
         sodipodi:nodetypes="ccc"
         transform="translate(0,602.36218)"
         inkscape:connector-curvature="0"
         id="path4200"
         d="m -291.49999,136.50002 c 31.47823,-2.05803 80.62732,3.50857 121.5,14.49999 57.33778,6.78322 76.656315,-39.79042 112.499993,-43.99999"
         style="fill:none;stroke:#000000;stroke-width:2;stroke-linecap:butt;stroke-linejoin:miter;stroke-miterlimit:4;stroke-opacity:1;stroke-dasharray:none" />
      <path
         sodipodi:nodetypes="ccc"
         transform="translate(0,602.36218)"
         inkscape:connector-curvature="0"
         id="path4204"
         d="m -57.499997,107.00002 c 1.5,-8.500002 3.5,-18.000002 3.5,-18.000002 l 15.999999,3"
         style="fill:none;stroke:#000000;stroke-width:1px;stroke-linecap:butt;stroke-linejoin:miter;stroke-opacity:1" />
      <path
         sodipodi:nodetypes="cssscccsccsssssssssscscsscsssccccsscssssscc"
         inkscape:connector-curvature="0"
         id="path4246"
         d="m -172.19139,811.00927 c -0.825,-0.11244 -3.975,-0.45001 -7,-0.75017 -11.29056,-1.1203 -26.62701,-4.45879 -39.14233,-8.52063 -28.60313,-9.28313 -52.65939,-23.17989 -71.71867,-41.43026 l -6.139,-5.87845 2.25,-6.83004 c 2.66468,-8.81015 1.54467,-7.39191 8.25,-2.05035 31.50892,25.10046 67.05091,37.74533 121.5,43.22635 9.94303,1.0009 14.49719,1.37986 14.68676,1.2221 0.10272,-0.0855 0.0664,-0.46909 -0.0807,-0.85246 -0.19201,-0.50039 -1.72581,-0.79504 -5.43676,-1.04441 -7.4415,-0.50006 -21.36931,-2.12055 -30.91929,-3.59744 -42.69672,-6.60294 -72.17684,-18.83947 -100.875,-41.8709 -1.71875,-1.37937 -3.125,-2.69366 -3.125,-2.92064 0,-0.67783 22.97525,-0.4593 34,0.32339 26.96747,1.91452 54.8603,6.30198 79.42361,12.49311 17.82657,4.49315 37.22082,2.10315 55.16178,-6.79771 6.50699,-3.22826 11.81023,-6.56519 22.184052,-13.95881 5.489305,-3.91232 11.89646,-8.40195 14.23813,-9.97694 8.794449,-5.9151 17.408514,-9.84236 24.171478,-11.02008 1.80257,-0.3139 3.47884,-0.83059 3.72505,-1.14819 0.246205,-0.31761 1.144095,-4.25931 1.99531,-8.75934 0.85121,-4.50003 1.635425,-8.26964 1.7427,-8.37692 0.23667,-0.23667 12.811249,2.09549 13.155694,2.43994 0.13395,0.13395 -1.96532,3.92799 -4.665044,8.4312 l -4.908585,8.18765 -0.864735,6.95158 c -5.636645,45.31286 -30.523599,76.09029 -71.01504,87.82355 -11.94662,3.46179 -19.82369,4.49725 -35.8444,4.71183 -7.2875,0.0976 -13.925,0.0855 -14.75,-0.0269 l 0,-10e-6 z m 13.35418,-42.27456 c -0.1948,-0.17761 -3.38226,-1.26986 -7.08325,-2.42724 -3.70098,-1.15737 -12.25098,-4.13089 -19,-6.60782 -34.49046,-12.65824 -42.34595,-14.5694 -60.10304,-14.62248 -5.13266,-0.0154 -9.4942,0.13364 -9.6923,0.33107 -0.7841,0.78144 0.98378,3.47158 3.0942,4.70837 1.93466,1.13378 3.02041,1.33151 9.55642,1.74036 12.75056,0.7976 20.99551,2.50209 47.69814,9.86076 23.73216,6.54006 34.78631,8.98924 35.52983,7.87207 0.1948,-0.2927 0.1948,-0.67749 0,-0.85509 z"
         style="fill:#ffcc00;fill-opacity:1;fill-rule:nonzero;stroke:none" />
      <path
         transform="translate(0,602.36218)"
         inkscape:connector-curvature="0"
         d="m -112.38603,154.65231 c 1.80514,-0.0137 7.81862,0.0513 0.11676,-0.0387 1.05781,-0.069 2.07731,-0.25747 3.02318,-0.74168 0.70126,-0.33155 1.41993,-0.6257 2.12928,-0.94054 0.78507,-0.40726 1.60965,-0.72761 2.44635,-1.01026 0.99706,-0.34788 2.04466,-0.4979 3.02313,-0.90011 0.72169,-0.3207 1.38773,-0.74886 2.124204,-1.03415 0.735072,-0.36118 1.433402,-0.76036 2.196905,-1.07401 0.765264,-0.30818 1.511576,-0.65816 2.272074,-0.97775 0.719818,-0.3985 1.397606,-0.86953 2.12031,-1.26295 0.636722,-0.3785 1.314727,-0.67723 1.942397,-1.07104 0.701982,-0.45886 1.374449,-0.9485 2.029921,-1.47069 0.699804,-0.43785 1.369522,-0.87902 1.9291,-1.4879 0.528145,-0.48887 1.087975,-0.94123 1.618793,-1.42716 0.547447,-0.45942 0.932727,-1.05385 1.44457,-1.54952 0.430173,-0.56495 0.971921,-1.01619 1.433809,-1.5531 0.559745,-0.445 0.993386,-1.00795 1.455668,-1.54702 0.479561,-0.58372 0.770469,-1.28793 1.167938,-1.93121 0.359605,-0.73328 0.790256,-1.42576 1.300866,-2.06261 0.443444,-0.56715 0.829199,-1.17555 1.266837,-1.74857 0.422921,-0.65338 0.819164,-1.32405 1.244775,-1.97535 0.453425,-0.63348 0.893217,-1.27175 1.315981,-1.92681 0.364481,-0.64527 0.689214,-1.3097 1.041023,-1.96173 0.322765,-0.67088 0.647063,-1.34158 0.997664,-1.99876 0.492382,-1.03187 1.212223,-1.89227 1.951105,-2.7541 1.160081,-1.20287 2.392145,-2.33156 3.54109,-3.5457 0,0 4.401941,0.33316 4.401941,0.33316 l 0,0 c -1.141911,1.21814 -2.395363,2.32423 -3.558987,3.5216 -0.706193,0.84061 -1.417178,1.66063 -1.888672,2.66031 -0.342944,0.66265 -0.694539,1.31952 -0.997683,2.00037 -0.347197,0.66664 -0.701563,1.32516 -1.043294,1.99345 -0.408887,0.67413 -0.862246,1.30998 -1.323066,1.94678 -0.460263,0.62797 -0.821656,1.33305 -1.237565,1.98953 -0.424682,0.59577 -0.876974,1.16793 -1.271101,1.78527 -0.549518,0.57172 -0.960681,1.27261 -1.302861,1.98424 -0.397499,0.67504 -0.743776,1.36674 -1.164504,2.02111 -0.499358,0.50272 -0.843119,1.15856 -1.45532,1.54203 -0.911678,0.96683 0.486505,-0.5377 -0.460389,0.561 -0.309605,0.35924 -0.779014,0.55036 -0.975042,1.01485 -0.08338,0.0865 -0.166753,0.17305 -0.250129,0.25958 -0.08577,0.0677 -0.179654,0.12623 -0.257321,0.20309 -0.342628,0.33908 -0.486815,0.84882 -0.937301,1.08899 -0.488995,0.52343 -1.067179,0.95969 -1.620372,1.41137 -0.58679,0.61234 -1.152744,1.19836 -1.946059,1.55895 -0.673838,0.4978 -1.286591,1.0658 -2.018221,1.48552 -0.597753,0.48433 -1.321294,0.71783 -1.955384,1.14557 -0.758254,0.32759 -1.439883,0.82258 -2.126101,1.27705 -0.745518,0.35533 -1.50908,0.66476 -2.272349,0.97695 -0.397584,0.19454 -0.816362,0.2963 -1.211695,0.49263 -0.702766,0.34902 0.0057,0.0227 -0.636162,0.45196 -0.108434,0.0725 -0.23319,0.11701 -0.349785,0.17551 -0.766905,0.21051 -1.404889,0.64737 -2.122104,0.97655 -0.948307,0.52228 -2.021716,0.62804 -3.043734,0.9498 -0.81808,0.28893 -1.64015,0.55838 -2.4163,0.94992 -0.66946,0.39099 -1.42717,0.62081 -2.13402,0.93554 -0.97405,0.52888 -1.96014,0.86852 -3.08702,0.91329 -2.95497,0.045 -5.90857,0.0945 -8.86374,0.0809 0,0 4.39061,-0.69541 4.39061,-0.69541 z"
         id="path4268"
         style="fill:#000000;fill-opacity:1;fill-rule:nonzero;stroke:none" />
      <path
         transform="translate(0,602.36218)"
         inkscape:connector-curvature="0"
         d="m -289.8495,159.19684 c -0.24975,-1.14597 -0.87297,-2.14314 -1.34894,-3.19848 -0.39736,-0.73747 -0.93232,-1.36247 -1.23008,-2.1505 -0.31431,-0.68527 -0.66822,-1.35516 -0.93953,-2.05939 -0.31015,-0.8422 -0.23991,-1.75125 -0.41009,-2.61732 -0.12157,-0.7977 -0.49429,-1.50993 -0.70054,-2.28461 -0.0722,-0.66373 -0.54974,-1.28825 -0.33493,-1.96071 0.3683,-0.8621 3.36621,-0.60164 4.22539,0.18659 0.16405,0.1505 0.30025,0.32949 0.46338,0.48097 0.48422,0.57301 0.76778,1.27308 1.15503,1.90612 0.37811,0.62463 0.78007,1.23278 1.15013,1.86515 0.44948,0.52745 1.14015,0.85779 1.78753,1.09204 0.45428,0.17469 0.8543,0.60367 1.34555,0.68016 0.0889,0.0138 0.35869,-0.0216 0.26877,-0.0235 -1.07723,-0.0226 -2.15479,-0.0258 -3.23218,-0.0386 0.40108,-0.33207 0.11463,-1.12968 0.0653,-1.58892 -0.22171,-0.76316 -0.40867,-1.52605 -0.68798,-2.26965 -0.2787,-0.7454 -0.41781,-1.48981 0.24374,-2.05222 1.90163,-0.83863 3.61556,-0.26513 5.18674,0.58362 0.32378,0.15391 0.673,0.23491 1.01196,0.34691 0,0 -3.44206,0.43123 -3.44206,0.43123 l 0,0 c -0.34452,-0.11798 -0.69357,-0.22885 -1.01347,-0.40674 -0.30762,-0.16705 -0.60497,-0.31609 -0.93768,-0.42781 -0.0926,-0.0311 -0.37817,-0.0807 -0.28055,-0.0851 2.43868,-0.11067 4.30967,0.0383 2.92998,-0.0659 -0.77623,0.15237 -0.4213,1.03832 -0.24089,1.55253 0.28452,0.76852 0.47781,1.56278 0.68802,2.35432 0.0793,0.67198 0.31956,1.42485 -0.0702,2.03339 -3.55914,0.13733 -3.08352,0.53174 -5.27194,-0.61539 -0.68327,-0.3112 -1.3898,-0.66557 -1.80851,-1.31382 -0.38212,-0.62481 -0.77454,-1.24164 -1.14983,-1.86933 -0.34591,-0.62336 -0.65638,-1.28256 -1.1523,-1.80514 -0.22776,-0.21494 -0.40896,-0.39323 -0.70483,-0.50588 -0.0798,-0.0304 -0.32891,-0.0772 -0.24354,-0.0796 3.30344,-0.0905 3.78279,0.97646 3.19518,-0.17614 -0.24843,0.053 0.2976,1.41349 0.31166,1.67843 0.22172,0.77731 0.58849,1.50651 0.69889,2.31526 0.14365,0.84825 0.10265,1.73102 0.41288,2.54809 0.28916,0.69673 0.63096,1.37097 0.93842,2.05981 0.32064,0.76119 0.87214,1.3827 1.21698,2.13449 0.48829,1.06413 1.06232,2.09332 1.36435,3.23425 0,0 -3.4598,0.11136 -3.4598,0.11136 z"
         id="path4728"
         style="fill:#000000;fill-opacity:1;fill-rule:nonzero;stroke:none" />
      <path
         transform="translate(0,602.36218)"
         inkscape:connector-curvature="0"
         d="m -280.05221,136.45758 c 0.0786,0.26922 0.14088,0.54121 0.23186,0.80647 0.0604,0.20012 0.15294,0.38876 0.24701,0.57477 0.0753,0.1703 0.16363,0.33433 0.25007,0.49945 0.11381,0.13893 0.18149,0.30608 0.29752,0.44332 0.12118,0.13604 0.21291,0.29266 0.33224,0.43056 0.12002,0.16524 0.26241,0.31124 0.39164,0.46942 0.13698,0.17167 0.12676,0.31913 -0.0192,0.47253 -0.19086,0.14101 -0.42427,0.20109 -0.63281,0.31077 -0.17154,0.0962 -0.34564,0.18743 -0.51932,0.27966 -0.16886,0.0902 -0.33935,0.17726 -0.51392,0.256 -0.22086,0.11569 -0.43854,0.23661 -0.65042,0.36795 -0.17386,0.094 -0.35675,0.17512 -0.46718,0.34477 -0.0461,0.20689 -0.005,0.42522 0.0107,0.63471 0.0175,0.2505 0.0215,0.50164 0.0242,0.75265 0.007,0.23737 0.0138,0.4715 -0.069,0.69689 -0.0894,0.14666 -0.0622,0.31268 -0.084,0.47409 -0.006,0.0289 -0.0117,0.0577 -0.0175,0.0865 0,0 -0.8661,-0.0176 -0.8661,-0.0176 l 0,0 c 0.006,-0.0273 0.0114,-0.0545 0.0172,-0.0817 0.0276,-0.16663 -0.0115,-0.34297 0.0858,-0.49452 0.0942,-0.20982 0.0738,-0.43774 0.0714,-0.66276 -0.003,-0.24918 -0.007,-0.4985 -0.0245,-0.74714 -0.0172,-0.22764 -0.059,-0.46097 -0.0124,-0.68691 0.1031,-0.1937 0.27538,-0.29938 0.47306,-0.38711 0.21506,-0.12898 0.43013,-0.25629 0.64997,-0.37739 0.17092,-0.0836 0.34363,-0.1602 0.51188,-0.24872 0.16658,-0.10471 0.35168,-0.17903 0.52103,-0.27996 0.19861,-0.12291 0.42543,-0.17811 0.62764,-0.29312 0.16161,-0.11778 0.14334,-0.18233 0.0213,-0.33993 -0.13073,-0.15626 -0.27041,-0.30504 -0.39221,-0.46862 -0.11565,-0.14114 -0.21395,-0.29523 -0.33349,-0.43346 -0.10802,-0.14749 -0.19185,-0.30996 -0.29808,-0.45872 -0.0882,-0.1645 -0.17154,-0.33172 -0.24987,-0.50101 -0.096,-0.18892 -0.18273,-0.38428 -0.24412,-0.58732 -0.0898,-0.27045 -0.14994,-0.54849 -0.23599,-0.82022 0,0 0.86565,-0.0143 0.86565,-0.0143 z"
         id="path4734"
         style="fill:#000000;fill-opacity:1;fill-rule:nonzero;stroke:none" />
      <path
         transform="translate(0,602.36218)"
         inkscape:connector-curvature="0"
         id="path4736"
         d="m -282.95369,143.25583 c -3.53459,-2.73318 -5.28087,-4.16788 -6.3125,-5.18619 -0.53413,-0.52723 -0.66659,-0.69015 -0.59375,-0.7303 0.3165,-0.17446 2.3916,-0.28692 6.44147,-0.34909 l 2.59773,-0.0399 0.0805,0.27148 c 0.0442,0.14931 0.2179,0.53867 0.38589,0.86523 0.27298,0.53065 0.4655,0.81358 1.07793,1.58411 0.0975,0.12265 0.15854,0.25324 0.13568,0.29022 -0.0229,0.037 -0.41198,0.25244 -0.86473,0.47881 -0.98357,0.49176 -1.64677,0.86732 -1.83881,1.04127 -0.13509,0.12237 -0.14062,0.16828 -0.14062,1.16704 0,0.73782 -0.0227,1.0681 -0.0781,1.13761 -0.0682,0.0855 -0.18115,0.0183 -0.89062,-0.53032 z"
         style="fill:#000000;fill-opacity:1;fill-rule:nonzero;stroke:#000000;stroke-opacity:1" />
      <path
         transform="translate(0,602.36218)"
         inkscape:connector-curvature="0"
         id="path4738"
         d="m -290.22163,137.15619 -0.20544,-0.17581 0.54919,-0.0402 c 1.30747,-0.0958 5.14534,-0.22981 6.98534,-0.24394 1.80654,-0.0139 2.00058,-0.006 2.0188,0.0867 0.0182,0.0923 -0.18816,0.10556 -2.1549,0.13869 -4.38865,0.0739 -6.67955,0.19437 -6.85943,0.36062 -0.0842,0.0778 -0.10417,0.0703 -0.33356,-0.12602 z"
         style="fill:#000000;fill-opacity:1;fill-rule:nonzero;stroke:none" />
      <path
         transform="translate(0,602.36218)"
         inkscape:connector-curvature="0"
         id="path4740"
         d="m -287.90548,149.13836 c -0.29664,-0.43868 -1.0359,-1.66222 -1.39042,-2.30127 -0.68989,-1.2436 -1.26548,-1.87439 -1.93221,-2.11749 -0.56027,-0.20428 -1.14786,-0.31127 -1.82612,-0.33248 l -0.60054,-0.0188 0.0509,-0.15625 c 0.028,-0.0859 0.21946,-0.71875 0.4255,-1.40625 0.93013,-3.10359 1.29365,-3.84375 1.88782,-3.84375 0.50208,0 0.84781,0.2392 2.92237,2.02185 1.94556,1.67182 2.16646,1.85236 4.2895,3.50585 0.9625,0.74962 1.76406,1.37699 1.78125,1.39414 0.0762,0.0761 -0.32867,-0.0829 -0.86669,-0.34034 -1.23199,-0.58945 -1.96613,-0.78909 -2.91456,-0.7926 -0.68902,-0.003 -1.38824,0.132 -1.84375,0.35479 -0.20111,0.0984 -0.32564,0.2177 -0.43701,0.41881 -0.25262,0.45614 -0.21657,0.89143 0.1717,2.07312 0.35618,1.08403 0.53737,1.73815 0.49358,1.78194 -0.0158,0.0158 -0.11089,-0.0928 -0.21131,-0.24129 l 0,0 z"
         style="fill:#000000;fill-opacity:1;fill-rule:nonzero;stroke:#000000;stroke-opacity:1" />
      <path
         transform="translate(0,602.36218)"
         inkscape:connector-curvature="0"
         id="path4742"
         d="m -293.39632,154.69538 -2.75224,-2.6342 0.813,-2.48704 c 0.44715,-1.36788 0.83024,-2.48705 0.8513,-2.48705 0.0572,0 0.61902,1.79074 0.68635,2.1875 0.0321,0.18906 0.088,0.63906 0.12422,1 0.11852,1.18059 0.23174,1.51903 1.17089,3.5 0.20371,0.42969 0.54674,1.06098 0.76228,1.40288 0.38063,0.60375 1.15936,2.08917 1.1173,2.13123 -0.0115,0.0115 -1.25937,-1.16452 -2.7731,-2.61332 l 0,0 z"
         style="fill:#000000;fill-opacity:1;fill-rule:nonzero;stroke:#000000;stroke-opacity:1" />
      <path
         transform="translate(0,602.36218)"
         inkscape:connector-curvature="0"
         id="path4744"
         d="m -291.92892,156.60085 c -1.97119,-1.98723 -3.40125,-3.50187 -3.35242,-3.5507 0.0185,-0.0185 1.09819,0.98571 2.39937,2.23151 2.09264,2.00357 2.38601,2.30791 2.54103,2.63605 0.0964,0.20403 0.16519,0.38102 0.1529,0.39331 -0.0123,0.0123 -0.79568,-0.75728 -1.74088,-1.71017 z"
         style="fill:#000000;fill-opacity:1;fill-rule:nonzero;stroke:#000000;stroke-opacity:1" />
    </g>
  </g>
</svg>
