<?xml version="1.0" encoding="UTF-8" standalone="no"?>
<!-- Created with Inkscape (http://www.inkscape.org/) -->

<svg
   xmlns:osb="http://www.openswatchbook.org/uri/2009/osb"
   xmlns:dc="http://purl.org/dc/elements/1.1/"
   xmlns:cc="http://creativecommons.org/ns#"
   xmlns:rdf="http://www.w3.org/1999/02/22-rdf-syntax-ns#"
   xmlns:svg="http://www.w3.org/2000/svg"
   xmlns="http://www.w3.org/2000/svg"
   xmlns:xlink="http://www.w3.org/1999/xlink"
   xmlns:sodipodi="http://sodipodi.sourceforge.net/DTD/sodipodi-0.dtd"
   xmlns:inkscape="http://www.inkscape.org/namespaces/inkscape"
   width="600"
   height="600"
   id="svg4711"
   version="1.1"
   inkscape:version="0.48.3.1 r9886"
   sodipodi:docname="action1.svg">
  <defs
     id="defs4713">
    <linearGradient
       inkscape:collect="always"
       id="linearGradient4769">
      <stop
         style="stop-color:#ffcc00;stop-opacity:1;"
         offset="0"
         id="stop4771" />
      <stop
         style="stop-color:#ffcc00;stop-opacity:0;"
         offset="1"
         id="stop4773" />
    </linearGradient>
    <inkscape:path-effect
       effect="skeletal"
       id="path-effect8379"
       is_visible="true"
       pattern="M 0,5 C 0,2.24 2.24,0 5,0 7.76,0 10,2.24 10,5 10,7.76 7.76,10 5,10 2.24,10 0,7.76 0,5 z"
       copytype="single_stretched"
       prop_scale="1"
       scale_y_rel="false"
       spacing="0"
       normal_offset="0"
       tang_offset="0"
       prop_units="false"
       vertical_pattern="false"
       fuse_tolerance="0" />
    <inkscape:perspective
       sodipodi:type="inkscape:persp3d"
       inkscape:vp_x="0 : 225 : 1"
       inkscape:vp_y="0 : 1000 : 0"
       inkscape:vp_z="450 : 225 : 1"
       inkscape:persp3d-origin="225 : 150 : 1"
       id="perspective149" />
    <linearGradient
       inkscape:collect="always"
       id="linearGradient4790">
      <stop
         style="stop-color:#b3b3b3;stop-opacity:1;"
         offset="0"
         id="stop4792" />
      <stop
         style="stop-color:#b3b3b3;stop-opacity:0;"
         offset="1"
         id="stop4794" />
    </linearGradient>
    <linearGradient
       inkscape:collect="always"
       id="linearGradient4766">
      <stop
         style="stop-color:#999999;stop-opacity:1;"
         offset="0"
         id="stop4768" />
      <stop
         style="stop-color:#999999;stop-opacity:0;"
         offset="1"
         id="stop4770" />
    </linearGradient>
    <linearGradient
       inkscape:collect="always"
       id="linearGradient4758">
      <stop
         style="stop-color:#999999;stop-opacity:1;"
         offset="0"
         id="stop4760" />
      <stop
         style="stop-color:#999999;stop-opacity:0;"
         offset="1"
         id="stop4762" />
    </linearGradient>
    <linearGradient
       inkscape:collect="always"
       id="linearGradient4742">
      <stop
         style="stop-color:#999999;stop-opacity:1;"
         offset="0"
         id="stop4744" />
      <stop
         style="stop-color:#999999;stop-opacity:0;"
         offset="1"
         id="stop4746" />
    </linearGradient>
    <linearGradient
       inkscape:collect="always"
       id="linearGradient4734">
      <stop
         style="stop-color:#550000;stop-opacity:1;"
         offset="0"
         id="stop4736" />
      <stop
         style="stop-color:#550000;stop-opacity:0;"
         offset="1"
         id="stop4738" />
    </linearGradient>
    <linearGradient
       id="linearGradient4098">
      <stop
         style="stop-color:#999999;stop-opacity:1;"
         offset="0"
         id="stop4100" />
      <stop
         style="stop-color:#000000;stop-opacity:0.89803922;"
         offset="1"
         id="stop4102" />
    </linearGradient>
    <linearGradient
       inkscape:collect="always"
       id="linearGradient4090">
      <stop
         style="stop-color:#999999;stop-opacity:1;"
         offset="0"
         id="stop4092" />
      <stop
         style="stop-color:#999999;stop-opacity:0;"
         offset="1"
         id="stop4094" />
    </linearGradient>
    <linearGradient
       inkscape:collect="always"
       id="linearGradient4082">
      <stop
         style="stop-color:#999999;stop-opacity:1;"
         offset="0"
         id="stop4084" />
      <stop
         style="stop-color:#999999;stop-opacity:0;"
         offset="1"
         id="stop4086" />
    </linearGradient>
    <linearGradient
       id="linearGradient4053"
       osb:paint="solid">
      <stop
         style="stop-color:#deaa87;stop-opacity:1;"
         offset="0"
         id="stop4055" />
    </linearGradient>
    <linearGradient
       inkscape:collect="always"
       xlink:href="#linearGradient4082"
       id="linearGradient4088"
       x1="58.627468"
       y1="159.28928"
       x2="187.45113"
       y2="159.28928"
       gradientUnits="userSpaceOnUse" />
    <linearGradient
       inkscape:collect="always"
       xlink:href="#linearGradient4090"
       id="linearGradient4096"
       x1="115.04848"
       y1="258.46545"
       x2="217.46751"
       y2="258.46545"
       gradientUnits="userSpaceOnUse" />
    <linearGradient
       inkscape:collect="always"
       xlink:href="#linearGradient4098"
       id="linearGradient4104"
       x1="121.83112"
       y1="122.16554"
       x2="149.34438"
       y2="122.16554"
       gradientUnits="userSpaceOnUse" />
    <linearGradient
       gradientTransform="translate(460.35718,-48.544704)"
       inkscape:collect="always"
       xlink:href="#linearGradient6448"
       id="linearGradient6454"
       x1="122.79939"
       y1="724.83551"
       x2="149.67725"
       y2="724.83551"
       gradientUnits="userSpaceOnUse" />
    <linearGradient
       inkscape:collect="always"
       id="linearGradient6448">
      <stop
         style="stop-color:#deaa87;stop-opacity:1;"
         offset="0"
         id="stop6450" />
      <stop
         style="stop-color:#deaa87;stop-opacity:0;"
         offset="1"
         id="stop6452" />
    </linearGradient>
    <linearGradient
       gradientTransform="translate(460.35718,-48.544704)"
       inkscape:collect="always"
       xlink:href="#linearGradient6440"
       id="linearGradient6446"
       x1="113.62627"
       y1="860.45245"
       x2="220.20416"
       y2="860.45245"
       gradientUnits="userSpaceOnUse" />
    <linearGradient
       inkscape:collect="always"
       id="linearGradient6440">
      <stop
         style="stop-color:#deaa87;stop-opacity:1;"
         offset="0"
         id="stop6442" />
      <stop
         style="stop-color:#deaa87;stop-opacity:0;"
         offset="1"
         id="stop6444" />
    </linearGradient>
    <linearGradient
       gradientTransform="translate(460.35718,-48.544704)"
       inkscape:collect="always"
       xlink:href="#linearGradient6424"
       id="linearGradient6430"
       x1="200.4371"
       y1="981.70251"
       x2="298.90799"
       y2="981.70251"
       gradientUnits="userSpaceOnUse" />
    <linearGradient
       inkscape:collect="always"
       id="linearGradient6424">
      <stop
         style="stop-color:#552200;stop-opacity:1;"
         offset="0"
         id="stop6426" />
      <stop
         style="stop-color:#552200;stop-opacity:0;"
         offset="1"
         id="stop6428" />
    </linearGradient>
    <linearGradient
       gradientTransform="translate(460.35718,-48.544704)"
       inkscape:collect="always"
       xlink:href="#linearGradient6400"
       id="linearGradient6406"
       x1="195.01718"
       y1="855.6828"
       x2="283.60852"
       y2="855.6828"
       gradientUnits="userSpaceOnUse" />
    <linearGradient
       inkscape:collect="always"
       id="linearGradient6400">
      <stop
         style="stop-color:#552200;stop-opacity:1;"
         offset="0"
         id="stop6402" />
      <stop
         style="stop-color:#552200;stop-opacity:0;"
         offset="1"
         id="stop6404" />
    </linearGradient>
    <linearGradient
       gradientTransform="translate(460.35718,-48.544704)"
       inkscape:collect="always"
       xlink:href="#linearGradient6408"
       id="linearGradient6414"
       x1="206.65604"
       y1="883.33215"
       x2="389.7699"
       y2="883.33215"
       gradientUnits="userSpaceOnUse" />
    <linearGradient
       inkscape:collect="always"
       id="linearGradient6408">
      <stop
         style="stop-color:#552200;stop-opacity:1;"
         offset="0"
         id="stop6410" />
      <stop
         style="stop-color:#552200;stop-opacity:0;"
         offset="1"
         id="stop6412" />
    </linearGradient>
    <linearGradient
       inkscape:collect="always"
       xlink:href="#linearGradient4734"
       id="linearGradient4740"
       x1="91.320824"
       y1="130.95219"
       x2="97.926712"
       y2="130.95219"
       gradientUnits="userSpaceOnUse" />
    <linearGradient
       inkscape:collect="always"
       xlink:href="#linearGradient4742"
       id="linearGradient4748"
       x1="91.320824"
       y1="130.95219"
       x2="97.926712"
       y2="130.95219"
       gradientUnits="userSpaceOnUse" />
    <linearGradient
       inkscape:collect="always"
       xlink:href="#linearGradient4758"
       id="linearGradient4764"
       x1="122.55107"
       y1="122.28796"
       x2="149.18581"
       y2="122.28796"
       gradientUnits="userSpaceOnUse" />
    <linearGradient
       inkscape:collect="always"
       xlink:href="#linearGradient4766"
       id="linearGradient4772"
       x1="115.25364"
       y1="257.55704"
       x2="212.89926"
       y2="257.55704"
       gradientUnits="userSpaceOnUse" />
    <linearGradient
       inkscape:collect="always"
       xlink:href="#linearGradient4098"
       id="linearGradient4788"
       x1="158.25713"
       y1="277.78516"
       x2="286.25"
       y2="277.78516"
       gradientUnits="userSpaceOnUse" />
    <linearGradient
       inkscape:collect="always"
       xlink:href="#linearGradient4790"
       id="linearGradient4796"
       x1="58.758354"
       y1="159.297"
       x2="186.978"
       y2="159.297"
       gradientUnits="userSpaceOnUse" />
    <linearGradient
       inkscape:collect="always"
       xlink:href="#linearGradient4098"
       id="linearGradient4804"
       x1="207.75069"
       y1="278.72302"
       x2="389.4339"
       y2="278.72302"
       gradientUnits="userSpaceOnUse" />
    <linearGradient
       inkscape:collect="always"
       xlink:href="#linearGradient4098"
       id="linearGradient4812"
       x1="77.039139"
       y1="126.90265"
       x2="234.39935"
       y2="126.90265"
       gradientUnits="userSpaceOnUse" />
    <linearGradient
       inkscape:collect="always"
       xlink:href="#linearGradient4098"
       id="linearGradient4820"
       x1="74.523369"
       y1="319.43274"
       x2="137.5959"
       y2="319.43274"
       gradientUnits="userSpaceOnUse" />
    <radialGradient
       inkscape:collect="always"
       xlink:href="#linearGradient4769"
       id="radialGradient4775"
       cx="-883.90362"
       cy="245.8002"
       fx="-883.90362"
       fy="245.8002"
       r="21.733369"
       gradientTransform="matrix(1,0,0,1.0149513,0,-3.6750254)"
       gradientUnits="userSpaceOnUse" />
  </defs>
  <sodipodi:namedview
     id="base"
     pagecolor="#ffffff"
     bordercolor="#666666"
     borderopacity="1.0"
     inkscape:pageopacity="0.0"
     inkscape:pageshadow="2"
     inkscape:zoom="1.4142136"
     inkscape:cx="305.58111"
     inkscape:cy="279.81573"
     inkscape:document-units="px"
     inkscape:current-layer="layer1"
     showgrid="false"
     inkscape:window-width="1600"
     inkscape:window-height="876"
     inkscape:window-x="0"
     inkscape:window-y="24"
     inkscape:window-maximized="1" />
  <metadata
     id="metadata4716">
    <rdf:RDF>
      <cc:Work
         rdf:about="">
        <dc:format>image/svg+xml</dc:format>
        <dc:type
           rdf:resource="http://purl.org/dc/dcmitype/StillImage" />
        <dc:title />
      </cc:Work>
    </rdf:RDF>
  </metadata>
  <g
     inkscape:label="Layer 1"
     inkscape:groupmode="layer"
     id="layer1"
     transform="translate(0,-452.36218)">
    <path
       inkscape:connector-curvature="0"
       style="fill:none;stroke:#000000;stroke-width:1.02341616;stroke-linecap:butt;stroke-linejoin:miter;stroke-miterlimit:4;stroke-opacity:1;stroke-dasharray:none"
       d="m 293.70483,600.43376 c -20.7688,0.83391 -34.9397,11.04762 -49.7105,23.3445 -5.0381,4.88678 2.5852,7.91402 2.5852,7.91402 -8.4298,0.2977 -19.4122,9.7842 -19.2552,24.68007"
       id="path2820"
       sodipodi:nodetypes="cccc" />
    <path
       inkscape:connector-curvature="0"
       style="fill:none;stroke:#000000;stroke-width:0.92107457;stroke-linecap:butt;stroke-linejoin:miter;stroke-miterlimit:4;stroke-opacity:1;stroke-dasharray:none"
       d="m 295.19653,603.41714 -5.221,-8.95017 12.6794,2.98339 -1.4917,-17.1545 c 18.5281,6.0569 20.0644,15.77805 20.4363,21.48042"
       id="path2822"
       sodipodi:nodetypes="ccccc" />
    <path
       inkscape:connector-curvature="0"
       style="fill:none;stroke:#000000;stroke-width:0.92107457;stroke-linecap:butt;stroke-linejoin:miter;stroke-miterlimit:4;stroke-opacity:1;stroke-dasharray:none"
       d="m 320.55533,595.95866 c 17.2611,9.85434 53.8674,34.14562 41.7675,58.17615"
       id="path2824"
       sodipodi:nodetypes="cc" />
    <path
       inkscape:connector-curvature="0"
       style="fill:none;stroke:#000000;stroke-width:0.92107457;stroke-linecap:butt;stroke-linejoin:miter;stroke-miterlimit:4;stroke-opacity:1;stroke-dasharray:none"
       d="m 361.57693,654.13481 c 29.0792,-2.59018 33.7632,25.36917 8.9502,41.02164 l 0.7459,-5.96679 c -5.6572,8.51399 -10.1863,11.44334 -14.1712,21.6296 l 11.1878,-3.72924"
       id="path2834"
       sodipodi:nodetypes="ccccc" />
    <path
       inkscape:connector-curvature="0"
       style="fill:none;stroke:#000000;stroke-width:0.92107457;stroke-linecap:butt;stroke-linejoin:miter;stroke-miterlimit:4;stroke-opacity:1;stroke-dasharray:none"
       d="m 232.54523,690.68136 c -22.1899,-28.77796 -5.1149,-46.83211 30.5798,-33.56316 27.0006,-14.98021 48.7561,-14.5989 59.4689,-15.34191 4.993,-0.34631 2.7457,8.17944 7.9586,11.83911 10.7194,7.52541 3.9145,34.41228 -8.3183,58.9927 l -0.1872,2.68627"
       id="path2836"
       sodipodi:nodetypes="cccscc" />
    <path
       inkscape:connector-curvature="0"
       style="fill:none;stroke:#000000;stroke-width:0.9722454;stroke-linecap:butt;stroke-linejoin:miter;stroke-miterlimit:4;stroke-opacity:1;stroke-dasharray:none"
       d="m 223.78893,702.1117 c -0.9321,-6.81045 16.66895,-16.89365 15.58445,-12.21843"
       id="path2838"
       sodipodi:nodetypes="cc" />
    <path
       inkscape:connector-curvature="0"
       style="fill:none;stroke:#000000;stroke-width:0.92107457;stroke-linecap:butt;stroke-linejoin:miter;stroke-miterlimit:4;stroke-opacity:1;stroke-dasharray:none"
       d="m 380.3135,686.90318 c 35.5799,-7.99985 58.68235,15.54689 63.9014,37.49042 1.01275,4.25811 13.73824,19.19759 20.67424,29.9227 9.2279,14.26904 10.1361,42.70865 19.53819,60.39371 4.7875,9.00515 19.943,13.57385 32.6199,24.06923 2.7781,2.30003 6.3672,4.83327 9.0641,7.75129"
       id="path2840"
       sodipodi:nodetypes="cssssc" />
    <g
       id="g2848"
       transform="matrix(0.5117081,0,0,0.5117081,163.21663,287.65382)"
       style="stroke-width:2;stroke-miterlimit:4;stroke-dasharray:none">
      <path
         inkscape:connector-curvature="0"
         sodipodi:nodetypes="csc"
         id="path2842"
         d="m 163.66004,796.12331 c -15.06441,-1.96 -17.6486,-13.7399 -11.44903,-20.76461 4.6524,-5.27162 12.72023,-5.57324 28.53089,-0.98586"
         style="fill:none;stroke:#000000;stroke-width:2;stroke-linecap:butt;stroke-linejoin:miter;stroke-miterlimit:4;stroke-opacity:1;stroke-dasharray:none" />
      <path
         inkscape:connector-curvature="0"
         sodipodi:nodetypes="cc"
         id="path2844"
         d="m 176.36541,772.50963 c 33.17587,-13.23558 78.7043,25.37703 29.2966,36.15569"
         style="fill:none;stroke:#000000;stroke-width:2;stroke-linecap:butt;stroke-linejoin:miter;stroke-miterlimit:4;stroke-opacity:1;stroke-dasharray:none" />
      <path
         inkscape:connector-curvature="0"
         sodipodi:nodetypes="cccssscc"
         id="path2846"
         d="m 163.71996,795.69958 c -8.94354,-0.85182 -14.64063,-14.91382 -6.3029,-17.35968 8.62216,-0.73205 14.567,9.84746 11.96892,14.86294 -2.80385,5.41271 -4.80995,5.60405 -3.22353,11.37323 1.18766,4.31904 5.75819,9.301 10.20296,8.7454 l 11.66052,-1.45757 c -4.67446,-2.05388 -8.5233,-3.91241 -7.28783,-10.20296 16.58218,-17.74391 64.31815,-4.509 17.97862,4.52494"
         style="fill:none;stroke:#000000;stroke-width:2;stroke-linecap:butt;stroke-linejoin:miter;stroke-miterlimit:4;stroke-opacity:1;stroke-dasharray:none" />
    </g>
    <path
       style="fill:none;stroke:#000000;stroke-width:0.76756215;stroke-linecap:butt;stroke-linejoin:miter;stroke-miterlimit:4;stroke-opacity:1;stroke-dasharray:none"
       d="m 250.12283,681.6413 c -5.025,-0.639 -7.6348,-7.29165 -12.4239,-7.21935 -2.7833,0.042 -7.4977,0.54263 -7.597,3.98511 -0.01,0.22574 0.01,0.46413 0.042,0.71586"
       id="path2859"
       sodipodi:nodetypes="cssc"
       inkscape:connector-curvature="0" />
    <path
       style="fill:none;stroke:#000000;stroke-width:0.76756215;stroke-linecap:butt;stroke-linejoin:miter;stroke-miterlimit:4;stroke-opacity:1;stroke-dasharray:none"
       d="m 230.81533,681.13762 c 0.4898,2.75045 4.49142,4.52207 9.00502,5.03676"
       id="path2861"
       sodipodi:nodetypes="cc"
       inkscape:connector-curvature="0" />
    <path
       inkscape:connector-curvature="0"
       style="fill:none;stroke:#000000;stroke-width:0.76756215;stroke-linecap:butt;stroke-linejoin:miter;stroke-miterlimit:4;stroke-opacity:1;stroke-dasharray:none"
       d="m 230.81533,676.43665 c 7.3583,10.8312 10.359,7.34071 10.6519,7.56581"
       id="path2863"
       sodipodi:nodetypes="cc" />
    <path
       style="fill:none;stroke:#000000;stroke-width:0.92107457;stroke-linecap:butt;stroke-linejoin:miter;stroke-miterlimit:4;stroke-opacity:1;stroke-dasharray:none"
       d="m 249.28033,673.30267 c -1.5592,4.60048 4.758,2.84926 6.3799,7.05145"
       id="path2865"
       sodipodi:nodetypes="cc"
       inkscape:connector-curvature="0" />
    <path
       sodipodi:type="arc"
       style="fill:#ffffff;fill-opacity:1;stroke:none"
       id="path2888"
       sodipodi:cx="188.16577"
       sodipodi:cy="334.14969"
       sodipodi:rx="2.1326547"
       sodipodi:ry="4.2653093"
       d="m 190.29843,334.14969 c 0,0.5324 -0.0498,1.0601 -0.14694,1.55582 l -1.98572,-1.55582 z"
       sodipodi:start="0"
       sodipodi:end="0.37337637"
       transform="matrix(0.5117081,0,0,0.5117081,139.31424,506.45691)" />
    <path
       sodipodi:type="arc"
       style="fill:#ffffff;fill-opacity:1;stroke:none"
       id="path2890"
       sodipodi:cx="186.52527"
       sodipodi:cy="331.19678"
       sodipodi:rx="1.4764533"
       sodipodi:ry="0.65620148"
       d="m 188.00172,331.19678 c 0,0.24959 -0.31859,0.47758 -0.822,0.58821 l -0.65445,-0.58821 z"
       sodipodi:start="0"
       sodipodi:end="1.111564"
       transform="matrix(0.5117081,0,0,0.5117081,139.31424,506.45691)" />
    <path
       inkscape:connector-curvature="0"
       style="fill:none;stroke:#000000;stroke-width:0.71639132;stroke-linecap:butt;stroke-linejoin:miter;stroke-miterlimit:4;stroke-opacity:1;stroke-dasharray:none"
       d="m 236.18783,674.42195 c -1.8833,3.87194 0.71072,8.18475 6.41192,8.9303"
       id="path2898"
       sodipodi:nodetypes="cc" />
    <path
       inkscape:connector-curvature="0"
       style="fill:none;stroke:#000000;stroke-width:1.02341616;stroke-linecap:butt;stroke-linejoin:miter;stroke-miterlimit:4;stroke-opacity:1;stroke-dasharray:none"
       d="m 263.80456,681.35892 c 9.0749,-6.32409 21.79887,-14.10685 25.30357,-12.52686 9.2188,4.15608 9.9488,4.89612 14.908,5.5899"
       id="path3680"
       sodipodi:nodetypes="csc" />
    <path
       style="fill:none;stroke:#000000;stroke-width:0.81873298;stroke-linecap:butt;stroke-linejoin:miter;stroke-miterlimit:4;stroke-opacity:1;stroke-dasharray:none"
       d="m 278.90713,686.17736 c 15.17709,3.54119 13.2604,-8.45843 10.8382,-16.79216 -5.4361,12.94676 -9.84047,13.33011 -19.91647,14.11269"
       id="path3682"
       sodipodi:nodetypes="ccc"
       inkscape:connector-curvature="0" />
    <path
       inkscape:connector-curvature="0"
       style="fill:none;stroke:#000000;stroke-width:0.92107457;stroke-linecap:butt;stroke-linejoin:miter;stroke-miterlimit:4;stroke-opacity:1;stroke-dasharray:none"
       d="m 297.63623,673.24671 c 7.366,11.21697 4.8731,16.92837 -14.6066,20.98648"
       id="path3684"
       sodipodi:nodetypes="cc" />
    <path
       inkscape:connector-curvature="0"
       style="fill:none;stroke:#000000;stroke-width:1.02341616;stroke-linecap:butt;stroke-linejoin:miter;stroke-miterlimit:4;stroke-opacity:1;stroke-dasharray:none"
       d="m 279.72224,694.22251 c 3.3472,-0.69504 14.23723,3.1536 16.48073,7.2864"
       id="path3686"
       sodipodi:nodetypes="cc" />
    <path
       style="fill:none;stroke:#000000;stroke-width:0.81199998;stroke-linecap:butt;stroke-linejoin:miter;stroke-miterlimit:4;stroke-opacity:1;stroke-dasharray:none"
       d="m 278.32863,672.40725 c 4.711,0.50646 8.2279,4.07992 2.1694,9.09262"
       id="path3688"
       sodipodi:nodetypes="cc"
       inkscape:connector-curvature="0" />
    <path
       inkscape:connector-curvature="0"
       style="fill:none;stroke:#000000;stroke-width:0.8699038;stroke-linecap:butt;stroke-linejoin:miter;stroke-miterlimit:4;stroke-opacity:1;stroke-dasharray:none"
       d="m 217.72543,712.61495 c -4.2183,-3.99917 -5.61878,-11.34309 -1.8995,-10.922 27.33104,3.09438 50.53623,18.50088 75.0294,25.38843 4.13763,1.16351 13.23683,0.36883 15.04903,-2.88832"
       id="path3692"
       sodipodi:nodetypes="cssc" />
    <path
       inkscape:connector-curvature="0"
       style="fill:none;stroke:#000000;stroke-width:0.76756215;stroke-linecap:butt;stroke-linejoin:miter;stroke-miterlimit:4;stroke-opacity:1;stroke-dasharray:none"
       d="m 217.88763,712.19762 c -27.9747,51.82403 16.77,71.1561 58.0905,79.58071 3.5453,0.708 6.5081,1.99847 7.3873,5.37252 6.6499,-3.46308 11.8693,-7.99912 11.4166,-16.78917 0.1312,3.13399 1.5795,8.95426 -0.6715,12.08821 18.0208,-20.25585 5.8919,-5.24797 9.9414,-6.47863 36.9224,-17.66099 47.5465,-38.57098 19.6075,-75.78835"
       id="path3698"
       sodipodi:nodetypes="ccccccc" />
    <path
       inkscape:connector-curvature="0"
       style="fill:none;stroke:#000000;stroke-width:0.81709552;stroke-linecap:butt;stroke-linejoin:miter;stroke-miterlimit:4;stroke-opacity:1;stroke-dasharray:none"
       d="m 355.37993,751.0148 c -13.3421,-26.78963 10.8474,-55.02329 45.5876,-48.43671 18.5484,6.57494 30.5443,14.15282 27.3259,40.47915"
       id="path3700"
       sodipodi:nodetypes="ccc" />
    <path
       inkscape:connector-curvature="0"
       style="fill:none;stroke:#000000;stroke-width:1.27927028999999992;stroke-linecap:butt;stroke-linejoin:miter;stroke-miterlimit:4;stroke-opacity:1;stroke-dasharray:none"
       d="m 360.12863,665.53825 c 3.2226,-6.05158 13.3086,-4.22808 16.6077,1.90637 2.5018,4.65199 0.8866,19.03663 -13.7584,14.71407"
       id="path3702"
       sodipodi:nodetypes="csc" />
    <path
       inkscape:connector-curvature="0"
       style="fill:none;stroke:#000000;stroke-width:1.07458699000000002;stroke-linecap:butt;stroke-linejoin:miter;stroke-miterlimit:4;stroke-opacity:1;stroke-dasharray:none"
       d="m 363.45283,664.58851 c -1.0638,5.86058 -1.6711,2.57862 4.2738,3.32409 3.979,0.49896 4.0904,9.23293 -1.4247,11.87174"
       id="path3704"
       sodipodi:nodetypes="csc" />
    <path
       inkscape:connector-curvature="0"
       style="fill:none;stroke:#000000;stroke-width:0.81709552;stroke-linecap:butt;stroke-linejoin:miter;stroke-miterlimit:4;stroke-opacity:1;stroke-dasharray:none"
       d="m 358.12013,775.0035 c -13.30759,29.27964 -5.00307,57.8135 4.4246,68.86134 l 4.8241,-4.77384"
       id="path3706"
       sodipodi:nodetypes="ccc" />
    <path
       inkscape:connector-curvature="0"
       style="fill:none;stroke:#000000;stroke-width:0.88016659;stroke-linecap:butt;stroke-linejoin:miter;stroke-miterlimit:4;stroke-opacity:1;stroke-dasharray:none"
       d="m 423.64443,738.06108 c 7.2198,4.68332 11.9848,20.70943 11.9848,20.70944 1.5201,7.03366 -0.2265,9.81596 0,11.86244 l -4.9432,-5.21947 c 6.636,7.91897 9.51283,21.77544 7.17313,30.08426 l -6.41933,-4.24732 c 5.26323,19.23335 -2.70277,33.22508 -8.3544,37.18683"
       id="path3708"
       sodipodi:nodetypes="ccccccc" />
    <path
       inkscape:connector-curvature="0"
       style="fill:none;stroke:#000000;stroke-width:0.81709552;stroke-linecap:butt;stroke-linejoin:miter;stroke-miterlimit:4;stroke-opacity:1;stroke-dasharray:none"
       d="m 365.22833,841.18889 c -0.32485,25.43755 -39.83811,42.58987 -53.6324,87.22027 -5.3065,11.43754 -2.6084,24.81584 -0.2728,28.28871 8.1165,12.0685 4.6306,6.9502 4.6306,6.9502 3.3391,9.3842 7.7778,7.0556 9.9991,5.1829 4.4865,7.6537 10.6135,5.3768 10.6845,-0.2374 5.1919,3.539 8.8469,6.7658 11.1595,-1.1872 13.9319,6.9807 11.8772,-8.5686 17.3327,-14.00861 0.2914,-2.73017 1.0354,-12.07079 -4.9861,-10.20971 l 0,4.98614"
       id="path3712"
       sodipodi:nodetypes="ccsccccccc" />
    <path
       inkscape:connector-curvature="0"
       style="fill:none;stroke:#000000;stroke-width:0.81873298;stroke-linecap:butt;stroke-linejoin:miter;stroke-miterlimit:4;stroke-opacity:1;stroke-dasharray:none"
       d="m 330.17813,769.2088 c -2.3594,15.98236 7.123,17.09538 7.123,17.09538 l 1.4247,-6.64825 4.7486,9.02257 2.3744,-2.84919 6.2739,7.82406"
       id="path3714"
       sodipodi:nodetypes="cccccc" />
    <path
       inkscape:connector-curvature="0"
       style="fill:none;stroke:#000000;stroke-width:0.92107457;stroke-linecap:butt;stroke-linejoin:miter;stroke-miterlimit:4;stroke-opacity:1;stroke-dasharray:none"
       d="m 270.04073,790.33766 c -8.20724,25.87745 -6.64227,50.68949 19.3965,59.99338 10.52195,3.75959 19.94479,-2.66742 28.0654,-4.64718 2.1153,-0.5157 3.9029,-6.0903 3.8497,-9.23613"
       id="path3722"
       sodipodi:nodetypes="cssc" />
    <g
       id="g3258" />
    <path
       inkscape:connector-curvature="0"
       style="fill:none;stroke:#000000;stroke-width:0.92107457;stroke-linecap:butt;stroke-linejoin:miter;stroke-miterlimit:4;stroke-opacity:1;stroke-dasharray:none"
       d="m 301.76553,850.77658 c 26.35506,11.23544 31.89333,8.49975 53.18968,14.69744"
       id="path3726"
       sodipodi:nodetypes="cc" />
    <path
       inkscape:connector-curvature="0"
       style="fill:none;stroke:#000000;stroke-width:0.81709552;stroke-linecap:butt;stroke-linejoin:miter;stroke-miterlimit:4;stroke-opacity:1;stroke-dasharray:none"
       d="m 336.90233,831.79345 c 1.2867,1.7002 6.23785,4.22674 8.2746,4.07964 3.38215,-0.24426 6.94634,-1.42158 10.16473,-2.89171"
       id="path3730"
       sodipodi:nodetypes="csc" />
    <path
       inkscape:connector-curvature="0"
       style="fill:none;stroke:#000000;stroke-width:0.81709552;stroke-linecap:butt;stroke-linejoin:miter;stroke-miterlimit:4;stroke-opacity:1;stroke-dasharray:none"
       d="m 423.26003,820.54595 c 1.70814,0.56383 -1.91968,4.32295 -1.02704,6.34794 2.44653,5.55006 3.04084,13.97519 -4.67316,18.43378 -1.26683,-0.34746 -6.2804,2.33691 -5.9934,6.05396"
       id="path3732"
       sodipodi:nodetypes="cscc" />
    <path
       inkscape:connector-curvature="0"
       style="fill:none;stroke:#000000;stroke-width:0.81709552;stroke-linecap:butt;stroke-linejoin:miter;stroke-miterlimit:4;stroke-opacity:1;stroke-dasharray:none"
       d="m 416.73483,845.59495 c 6.37746,21.37065 -67.96931,73.15192 -65.6863,95.99863"
       id="path3734"
       sodipodi:nodetypes="cc" />
    <path
       inkscape:connector-curvature="0"
       style="fill:none;stroke:#000000;stroke-width:0.81709552;stroke-linecap:butt;stroke-linejoin:miter;stroke-miterlimit:4;stroke-opacity:1;stroke-dasharray:none"
       d="m 351.16863,938.15828 c 0.5946,-3.00859 0.6158,1.90038 4.2562,3.2715 2.4241,0.91299 8.9578,10.06279 -1.3732,17.21119"
       id="path3736"
       sodipodi:nodetypes="csc" />
    <path
       inkscape:connector-curvature="0"
       style="fill:none;stroke:#000000;stroke-width:0.91923243;stroke-linecap:butt;stroke-linejoin:miter;stroke-miterlimit:4;stroke-opacity:1;stroke-dasharray:none"
       d="m 361.55323,742.46714 c -8.217,9.28107 -12.2035,26.98762 -5.6481,37.41679"
       id="path3738"
       sodipodi:nodetypes="cc" />
    <path
       inkscape:connector-curvature="0"
       style="fill:none;stroke:#000000;stroke-width:0.92107457;stroke-linecap:butt;stroke-linejoin:miter;stroke-miterlimit:4;stroke-opacity:1;stroke-dasharray:none"
       d="m 525.63643,846.05566 c 18.4415,15.11908 30.3019,55.22385 -18.5066,68.84792"
       id="path3740"
       sodipodi:nodetypes="cc" />
    <path
       inkscape:connector-curvature="0"
       style="fill:none;stroke:#000000;stroke-width:0.92107457;stroke-linecap:butt;stroke-linejoin:miter;stroke-miterlimit:4;stroke-opacity:1;stroke-dasharray:none"
       d="m 400.01624,877.13264 c 9.72057,2.69578 18.40059,12.2307 27.25157,16.60426 7.43084,3.67183 21.06452,10.32419 22.64935,10.26175"
       id="path3742"
       sodipodi:nodetypes="csc" />
    <path
       inkscape:connector-curvature="0"
       style="fill:none;stroke:#000000;stroke-width:0.92107457;stroke-linecap:butt;stroke-linejoin:miter;stroke-miterlimit:4;stroke-opacity:1;stroke-dasharray:none"
       d="m 433.29388,877.20821 c 6.6593,-1.29692 4.07434,-3.08086 9.60954,4.86587"
       id="path3744"
       sodipodi:nodetypes="cc" />
    <path
       inkscape:connector-curvature="0"
       style="fill:none;stroke:#000000;stroke-width:0.92107457;stroke-linecap:butt;stroke-linejoin:miter;stroke-miterlimit:4;stroke-opacity:1;stroke-dasharray:none"
       d="m 510.15193,914.23202 c -9.2706,30.14523 9.62686,37.3445 17.16846,52.77045"
       id="path3766"
       sodipodi:nodetypes="cc" />
    <path
       inkscape:connector-curvature="0"
       style="fill:none;stroke:#000000;stroke-width:0.92107457;stroke-linecap:butt;stroke-linejoin:miter;stroke-miterlimit:4;stroke-opacity:1;stroke-dasharray:none"
       d="m 480.19563,881.10879 c -36.3492,-2.14175 -34.7513,30.11746 -24.6714,48.28939 0,0 1.2409,-7.40201 1.248,3.48872 0,0 6.2964,-7.14309 4.7803,-4.0953 -1.4288,2.87227 0.7448,8.66015 0.7448,8.66015 0,0 1.1846,-5.36542 2.2652,-3.58928 7.2602,11.93324 32.17955,21.0144 29.52395,32.4225"
       id="path3768"
       sodipodi:nodetypes="cccscsc" />
    <path
       inkscape:connector-curvature="0"
       style="fill:none;stroke:#000000;stroke-width:1.04076064;stroke-linecap:butt;stroke-linejoin:miter;stroke-miterlimit:4;stroke-opacity:1;stroke-dasharray:none"
       d="m 524.81319,961.93647 c 10.09026,12.1712 13.73218,18.7142 6.258,23.5536 -15.05485,9.7478 -58.831,2.6281 -70.3745,2.9148 -5.2008,2.9695 -8.216,5.3772 -14.3371,1.9777 3.5025,-3.3656 6.9171,-6.0678 12.4401,-5.3925 -9.7132,-2.9211 -13.4856,9.914 -18.212,4.1737 -1.1347,-3.361 4.5752,-6.5937 11.0031,-7.9678 -8.5774,-0.015 -11.792,9.1456 -15.1767,6.4501 -5.2068,-7.3377 5.8242,-11.6299 12.1413,-9.106 -4.8075,-2.8214 -12.008,0.6492 -13.7894,4.3915 -1.082,2.2732 -4.1234,-0.2155 -3.9056,-1.8665 -1.804,-3.7123 6.059,-5.1325 9.7273,-6.3191 l 18.9708,-1.5177 c -18.6569,5.7872 -21.784,-8.389 31.871,-5.6912 1.8303,-0.5292 3.586,-1.2078 4.1735,-4.2226"
       id="path3774"
       sodipodi:nodetypes="cscccccccsccccc" />
    <path
       inkscape:connector-curvature="0"
       style="fill:none;stroke:#000000;stroke-width:0.92107457;stroke-linecap:butt;stroke-linejoin:miter;stroke-miterlimit:4;stroke-opacity:1;stroke-dasharray:none"
       d="m 409.55196,881.83029 c -5.18038,-0.52338 -19.21845,16.2017 -22.54811,30.35492 0.43735,1.45067 1.96431,-4.93444 3.08658,-2.87394 0.77101,1.4156 -2.27181,5.84203 -1.68722,8.60709 0.29193,1.38078 2.01849,-3.07943 3.04769,-2.44287 -12.02486,22.69713 32.19722,30.31152 35.76289,43.97478"
       id="path3790"
       sodipodi:nodetypes="ccsccc" />
    <path
       inkscape:connector-curvature="0"
       style="fill:none;stroke:#000000;stroke-width:0.92107457;stroke-linecap:butt;stroke-linejoin:miter;stroke-miterlimit:4;stroke-opacity:1;stroke-dasharray:none"
       d="m 450.38243,916.5825 c -20.33388,15.23193 -6.94415,28.52737 0.30287,41.65197 1.86445,3.3766 3.32232,6.7419 3.69475,10.126 l 0.3358,0"
       id="path3792"
       sodipodi:nodetypes="cscc" />
    <path
       inkscape:connector-curvature="0"
       style="fill:none;stroke:#000000;stroke-width:0.92107457;stroke-linecap:butt;stroke-linejoin:miter;stroke-miterlimit:4;stroke-opacity:1;stroke-dasharray:none"
       d="m 423.65375,972.54097 c -2.249,1.9374 -5.964,1.7868 -11.601,3.9386 -3.0969,0.9653 -3.5708,2.0136 -4.2139,3.5692 -0.6159,1.4897 0.9882,3.4241 2.5296,3.578 3.0253,2.4624 5.97882,-1.7163 8.2403,-2.2172 4.507,-0.9982 8.65929,-2.454 12.57433,-2.7613"
       id="path3820"
       sodipodi:nodetypes="cczcsc" />
    <path
       inkscape:connector-curvature="0"
       style="fill:none;stroke:#000000;stroke-width:1.04076064;stroke-linecap:butt;stroke-linejoin:miter;stroke-miterlimit:4;stroke-opacity:1;stroke-dasharray:none"
       d="m 410.52495,976.85637 c 6.1665,-0.036 -9.0036,-0.2929 -10.1238,-0.2999 -4.9835,-0.031 -8.7045,0.6883 -11.9445,1.1964 -6.623,1.0387 -11.46,6.9349 -14.4355,1.1959 3.5025,-3.3657 7.2529,-6.2357 12.7759,-5.5604 -9.6897,-2.9083 -13.3537,10.6302 -18.212,4.1736 -0.7811,-3.777 5.7048,-6.8852 11.0031,-7.9677 -4.0298,0.6632 -7.889,2.5312 -10.9999,5.2239 -1.2586,1.0894 -1.2222,-0.1281 -2.4978,-0.117 -1.3331,-2.4673 -1.1148,-2.6904 0.2299,-4.9292 2.3214,-5.1765 10.1382,-3.3463 10.0339,-3.583 -0.6118,-1.3901 -8.0337,0.2133 -10.2294,2.955 -5.194,3.2162 -0.4701,-7.6304 7.6838,-6.2372 l 9.9582,-1.5232 c 19.5037,-4.503 33.2538,-4.8317 43.4406,-1.6565"
       id="path3774-8"
       sodipodi:nodetypes="cssccccsccscccc" />
    <path
       sodipodi:type="arc"
       style="fill:#ffffff;fill-opacity:1;stroke:#2b1100;stroke-width:2;stroke-miterlimit:4;stroke-opacity:1;stroke-dasharray:none"
       id="path4585"
       sodipodi:cx="-33.392857"
       sodipodi:cy="257.71933"
       sodipodi:rx="8.3928576"
       sodipodi:ry="8.5714283"
       d="m -24.999999,257.71933 c 0,4.73387 -3.75761,8.57143 -8.392858,8.57143 -4.635247,0 -8.392857,-3.83756 -8.392857,-8.57143 0,-4.73387 3.75761,-8.57143 8.392857,-8.57143 4.635248,0 8.392858,3.83756 8.392858,8.57143 z"
       transform="matrix(0.19067451,0,0,0.19067451,245.69883,628.73582)" />
    <path
       sodipodi:type="arc"
       style="fill:#ffffff;fill-opacity:1;stroke:#2b1100;stroke-width:2;stroke-miterlimit:4;stroke-opacity:1;stroke-dasharray:none"
       id="path4585-5"
       sodipodi:cx="-33.392857"
       sodipodi:cy="257.71933"
       sodipodi:rx="8.3928576"
       sodipodi:ry="8.5714283"
       d="m -24.999999,257.71933 c 0,4.73387 -3.75761,8.57143 -8.392858,8.57143 -4.635247,0 -8.392857,-3.83756 -8.392857,-8.57143 0,-4.73387 3.75761,-8.57143 8.392857,-8.57143 4.635248,0 8.392858,3.83756 8.392858,8.57143 z"
       transform="matrix(0.19067451,0,0,0.19067451,280.78743,628.70177)" />
    <path
       sodipodi:type="arc"
       style="fill:#ffffff;fill-opacity:1;stroke:none"
       id="path2894-8"
       sodipodi:cx="108.43729"
       sodipodi:cy="340.38361"
       sodipodi:rx="0.82025182"
       sodipodi:ry="0.32810074"
       d="m 109.25754,340.38361 c 0,0.12479 -0.177,0.23879 -0.45667,0.2941 l -0.36358,-0.2941 z"
       sodipodi:start="0"
       sodipodi:end="1.111564"
       transform="matrix(0.5117081,0,0,0.5117081,403.09574,455.08378)" />
    <path
       inkscape:connector-curvature="0"
       style="fill:none;stroke:#000000;stroke-width:0.92107457;stroke-linecap:butt;stroke-linejoin:miter;stroke-miterlimit:4;stroke-opacity:1;stroke-dasharray:none"
       d="m 247.89331,784.73184 c -6.33721,12.02084 -11.6482,17.28195 -7.12746,38.86456 0.47085,2.24788 1.2267,0.3387 3.92114,-1.82485 -2.08158,3.58114 -2.44163,6.63424 -1.64163,7.53886 0.84619,0.95685 1.6898,-3.68076 2.0254,-2.93736 2.44306,5.41174 -2.39361,14.37013 -4.20185,18.80493 -6.5096,13.36531 -11.00359,27.94232 -12.93078,42.68316 -4.3287,22.19522 -4.06459,41.20972 -0.19222,54.17035 l 10.6663,16.94918 -0.6786,-5.56487 c 2.7254,9.73867 6.4505,13.47917 10.4317,15.68327 l -0.057,-6.2493 c 3.5736,10.491 14.6831,11.1751 21.901,11.9478 l 14.721,-5.2236 c 0,0 5.2206,-6.5537 5.2235,-10.4472 0,-2.685 -3.1165,-10.05937 -3.1165,-10.05937 l -7.2406,-3.77812 c -1.72039,-0.8977 -5.2869,3.86392 -0.9282,6.74562 l 1.3131,3.29297"
       id="path3720-6"
       sodipodi:nodetypes="cscsscccccccccscscc" />
    <path
       inkscape:connector-curvature="0"
       style="fill:none;stroke:#000000;stroke-width:0.92107457;stroke-linecap:butt;stroke-linejoin:miter;stroke-miterlimit:4;stroke-opacity:1;stroke-dasharray:none"
       d="m 288.79141,850.06191 c -22.51192,32.07555 -24.7065,49.39773 -23.6313,53.95228 1.48716,6.29961 6.6759,9.72617 6.6759,9.72617 l -7.18906,-2.24869 2.21416,7.84663 -3.3743,-1.79897 c 0,0 -6.6787,12.85295 7.2487,17.41946 4.06742,2.05029 4.43538,9.50972 4.1391,13.72841 -0.1527,2.358 4.2717,3.9352 5.258,7.51897 1.152,4.1859 1.7709,5.3695 -1.6518,7.4516 -1.1977,0.7286 -2.5991,1.224 -6.5791,-2.9709 -2.4751,-2.6087 -2.8196,-2.4808 -5.9119,-7.67077"
       id="path3724-2"
       sodipodi:nodetypes="csccccccssss" />
    <path
       style="fill:none;stroke:#000000;stroke-width:1px;stroke-linecap:butt;stroke-linejoin:miter;stroke-opacity:1"
       d="m 266.32083,699.68579 c 0.33333,0.16666 0.66666,0.33333 0,0 z"
       id="path8381"
       inkscape:connector-curvature="0" />
    <path
       style="fill:#280b0b;fill-opacity:1;fill-rule:nonzero;stroke:#000000;stroke-width:0.39999997999999998;stroke-miterlimit:4;stroke-opacity:1;stroke-dasharray:none"
       d="m 267.93056,521.49539 c -3.44713,-0.28922 -9.29159,-1.76532 -11.59372,-2.92815 -2.89223,-1.46091 -5.46134,-4.04879 -6.66144,-6.71014 -0.50025,-1.10935 -1.15373,-1.93688 -1.45219,-1.83896 -0.29846,0.0979 -0.65515,1.35603 -0.79265,2.79578 l -0.25,2.61774 -2.1771,-2.15656 c -2.27252,-2.25108 -4.11297,-5.41941 -5.6094,-9.65656 -0.88498,-2.50583 -2.23303,-3.54508 -2.54634,-1.96306 -0.27998,1.41369 -8.30533,-11.95121 -9.12684,-15.19925 -1.56478,-6.18672 -2.02595,-11.02894 -2.00838,-21.08769 0.0193,-11.03751 0.34316,-14.25313 3.02172,-30 2.84321,-16.71478 5.4314,-25.43203 12.09886,-40.75 5.24585,-12.0519 6.0097,-14.75826 5.36981,-19.02539 -0.29518,-1.96836 -0.49445,-2.28315 -1.31023,-2.06982 -1.16947,0.30582 -1.20975,-0.22556 -0.16955,-2.23707 1.18533,-2.29218 0.14918,-3.02801 -1.72945,-1.22818 l -1.44348,1.38295 -0.60786,-3.16124 c -0.33433,-1.73869 -0.72621,-5.67053 -0.87086,-8.73744 -0.37138,-7.87414 0.54443,-11.60056 4.96677,-20.20979 l 3.48579,-6.78598 4.93001,1.65134 c 2.71151,0.90824 7.30298,2.24595 10.20327,2.97269 2.90029,0.72675 5.27265,1.46234 5.27191,1.63465 -7.5e-4,0.1723 -0.65714,2.90739 -1.45867,6.07797 -6.35047,25.12038 -0.47212,43.05201 16.96002,51.73572 1.5125,0.75344 2.82432,1.43589 2.91515,1.51656 0.0908,0.0807 -1.39177,2.47235 -3.29467,5.31485 -10.88183,16.25494 -18.61451,33.32911 -19.46322,42.97583 -0.42554,4.83678 0.13244,7.52442 2.18018,10.5013 1.69067,2.45781 1.7208,2.572 0.59658,2.26089 -4.00975,-1.10963 -3.91972,-1.20659 -2.67861,2.88462 0.97202,3.20419 0.94502,3.43799 -0.319,2.76151 -0.82948,-0.44393 -1.15925,-0.42028 -1.49821,0.1074 -1.48798,2.31653 -1.91648,8.8206 -0.76209,11.56769 0.94344,2.24509 3.49147,4.58447 6.59265,6.05281 4.51207,2.13637 5.16581,3.81936 5.7007,14.67583 0.0168,0.34084 1.12579,1.82912 2.46442,3.30729 1.80895,1.99751 2.59756,3.36985 3.07133,5.34475 0.6274,2.61527 0.61617,2.67547 -0.71176,3.81771 -0.74207,0.6383 -1.80337,1.16055 -2.35845,1.16055 -1.29284,0 -6.45125,-4.9086 -8.47866,-8.06804 -1.35695,-2.11463 -2.95634,-3.22001 -2.95634,-2.04322 0,1.20989 5.28128,7.80708 7.85512,9.81234 2.99833,2.33598 4.6833,2.3605 6.94279,0.101 1.45429,-1.45429 1.65609,-1.93855 1.40638,-3.375 -0.5803,-3.33825 -2.24543,-7.96822 -3.21405,-8.93684 -1.22451,-1.22451 -1.27644,-3.07963 -0.11524,-4.11678 0.80265,-0.71691 1.17047,-0.61846 4.44882,1.19073 3.52866,1.94733 3.59027,2.01663 4.875,5.48264 1.63868,4.42091 1.65612,7.04499 0.068,10.23 -2.38364,4.78038 -3.3289,5.47571 -11.0168,8.10386 -4.41386,1.5089 -7.64654,2.33874 -8.75,2.24616 l 0,0 z"
       id="path3501"
       inkscape:connector-curvature="0"
       transform="translate(0,452.36218)" />
    <path
       style="fill:#280b0b;fill-opacity:1;fill-rule:nonzero;stroke:#000000;stroke-width:0.39999997999999998;stroke-miterlimit:4;stroke-opacity:1;stroke-dasharray:none"
       d="m 330.65796,520.16616 c -0.83743,-0.36478 -2.22578,-1.53722 -3.08522,-2.60543 l -1.56262,-1.94219 -1.49193,0.875 c -3.00878,1.76462 -4.86206,0.7856 -7.16707,-3.78606 -0.85658,-1.69892 -2.46506,-4.42693 -3.57439,-6.06225 -3.24475,-4.78326 -3.97065,-7.19757 -4.23198,-14.07529 -0.27399,-7.21098 0.0833,-9.12074 3.4522,-18.4514 4.99597,-13.83716 11.49047,-25.10579 21.48787,-37.2837 3.21421,-3.91526 18.26257,-21.24175 19.71217,-22.69635 1.34155,-1.34617 6.82345,-9.47349 8.13136,-12.05532 1.33198,-2.62937 2.9422,-7.83297 3.33642,-10.78204 0.18031,-1.34884 0.71855,-2.68735 1.28778,-3.2025 0.5379,-0.48679 0.978,-1.0752 0.978,-1.30758 0,-0.96188 -1.33977,-0.29725 -3.32157,1.64774 l -2.10943,2.07025 -1.99407,-3.08522 c -5.83952,-9.03487 -9.01868,-22.69646 -8.43768,-36.25866 0.39879,-9.30885 2.06998,-16.85239 5.79805,-26.17161 0.89598,-2.23972 0.93728,-2.625 0.2814,-2.625 -0.4228,0 -1.00402,0.675 -1.29162,1.5 -0.90601,2.59897 -1.49016,1.95263 -2.71137,-3 -1.96684,-7.9766 0.53575,-19.69391 5.81624,-27.23207 2.0977,-2.99457 2.36663,-3.76793 1.31022,-3.76793 -0.36291,0 -1.76137,1.71124 -3.10769,3.80275 l -2.44786,3.80276 -0.92615,-2.17776 c -6.61358,-15.55119 1.03832,-33.57517 17.51974,-41.26759 10.51869,-4.90942 23.0137,-5.38235 33.24462,-1.2583 7.02425,2.83146 11.28379,5.42364 14.88626,9.05915 5.46245,5.51256 7.47078,11.15152 7.48352,21.01207 l 0.007,5.72308 -1.71705,-1.66422 c -1.16179,-1.12605 -1.99312,-1.55828 -2.57077,-1.33662 -0.71512,0.27442 -0.52812,0.63017 1.15177,2.19114 2.45539,2.28158 4.84647,6.04504 7.29104,11.47575 2.32217,5.15883 3.34501,9.04282 3.34501,12.70194 0,4.57688 -0.33207,4.88647 -2.52845,2.35733 -2.91346,-3.35483 -3.36867,-1.95578 -0.75764,2.32852 3.67872,6.03621 5.81909,13.51844 5.75094,20.10391 -0.0557,5.37897 -0.17847,5.47655 -3.8533,3.06157 -1.72374,-1.13279 -3.22408,-1.96962 -3.33408,-1.85962 -0.11,0.11 0.16322,1.66118 0.60715,3.44706 1.14239,4.59573 1.10538,15.17774 -0.0682,19.49707 -1.22182,4.49688 -3.9777,9.92948 -6.20162,12.22509 -1.66315,1.71677 -1.88134,1.8142 -2.01787,0.90105 -0.0842,-0.56313 0.19706,-1.86186 0.625,-2.88607 0.94088,-2.25183 0.98754,-3.24007 0.15298,-3.24007 -0.34381,0 -1.04686,1.31998 -1.56235,2.93328 -0.89685,2.80687 -0.90008,3.04516 -0.0749,5.52955 0.47429,1.42796 0.86235,3.88636 0.86235,5.46312 0,5.14403 -2.3,8.76116 -6.86733,10.80005 -1.38454,0.61806 -3.12829,1.84982 -3.875,2.73724 -1.48688,1.76705 -1.82854,4.03676 -0.60767,4.03676 0.4125,0 0.75,-0.41965 0.75,-0.93257 0,-1.12717 1.68796,-3.36524 3.11344,-4.12814 1.00782,-0.53937 1.02832,-0.47098 0.75673,2.52424 -0.44993,4.96185 -4.09946,11.82425 -10.78865,20.28647 -3.88522,4.91503 -8.26175,9.80444 -20.33152,22.71417 -21.03997,22.5042 -26.41463,28.93969 -31.36435,37.55491 -2.80613,4.88421 -4.36731,11.98092 -2.63565,11.98092 0.42583,0 0.75,-0.44867 0.75,-1.03803 0,-1.02388 0.0212,-1.02217 1.55295,0.125 4.4843,3.35838 5.84527,6.01467 5.21954,10.18733 -0.28719,1.91517 -0.83639,2.8818 -2.84239,5.00285 -1.70956,1.80761 -2.29732,2.74589 -1.88121,3.00306 0.92406,0.5711 5.25553,-4.24687 5.90499,-6.56822 0.3019,-1.0791 0.69309,-3.48074 0.86932,-5.33699 0.30735,-3.23753 0.70602,-3.84097 1.97695,-2.99235 1.16248,0.77621 1.69985,2.68034 1.69985,6.02325 0,2.43643 -0.21806,3.65263 -0.73127,4.07856 -0.4022,0.33379 -1.43324,2.44259 -2.29121,4.68622 -1.95638,5.11605 -3.6923,8.14149 -5.10528,8.8977 -1.46008,0.78141 -4.27744,0.62911 -6.64248,-0.35906 -1.80301,-0.75335 -1.96507,-0.74776 -2.57688,0.089 -0.35908,0.49107 -0.65288,1.14493 -0.65288,1.45301 0,0.30809 -0.47552,1.07057 -1.05671,1.69441 -1.31653,1.41312 -2.58194,1.16094 -6.11561,-1.21877 -1.41038,-0.94981 -2.73608,-1.72692 -2.946,-1.72692 -0.20992,0 -0.38168,0.57981 -0.38168,1.28846 0,1.22 -2.40074,4.23626 -3.33653,4.19197 -0.22741,-0.0108 -1.09863,-0.31803 -1.93606,-0.68281 l 0,0 z"
       id="path3503"
       inkscape:connector-curvature="0"
       transform="translate(0,452.36218)" />
    <path
       style="fill:#280b0b;fill-opacity:1;fill-rule:nonzero;stroke:#000000;stroke-width:0.39999997999999998;stroke-miterlimit:4;stroke-opacity:1;stroke-dasharray:none"
       d="m 449.05555,538.35295 c -0.61875,-0.24871 -1.125,-0.56965 -1.125,-0.7132 0,-0.14355 1.20968,-1.06419 2.68818,-2.04586 1.98282,-1.31652 3.42599,-1.861 5.5,-2.07506 4.00924,-0.41379 3.72138,-2.15798 -0.35408,-2.14541 -1.92536,0.006 -5.71489,1.75356 -9.0825,4.18859 -3.47804,2.51487 -5.75024,2.35941 -5.07019,-0.3469 0.36487,-1.45205 3.87377,-3.68944 7.44289,-4.74584 2.02642,-0.59978 2.87452,-1.09958 2.875,-1.6943 0.002,-2.04357 -6.60792,0.4392 -10.97708,4.12333 -2.92594,2.46719 -4.0922,2.43611 -4.72707,-0.12597 -0.97112,-3.91901 3.24921,-6.7547 9.2982,-6.24758 2.66072,0.22307 3.40665,0.13846 3.40665,-0.38639 0,-0.8072 -2.55006,-1.76887 -4.69961,-1.7723 -2.72559,-0.004 -6.3619,1.64774 -8.64371,3.92708 -2.3747,2.37215 -3.4203,2.44132 -3.96716,0.26244 -0.46999,-1.87258 0.90728,-2.87941 6.10937,-4.46614 3.53155,-1.07719 5.1423,-1.27429 10.31798,-1.26255 7.16773,0.0162 11.88313,-0.71557 11.88313,-1.84424 0,-0.65188 -0.82483,-0.70753 -6,-0.40482 -3.3,0.19302 -6,0.22947 -6,0.081 0,-0.69884 4.6369,-2.50483 8.71954,-3.3961 3.74388,-0.81732 7.32115,-1.04591 20.60401,-1.31661 15.11877,-0.30811 16.13942,-0.38697 17.18238,-1.32757 1.58976,-1.43373 2.23539,-3.3252 1.3115,-3.84223 -0.40044,-0.2241 -1.23241,-1.44928 -1.84882,-2.72262 -1.56224,-3.22714 -5.52222,-7.04493 -13.9453,-13.44453 -8.29898,-6.30532 -12.53635,-10.08467 -14.04657,-12.52826 -1.11584,-1.80546 -2.31413,-2.21791 -2.79593,-0.96236 -0.15829,0.4125 -0.52136,0.75 -0.80683,0.75 -0.33721,0 -0.41623,-1.22603 -0.22559,-3.5 0.34566,-4.12306 -0.004,-4.33238 -2.75231,-1.64853 l -1.89608,1.85148 0,-1.56058 c 0,-0.85832 -0.13657,-1.91649 -0.3035,-2.35148 -0.35191,-0.91708 -1.5242,-1.05781 -1.80459,-0.21664 -0.10528,0.31585 -0.91141,-1.3154 -1.7914,-3.625 -4.25785,-11.17501 -4.56113,-20.97401 -0.88826,-28.69925 3.76484,-7.91869 10.96233,-11.96539 22.41275,-12.60131 4.03199,-0.22392 5.375,-0.46718 5.375,-0.9736 0,-0.93388 -5.11367,-0.89135 -10.80951,0.0899 -11.20612,1.93054 -18.4183,8.5678 -20.29902,18.68085 -0.68414,3.67881 0.34947,3.82175 -11.14147,-1.54074 -11.15693,-5.20663 -13.1234,-6.33792 -21.96584,-12.63671 -4.10621,-2.92501 -9.10364,-6.10594 -11.10541,-7.06875 l -3.63957,-1.75057 3.52163,-4.3082 c 7.88352,-9.64433 12.38659,-17.86533 12.64114,-23.0782 0.14338,-2.93608 0.25561,-3.18042 2.24174,-4.88047 3.4568,-2.95889 4.30631,-5.10115 4.30631,-10.85953 l 0,-4.92733 1.92437,-2.07267 c 5.59334,-6.02438 8.42657,-16.74945 7.31401,-27.6869 -0.29406,-2.89088 -0.45813,-5.33269 -0.36459,-5.42622 0.0935,-0.0935 1.1727,0.49508 2.39814,1.30805 1.22544,0.81297 2.38087,1.47908 2.56762,1.48026 0.18675,0.001 0.61404,-1.29161 0.94953,-2.87286 0.82669,-3.89644 -0.0437,-11.7418 -1.92755,-17.37401 -0.82106,-2.45476 -1.20582,-4.30289 -0.91594,-4.39951 0.29679,-0.0989 0.50327,-2.69241 0.50826,-6.38405 0.008,-6.02346 -0.0503,-6.36561 -1.87377,-10.96742 -1.0352,-2.6125 -2.70033,-6.2125 -3.70029,-8 l -1.81811,-3.25 0.12978,-6 c 0.38165,-17.6441 -6.00006,-26.36015 -24.73065,-33.77678 -3.6453,-1.4434 -4.56081,-1.58957 -11.49291,-1.83489 -8.92675,-0.3159 -13.73777,0.44829 -19.9679,3.17177 -2.2,0.96172 -4.45,1.84211 -5,1.95643 -0.55,0.11432 -2.67066,0.77611 -4.71257,1.47066 -4.2587,1.44857 -4.53914,1.48803 -4.53268,0.63781 0.007,-0.90129 3.56724,-6.42707 7.42044,-11.51663 l 3.32481,-4.39164 0.15518,1.76664 c 0.0854,0.97164 0.26371,1.76663 0.39635,1.76663 0.51588,0 5.88432,-4.19546 8.10701,-6.33566 2.11131,-2.03295 2.73463,-2.32968 6.34146,-3.01884 6.16946,-1.17879 17.62217,-0.6632 23.39092,1.05303 16.78305,4.99304 29.77416,17.94182 34.88436,34.77071 1.22117,4.02155 2.95027,6.7774 11.9149,18.99001 7.83468,10.67326 9.78038,13.50724 11.1846,16.29075 2.21404,4.38874 4.82631,12.84473 7.67245,24.83595 7.51048,31.64273 9.54351,35.38228 24.01513,44.17325 10.36834,6.29838 15.64261,9.82685 20.43763,13.67269 6.15432,4.93606 12.44138,11.16851 14.86173,14.73264 2.49002,3.66671 5.44781,10.02382 6.66988,14.33546 1.26146,4.45056 1.27968,13.58584 0.0354,17.75 -3.37526,11.29585 -13.60274,20.3172 -28.83931,25.43828 -2.38262,0.80081 -3.78938,1.55156 -3.89865,2.08059 -0.13442,0.65076 0.0683,0.75176 0.9482,0.47248 0.99156,-0.31471 1.08198,-0.22044 0.79306,0.82672 -0.17936,0.65006 -0.68477,3.31943 -1.12313,5.93193 -1.5189,9.05207 -0.0168,17.43026 4.39256,24.5 1.11486,1.7875 4.24875,6.09227 6.96421,9.56617 2.71546,3.47389 5.47647,7.26557 6.13558,8.42595 0.6591,1.16037 1.71576,2.3681 2.34813,2.68383 1.54436,0.77106 5.32838,6.50341 6.17506,9.35448 0.87562,2.94855 0.52661,4.65331 -1.33347,6.51339 -5.80855,5.80855 -22.55415,7.71183 -50.12924,5.69761 -5.5,-0.40175 -12.5875,-0.8768 -15.75,-1.05567 l -5.75,-0.32522 -3.61252,1.81973 c -3.61602,1.82148 -5.8292,2.18171 -8.01248,1.30414 l 0,0 z m -7.05988,-111.38292 c -2.60397,-4.05794 -3.0212,-4.29493 -6.27824,-3.56604 -1.83141,0.40986 -2.78688,0.87497 -2.78688,1.35662 0,0.73419 0.68641,0.70766 4.1443,-0.16022 1.11607,-0.28011 1.50215,0.0387 3.35987,2.7743 1.45127,2.13708 2.25914,2.93053 2.6182,2.57147 0.35907,-0.35906 0.0329,-1.27738 -1.05725,-2.97613 l 0,0 z"
       id="path3505"
       inkscape:connector-curvature="0"
       transform="translate(0,452.36218)" />
    <path
       style="fill:#280b0b;fill-opacity:1;fill-rule:nonzero;stroke:#000000;stroke-width:0.39999997999999998;stroke-miterlimit:4;stroke-opacity:1;stroke-dasharray:none"
       d="m 410.47098,530.60624 c -3.62689,-1.99174 -2.03111,-4.39726 4.25783,-6.41841 7.64354,-2.45649 8.7677,-2.9094 9.05049,-3.64633 0.42729,-1.11351 -0.14937,-1.32344 -1.43037,-0.5207 -0.64261,0.40269 -3.26884,1.32329 -5.83606,2.04579 -4.12819,1.1618 -5.8041,1.33871 -14.5,1.5306 -10.77099,0.23768 -14.04343,0.76259 -20.30748,3.25739 -3.20068,1.27474 -4.19919,1.48112 -5.125,1.0593 -1.53649,-0.70008 -1.45232,-1.20111 0.47516,-2.82821 2.33893,-1.97442 5.2997,-3.19352 7.78666,-3.20615 1.7855,-0.009 2.13278,-0.16325 1.99569,-0.88598 -0.12132,-0.63957 -0.74078,-0.91658 -2.30226,-1.02951 -2.51798,-0.18212 -5.89165,1.29196 -10.16352,4.44082 -2.42442,1.78707 -2.95426,1.99208 -3.875,1.49932 -2.87145,-1.53676 0.98288,-5.45316 7.18343,-7.29912 2.58053,-0.76825 3.14053,-2.38367 0.66063,-1.90569 -2.32273,0.44768 -6.80247,2.46799 -8.72658,3.93559 -0.88953,0.67847 -1.95468,1.23359 -2.36699,1.23359 -1.86183,0 -1.20547,-3.62682 1.00675,-5.56297 1.59186,-1.39321 4.60148,-2.08349 7.56522,-1.73517 2.50825,0.2948 2.69418,0.25086 2.07838,-0.49114 -0.37197,-0.44819 -1.14706,-0.99388 -1.72242,-1.21263 -1.53502,-0.58361 -6.17731,0.39107 -8.61999,1.80982 -1.16875,0.67883 -2.125,1.02306 -2.125,0.76496 0,-0.94149 3.52256,-3.52985 5.11431,-3.75796 8.46604,-1.21327 16.21266,-2.46991 21.63569,-3.50969 12.69288,-2.43366 21.44662,-2.71026 30.66355,-0.96893 4.83822,0.91408 5.44632,0.64712 4.37368,-1.92006 -1.21782,-2.91466 -6.22763,-6.9999 -15.55412,-12.68358 -13.12465,-7.99834 -17.69298,-11.78129 -20.2717,-16.78663 -1.51745,-2.94541 -1.5372,-7.29406 -0.0483,-10.63458 0.59779,-1.34121 1.08689,-2.52246 1.08689,-2.625 0,-0.44999 -1.85633,-0.13011 -2.4,0.41356 -0.81785,0.81785 -0.77132,0.0113 0.15,-2.6 1.01095,-2.86533 0.94417,-3.9604 -0.26885,-4.40912 -0.96968,-0.35871 -0.89039,-0.62973 1.64323,-5.61612 2.80019,-5.51106 7.06109,-11.66023 10.37797,-14.9771 2.5957,-2.59571 5.94251,-4.99766 6.96359,-4.99766 0.44875,0 3.05874,1.61514 5.79999,3.5892 2.74123,1.97406 6.44657,4.53499 8.23407,5.69094 3.24749,2.10011 22.35326,11.40962 24.57479,11.97435 1.09651,0.27874 1.18564,0.57319 1.331,4.39713 0.0857,2.25411 0.31701,4.87172 0.51406,5.81691 0.34302,1.64536 0.19318,1.8812 -3.51908,5.539 -5.32455,5.24643 -6.66418,8.13147 -6.61332,14.24247 0.0464,5.57518 0.82379,7.70511 6.03259,16.52844 5.03071,8.52164 7.58087,13.67583 7.96976,16.10781 l 0.31715,1.9833 -2.39836,0.81721 c -2.53938,0.86525 -4.70859,2.54696 -4.70859,3.65039 0,0.46855 -0.79067,0.66285 -2.69733,0.66285 -2.97666,0 -8.32303,1.47307 -11.80267,3.25196 -1.2375,0.63265 -4.84849,1.74595 -8.02442,2.47401 -3.48792,0.79959 -6.79716,1.90786 -8.35729,2.79888 -2.84176,1.623 -3.30267,1.68771 -5.07786,0.71285 z"
       id="path3507"
       inkscape:connector-curvature="0"
       transform="translate(0,452.36218)" />
    <path
       style="fill:#280b0b;fill-opacity:1;fill-rule:nonzero;stroke:#000000;stroke-width:0.39999997999999998;stroke-miterlimit:4;stroke-opacity:1;stroke-dasharray:none"
       d="m 348.98639,336.18871 c -1.45307,-1.82609 -2.77682,-3.32017 -2.94166,-3.32017 -0.16485,0 -0.79971,0.46971 -1.41079,1.0438 l -1.11107,1.04379 -2.34608,-4.54245 c -2.11214,-4.08949 -3.24624,-5.23895 -3.24624,-3.29023 0,1.84199 -1.15257,5.74509 -1.69651,5.74509 -0.97195,0 -3.78869,-3.0061 -4.6515,-4.9642 -0.50441,-1.14474 -0.82044,-3.49091 -0.88037,-6.53579 l -0.0935,-4.75 2.38009,-2.86391 c 6.0368,-7.26391 8.26545,-17.01991 6.18684,-27.0831 -1.35545,-6.56219 -5.24088,-14.8561 -11.07563,-23.64231 l -3.71175,-5.58931 1.55879,-3.41069 c 3.46812,-7.58836 7.21208,-18.38089 9.07522,-26.16068 0.89871,-3.75272 1.13972,-6.21967 1.14792,-11.75 0.0127,-8.54567 -0.64393,-10.66697 -4.58085,-14.79952 -2.08767,-2.1914 -2.93766,-3.59529 -3.91301,-6.46296 -0.68531,-2.0149 -1.61077,-4.22012 -2.05657,-4.9005 l -0.81054,-1.23705 -6.81433,0.31098 c -19.06955,0.87025 -35.47011,4.99844 -51.12153,12.86782 l -4.027,2.02474 -3.08289,-1.00176 c -6.42624,-2.08815 -9.27494,-2.61621 -15.63223,-2.89775 -6.98214,-0.3092 -10.31357,0.15873 -13.87411,1.94876 -1.0579,0.53185 -2.02311,0.86735 -2.1449,0.74556 -0.5172,-0.5172 1.43534,-7.85153 2.86509,-10.76212 2.73817,-5.5742 9.83701,-11.45451 14.0473,-11.63604 0.63578,-0.0274 1.70844,-0.20394 2.38369,-0.39228 1.16891,-0.32604 1.11354,-0.40936 -1.15553,-1.73913 -4.70298,-2.75613 -4.10817,-4.42162 3.77481,-10.56969 15.1323,-11.80195 26.78156,-17.15823 40.19091,-18.47964 2.91637,-0.28739 3.06169,-0.24718 3.63217,1.00488 0.32684,0.71734 0.87228,1.2022 1.21208,1.07748 0.83679,-0.30715 0.69729,-0.73605 -1.40736,-4.3271 -0.99913,-1.70475 -1.71716,-3.19899 -1.59563,-3.32052 0.12153,-0.12154 2.6384,0.36159 5.59304,1.07362 2.95464,0.71203 5.47246,1.19421 5.59515,1.07151 0.20029,-0.20028 -0.38581,-7.74842 -1.08507,-13.97429 -0.33842,-3.01314 -0.11826,-3.01792 5.66441,-0.12311 7.41703,3.71298 11.48278,8.5852 12.72122,15.24455 0.64152,3.44964 1.72327,3.82721 1.46591,0.51166 l -0.16615,-2.14052 1.91615,1.14422 c 14.2833,8.52923 28.55093,20.61254 34.12904,28.90402 3.87134,5.75449 6.01994,11.58061 6.03118,16.35413 0.006,2.68253 -1.23004,8.16393 -2.01985,8.95505 -1.28919,1.29133 -0.43404,1.77508 3.15078,1.78239 11.48786,0.0234 19.29129,5.53065 20.62785,14.55798 0.44568,3.01018 -0.46802,7.33733 -2.41449,11.43463 -1.13989,2.39945 -2.75208,4.46039 -6.1603,7.875 -2.53899,2.54375 -4.8339,4.625 -5.09979,4.625 -0.28773,0 -0.377,-1.26508 -0.22051,-3.125 l 0.26293,-3.125 -5.82787,7.75 c -5.11564,6.80287 -10.7425,16.21698 -10.0856,16.87388 0.18671,0.18671 4.07462,-0.95543 7.79278,-2.28926 0.4125,-0.14797 -0.53796,0.91474 -2.11214,2.36159 -8.73534,8.02876 -12.55112,20.3705 -9.833,31.80379 0.61869,2.6024 2.5936,7.75 2.97334,7.75 0.16253,0 -0.2136,1.51875 -0.83584,3.375 -2.8566,8.52172 -2.80274,17.66554 0.1404,23.83738 0.76642,1.60721 0.73996,1.92846 -0.54476,6.61344 -2.07947,7.58313 -1.70099,7.30366 -4.73216,3.49434 l 0,0 z m 23.31692,-105.58923 c 2.57209,-1.07469 3.59042,-2.10079 4.94323,-4.98093 1.29082,-2.74819 1.60317,-7.57312 0.65335,-10.09245 -0.75461,-2.00153 -3.38125,-4.62279 -5.71934,-5.70762 -2.85552,-1.32491 -7.85127,-1.27791 -10.07231,0.0948 -2.11851,1.30931 -3.0692,2.89779 -2.10431,3.51602 0.45647,0.29248 0.98351,0.0684 1.61983,-0.68859 l 0.9432,-1.12212 -0.34884,2.375 -0.34884,2.375 2.99492,0 c 3.24308,0 4.32751,0.6243 4.87525,2.80665 0.41228,1.64266 -1.07279,5.43505 -2.5982,6.63494 -1.38755,1.09145 -1.58077,2.05841 -0.4113,2.05841 1.93923,0 4.68952,-4.59128 4.69781,-7.84245 0.009,-3.33447 -1.79111,-5.15755 -5.09121,-5.15755 -2.42785,0 -2.51351,-0.0474 -2.28121,-1.26261 0.15313,-0.80105 -0.031,-1.41501 -0.5036,-1.67951 -0.57191,-0.32005 -0.3648,-0.54943 0.89153,-0.98739 2.40768,-0.83932 3.94111,-0.69863 6.77671,0.62175 4.43696,2.06604 6.24601,5.69696 5.22079,10.47857 -1.25295,5.84372 -5.18835,8.47176 -11.00829,7.35126 -2.12655,-0.40941 -2.96777,-0.10932 -2.99427,1.06815 -0.023,1.02291 7.49699,1.13017 9.8651,0.14071 l 0,0 z"
       id="path3509"
       inkscape:connector-curvature="0"
       transform="translate(0,452.36218)" />
    <path
       style="fill:none;stroke:#000000;stroke-width:1px;stroke-linecap:butt;stroke-linejoin:miter;stroke-opacity:1"
       d="m 267.6399,247.50729 c -0.0903,1.06706 0.67143,-0.0357 0.88389,0.17677 0.0417,0.0417 -0.0417,0.13511 0,0.17678 0.0417,0.0417 0.13511,-0.0417 0.17677,0 0.0417,0.0417 0.0589,0.17678 0,0.17678 -0.0833,0 -0.26011,-0.17678 -0.17677,-0.17678 0.13176,0 0.22855,0.13511 0.35355,0.17678 0.0559,0.0186 0.13511,-0.0417 0.17678,0 0.0417,0.0417 -0.0417,0.13511 0,0.17677 0.0589,0.0589 0.29462,-0.0589 0.35355,0 0.2357,0.23571 -0.29463,0.17678 0.17678,0.17678"
       id="path4293"
       inkscape:connector-curvature="0"
       transform="translate(0,452.36218)" />
    <path
       style="fill:#550000;fill-opacity:1;fill-rule:nonzero;stroke:#5b0000;stroke-width:0.14142135;stroke-miterlimit:4;stroke-opacity:1;stroke-dasharray:none"
       d="m 251.8549,250.52176 c -0.86938,-0.39493 -2.19823,-1.83866 -2.74154,-2.97855 -0.28154,-0.59068 -0.40786,-1.19084 -0.41971,-1.99405 -0.0161,-1.0929 0.0303,-1.2268 0.94972,-2.74004 0.84599,-1.39236 0.97552,-1.72979 1.0375,-2.70277 0.22079,-3.46599 -2.62827,-6.82737 -5.9907,-7.06795 -1.41319,-0.10112 -2.28555,0.2846 -2.99919,1.3261 -0.38342,0.55956 -0.43891,0.83214 -0.43891,2.15609 0,1.27647 0.0752,1.67591 0.47636,2.53202 0.26199,0.55906 0.40485,1.01647 0.31745,1.01647 -0.33305,0 -1.4326,-1.69402 -1.70278,-2.62339 -0.71704,-2.46654 0.62839,-5.15557 3.16332,-6.32235 1.03957,-0.47849 1.23933,-0.50802 3.40251,-0.50305 2.37857,0.005 3.7389,0.21563 6.96445,1.07598 1.34367,0.3584 1.68946,0.39844 1.80925,0.2095 0.24667,-0.38903 0.17723,-1.02908 -0.11165,-1.02908 -0.14584,0 -0.26516,-0.0673 -0.26516,-0.14951 0,-0.28679 2.75649,-0.76638 4.94975,-0.86118 7.4763,-0.32317 15.57315,3.52021 18.14306,8.61209 0.67002,1.32754 0.7061,3.23617 0.0834,4.41272 -0.97153,1.83567 -3.54821,3.59337 -6.86281,4.68153 -1.40053,0.45978 -1.46743,0.46573 -1.86484,0.16597 -0.41139,-0.31031 -0.40874,-0.31209 1.35101,-0.90249 1.98435,-0.66575 3.63152,-1.58739 4.09139,-2.28923 0.16964,-0.2589 0.31662,-0.78282 0.32662,-1.16424 0.0153,-0.58357 -0.084,-0.78717 -0.62654,-1.28436 -1.50397,-1.37828 -6.03376,-2.0266 -9.95672,-1.42505 -3.94989,0.60568 -6.89404,1.84247 -8.93868,3.75499 -0.97515,0.91214 -1.1854,1.70621 -0.85709,3.23707 0.16434,0.7663 0.37081,1.11557 1.07679,1.82155 0.4804,0.4804 0.84884,0.8924 0.81874,0.91555 -0.0949,0.073 -3.4582,0.45054 -3.97767,0.44648 -0.27305,-0.002 -0.81635,-0.14921 -1.20734,-0.32682 l 0,0 z"
       id="path4303"
       inkscape:connector-curvature="0"
       transform="translate(0,452.36218)" />
    <path
       style="fill:#aa0000;fill-opacity:1;fill-rule:nonzero;stroke:#5b0000;stroke-width:0.14142135;stroke-miterlimit:4;stroke-opacity:1;stroke-dasharray:none"
       d="m 240.45658,229.99203 c -3.26393,-1.19644 -5.00345,-3.98754 -4.22731,-6.78281 l 0.19015,-0.6848 1.35566,0.081 c 1.94674,0.11629 2.84121,0.61155 5.6867,3.14869 2.01688,1.79833 2.94774,2.53516 3.85047,3.04793 l 0.75636,0.42962 -1.75402,0.10686 c -1.1113,0.0677 -2.13346,0.24516 -2.78955,0.48429 -1.48911,0.54275 -1.97619,0.56962 -3.06846,0.16923 z m 0.19037,-3.1676 c 0.89083,-0.89083 0.64183,-2.42026 -0.48811,-2.99812 -1.47385,-0.75373 -3.1238,0.7883 -2.53334,2.36764 0.28648,0.76628 0.85326,1.13872 1.73982,1.14328 0.6127,0.003 0.86772,-0.0989 1.28163,-0.5128 z"
       id="path4305"
       inkscape:connector-curvature="0"
       transform="translate(0,452.36218)" />
    <path
       style="fill:#aa0000;fill-opacity:1;fill-rule:nonzero;stroke:#5b0000;stroke-width:0.14142135;stroke-miterlimit:4;stroke-opacity:1;stroke-dasharray:none"
       d="m 269.54736,230.14231 c -0.48007,-0.18957 -1.6285,-0.541 -2.55207,-0.78096 -0.92357,-0.23997 -1.71165,-0.46873 -1.75129,-0.50837 -0.0396,-0.0396 1.30767,-0.98206 2.99402,-2.09428 5.2118,-3.43742 9.78146,-6.13506 10.39248,-6.13506 0.82956,0 2.70173,0.78635 3.45883,1.45277 1.33676,1.17666 1.44357,2.47447 0.34666,4.21208 -0.60036,0.95104 -2.17896,2.4514 -2.89323,2.74984 -1.1438,0.47791 -3.28014,0.93309 -5.67539,1.20924 -2.91692,0.33629 -3.2205,0.3289 -4.32001,-0.10526 z m 6.11445,-3.30382 c 0.48044,-0.42927 0.56258,-0.6234 0.56258,-1.32959 0,-1.16431 -0.67954,-1.88005 -1.78497,-1.88005 -1.11771,0 -1.80949,0.70962 -1.80949,1.85615 0,1.69338 1.76809,2.48268 3.03188,1.35349 l 0,0 z"
       id="path4307"
       inkscape:connector-curvature="0"
       transform="translate(0,452.36218)" />
    <path
       style="fill:#c8b7b7;fill-opacity:1;fill-rule:nonzero;stroke:none;stroke-width:0.14142135000000000;stroke-miterlimit:4;stroke-opacity:1;stroke-dasharray:none"
       d="m 281.54532,241.2416 -1.24928,-0.15331 -0.19776,-1.15452 c -0.10877,-0.63498 -0.45627,-1.67962 -0.77222,-2.32141 -0.77099,-1.5661 -3.25024,-4.06019 -5.24352,-5.27489 l -1.4642,-0.89228 1.55259,-0.20696 c 4.13201,-0.55077 6.30648,-1.24263 8.29534,-2.63936 2.31236,-1.6239 4.2354,-4.09856 6.09446,-7.84264 0.51898,-1.0452 0.99198,-1.90035 1.05112,-1.90035 0.371,0 1.22505,5.24536 1.22327,7.51301 -0.003,4.08832 -1.39374,6.29661 -4.57243,7.26138 -1.07499,0.32627 -3.87762,0.31953 -5.61806,-0.0135 -1.82027,-0.34832 -1.82751,-0.3474 -1.82751,0.23066 0,0.47799 0.0462,0.50359 1.28163,0.71021 5.21812,0.87273 8.70227,-0.007 10.37828,-2.62028 1.02143,-1.59267 1.30643,-2.8204 1.31318,-5.65685 0.006,-2.54338 -0.28109,-4.6015 -1.03471,-7.4164 -0.14195,-0.53023 -0.24086,-0.98129 -0.21979,-1.00237 0.10785,-0.10784 6.79484,3.04847 6.71929,3.17156 -0.0488,0.0795 0.19774,0.6085 0.5478,1.17565 2.82142,4.57106 3.69269,8.21124 2.54924,10.65084 -1.54452,3.29535 -5.68438,5.5616 -13.93352,7.62754 -3.40926,0.85382 -3.69793,0.8985 -4.8732,0.75428 z"
       id="path4309"
       inkscape:connector-curvature="0"
       transform="translate(0,452.36218)" />
    <path
       style="fill:#c8b7b7;fill-opacity:1;fill-rule:nonzero;stroke:none"
       d="m 350.69452,411.3082 c -1.26395,-0.37337 -7.07107,-1.64167 -12.9047,-2.81843 -5.83363,-1.17677 -12.40226,-2.61874 -14.59695,-3.20438 -7.42596,-1.98158 -19.49523,-6.44165 -18.46029,-6.8218 0.29168,-0.10714 1.88267,-0.69394 3.53553,-1.304 1.65287,-0.61006 4.58129,-1.64654 6.50762,-2.30328 4.56999,-1.55805 5.28185,-2.23705 6.40606,-6.11032 0.75159,-2.58946 0.8096,-4.77112 0.13056,-4.90939 -0.43793,-0.0892 -0.61358,0.27168 -0.76899,1.57988 -0.25503,2.14661 -1.19675,4.94606 -2.08552,6.19963 -0.46594,0.65717 -1.31604,1.15157 -2.64377,1.53755 -1.07635,0.31291 -3.8538,1.26648 -6.17211,2.11906 -9.16445,3.37032 -14.27327,3.93261 -19.50212,2.14649 -8.53935,-2.91697 -15.47334,-8.31755 -19.21066,-14.96236 -1.58532,-2.81862 -3.07809,-6.94535 -3.87942,-10.72449 -0.93533,-4.41116 -0.85539,-13.1933 0.17539,-19.26866 0.77031,-4.54018 2.65799,-12.36063 3.19223,-13.22505 0.21562,-0.34888 1.09245,-0.24875 4.03842,0.46119 5.46406,1.31677 7.6226,2.64015 8.2257,5.04313 0.11409,0.45454 0.30025,0.82644 0.4137,0.82644 0.11345,0 1.32922,-0.66414 2.70171,-1.47586 3.19173,-1.88767 6.85123,-5.55175 8.06,-8.07008 l 0.93335,-1.94455 0.0214,1.31347 c 0.0118,0.72241 -0.23001,2.05402 -0.5373,2.95914 -0.98587,2.90381 -0.11154,2.5075 3.74566,-1.6978 2.01235,-2.19396 3.94307,-4.29771 4.29049,-4.67499 0.61449,-0.66733 0.62594,-0.65068 0.42096,0.61245 -0.31511,1.94177 0.48937,2.04002 3.72567,0.45503 8.6197,-4.22154 16.59133,-9.42214 21.2564,-13.86744 l 1.59099,-1.51604 0.0249,3.78868 c 0.0295,4.48578 0.70385,7.13262 2.37577,9.32465 1.35831,1.78087 3.51766,3.33876 5.05303,3.64556 l 1.08973,0.21775 0.44498,-2.48994 c 0.24474,-1.36946 0.57488,-2.48994 0.73364,-2.48994 0.15876,0 1.12084,1.63077 2.13795,3.62393 1.01712,1.99315 1.91964,3.70293 2.0056,3.7995 0.086,0.0966 0.71676,-0.43599 1.40177,-1.18347 0.685,-0.74747 1.37629,-1.22423 1.53619,-1.05946 0.1599,0.16477 1.49023,1.80595 2.95629,3.64707 1.88178,2.3632 2.61706,3.55872 2.50062,4.06586 -0.85617,3.72883 -1.12496,14.34833 -0.50143,19.81026 0.64249,5.62796 2.36317,12.94764 4.0408,17.18926 0.14839,0.37518 0.006,0.63765 -0.41238,0.76215 -0.35129,0.10443 -1.76819,0.5953 -3.14866,1.09081 -1.38047,0.49552 -3.50088,1.06052 -4.71202,1.25557 -1.89562,0.30528 -2.46219,0.25731 -4.0712,-0.3447 -1.02803,-0.38464 -2.77121,-1.33123 -3.87373,-2.10355 -1.6609,-1.16347 -2.04157,-1.30784 -2.22033,-0.84202 -0.28126,0.73297 1.16376,1.92623 4.12897,3.4096 3.20168,1.60166 5.80576,1.54793 11.10952,-0.22924 3.85071,-1.29028 4.42272,-1.29292 4.44142,-0.0205 0.009,0.62251 3.54737,6.61193 4.86038,8.22754 l 1.23926,1.52486 0.84058,-0.78968 c 0.46232,-0.43433 0.94675,-0.68352 1.07651,-0.55376 0.49611,0.49611 -1.35091,6.57944 -3.02786,9.97255 -2.11472,4.2789 -6.90256,11.13624 -7.75022,11.10018 -0.3256,-0.0139 -1.62614,-0.33068 -2.89009,-0.70405 l 0,0 z"
       id="path4311"
       inkscape:connector-curvature="0"
       transform="translate(0,452.36218)" />
    <path
       style="fill:#c8b7b7;fill-opacity:1;fill-rule:nonzero;stroke:none"
       d="m 283.51938,343.47521 c 0,-0.6616 -1.89797,-2.55405 -3.2567,-3.24722 -0.77,-0.39282 -3.79231,-1.26345 -6.71627,-1.93474 -9.54889,-2.19223 -13.79417,-3.34409 -20.25232,-5.49499 -20.9802,-6.98749 -33.86272,-16.0583 -39.85737,-28.06427 -5.64602,-11.30775 -4.75353,-24.22445 2.76872,-40.07071 l 2.2384,-4.71538 -1.05771,-1.11825 c -2.222,-2.3492 -3.69865,-6.82973 -2.69497,-8.17719 0.49211,-0.66066 0.68097,-0.67384 3.82541,-0.26688 10.80854,1.39886 21.82105,4.99427 44.31994,14.46976 16.46623,6.93482 26.26529,10.42029 30.59045,10.88088 4.48302,0.4774 10.5607,-0.90008 12.34327,-2.79754 0.62971,-0.6703 0.67334,-0.86892 0.26523,-1.20762 -0.37883,-0.31439 -0.63029,-0.24862 -1.12053,0.29308 -1.21735,1.34516 -4.31575,2.21563 -8.49085,2.38543 -3.69753,0.15038 -4.09779,0.0944 -8.12622,-1.13688 -5.5383,-1.69273 -12.22194,-4.26546 -24.57747,-9.46059 -11.64962,-4.89832 -18.73429,-7.65959 -25.45584,-9.9215 -4.83546,-1.62721 -12.71571,-3.74654 -14.20985,-3.82162 -0.59897,-0.0301 -0.65152,-0.084 -0.19745,-0.2027 0.34029,-0.0889 0.61871,-0.48395 0.61871,-0.87783 0,-2.73478 4.88784,-7.81942 10.09147,-10.49778 3.48166,-1.79204 3.77513,-1.78173 4.77786,0.16789 1.03513,2.01262 2.97581,3.49663 5.55204,4.24556 2.06696,0.60088 2.08114,0.59902 2.26083,-0.29631 0.0848,-0.4227 -0.36226,-0.85355 -1.46754,-1.41422 -2.70727,-1.3733 -4.09532,-4.99799 -2.47536,-6.46404 1.05171,-0.95179 3.12958,-0.23112 4.7323,1.64131 1.81802,2.12395 1.91243,3.08244 0.55963,5.68177 -1.6442,3.15921 -1.38519,5.78917 0.79883,8.11155 1.83269,1.94879 2.76534,2.17587 6.94208,1.69021 5.46071,-0.63496 5.52554,-0.68417 2.84087,-2.15622 -2.42182,-1.32793 -3.29174,-2.60182 -2.56842,-3.76108 0.66192,-1.06084 3.06676,-2.47966 5.60885,-3.30915 4.44496,-1.4504 11.84404,-0.86346 11.84404,0.93954 0,0.76479 -3.05712,2.14433 -6.45235,2.91164 -2.19687,0.49649 -2.74004,0.74781 -2.74004,1.26782 0,0.48651 0.24296,0.63346 0.97227,0.58808 1.3604,-0.0846 2.56326,0.35286 2.56326,0.93233 0,0.65418 0.1754,0.63269 3.40202,-0.41688 4.22007,-1.37272 6.77992,-3.14485 8.19478,-5.67308 1.0656,-1.90411 10.91565,1.5274 14.44178,5.03116 0.97323,0.96706 1.62191,1.36135 1.92821,1.17205 0.37713,-0.23308 0.37057,-0.45534 -0.0359,-1.21479 -0.89837,-1.67862 -3.69416,-3.41679 -9.36936,-5.82504 -1.05081,-0.44592 -1.03236,-0.4577 1.9892,-1.26955 6.90386,-1.85499 10.73293,-4.13095 12.39791,-7.36918 1.12912,-2.19604 0.80731,-5.65176 -0.85081,-9.13628 -0.71712,-1.50702 -1.19237,-2.73445 -1.05611,-2.72761 0.13625,0.007 1.23335,0.22393 2.43799,0.48244 1.91624,0.41122 2.21585,0.40334 2.39481,-0.063 0.27415,-0.71442 0.31991,-0.68939 -2.66917,-1.46001 -2.28511,-0.58914 -10.11585,-3.84908 -11.10828,-4.62439 -2.55138,-1.99319 -9.5624,0.88128 -22.45064,9.20461 l -4.77297,3.08243 -3.41242,0.20654 c -1.95692,0.11844 -4.14354,0.48266 -5.12653,0.85391 -1.90132,0.71807 -4.36575,0.44587 -4.36575,-0.48221 0,-0.27237 -0.27842,-0.4958 -0.61872,-0.49653 -0.88922,-0.002 -2.65374,-1.15337 -5.43296,-3.54538 -3.91902,-3.37299 -5.64197,-3.93301 -9.72821,-3.16199 -2.7462,0.51817 -4.52597,1.89378 -4.90593,3.79187 -0.20052,1.00173 -0.13575,1.14905 0.50519,1.14905 0.5234,0 0.73842,-0.22916 0.7464,-0.79549 0.0105,-0.74753 0.0583,-0.73154 0.79207,0.26516 2.37227,3.22228 5.91724,6.18719 7.39767,6.18719 0.35084,0 0.63789,0.17308 0.63789,0.38463 0,0.52069 -2.50831,0.0803 -4.57909,-0.80404 -1.75466,-0.74931 -3.55264,-2.27038 -3.55264,-3.0055 0,-0.47713 -0.76954,-0.63745 -1.16441,-0.24258 -0.38572,0.38572 0.76556,2.184 1.95954,3.06076 1.19159,0.875 3.49042,1.79733 5.48044,2.19884 1.66955,0.33685 1.5715,1.43192 -0.15725,1.75624 -0.71846,0.13478 -2.06005,0.62702 -2.98131,1.09385 l -1.67501,0.84879 -1.72,-2.38033 c -3.54581,-4.90712 -6.55381,-11.16736 -7.53369,-15.67905 -0.6957,-3.20328 -0.31687,-7.93912 0.82112,-10.26509 3.88634,-7.94341 14.64787,-10.36302 29.59799,-6.65478 2.23622,0.55467 5.17427,1.38887 6.52899,1.85376 l 2.46312,0.84526 5.49183,-2.73364 c 14.04261,-6.98992 27.79685,-10.76079 43.67559,-11.97411 11.67275,-0.89194 11.00345,-0.89504 11.95385,0.0554 0.5314,0.53141 1.28148,2.22398 1.97539,4.4575 1.08057,3.47812 1.21327,3.70122 3.89501,6.54826 3.07577,3.26536 3.97704,4.94489 4.63787,8.64264 0.62791,3.5136 0.24564,10.5159 -0.86357,15.8183 -1.72548,8.24844 -5.7245,19.67554 -10.24321,29.26975 -1.09525,2.32545 -2.07112,4.95266 -2.1997,5.92202 -0.21413,1.61412 -0.17576,1.7423 0.52153,1.7423 0.6318,0 0.75466,-0.21288 0.76518,-1.32582 0.007,-0.72921 0.21539,-1.69133 0.46333,-2.13805 0.43533,-0.78434 0.5298,-0.69937 2.75145,2.47487 6.22099,8.88837 10.61629,17.99127 12.17132,25.20741 0.88003,4.0838 0.81594,10.49932 -0.14048,14.06211 -2.30646,8.5918 -8.95282,16.44845 -20.03112,23.67872 -3.41789,2.23069 -14.0105,8.11704 -14.2235,7.90404 -0.0576,-0.0576 0.13604,-0.68086 0.43028,-1.38506 0.67268,-1.60995 0.68483,-2.71729 0.0298,-2.71729 -0.5982,0 -1.90625,1.2372 -5.60267,5.29919 l -2.73099,3.0011 -0.0413,-2.29399 c -0.0802,-4.45164 -0.4461,-6.87526 -1.05549,-6.99105 -0.46536,-0.0884 -0.60246,0.36794 -0.76797,2.55635 -0.25751,3.40498 -1.39983,5.93737 -3.86133,8.56017 -1.70123,1.81273 -5.61089,4.71747 -6.34951,4.71747 -0.16431,0 -0.29874,-0.14689 -0.29874,-0.32643 z M 255.96725,227.18029 c -0.5788,-1.07322 -1.95461,-2.10701 -4.00251,-3.00752 -2.01827,-0.88747 -2.17072,-1.08203 -2.04677,-2.61221 0.0478,-0.58969 -0.12504,-0.79549 -0.66797,-0.79549 -0.58157,0 -0.73241,0.22322 -0.73241,1.0839 0,1.71048 0.56595,2.37165 3.13942,3.66763 1.32261,0.66606 2.6794,1.63018 3.01508,2.14249 0.48781,0.74449 0.71054,0.8483 1.10957,0.51713 0.33488,-0.27793 0.39599,-0.60581 0.18559,-0.99593 z"
       id="path4313"
       inkscape:connector-curvature="0"
       transform="translate(0,452.36218)" />
  </g>
</svg>
