<?xml version="1.0" encoding="UTF-8" standalone="no"?>
<!-- Created with Inkscape (http://www.inkscape.org/) -->

<svg
   xmlns:osb="http://www.openswatchbook.org/uri/2009/osb"
   xmlns:dc="http://purl.org/dc/elements/1.1/"
   xmlns:cc="http://creativecommons.org/ns#"
   xmlns:rdf="http://www.w3.org/1999/02/22-rdf-syntax-ns#"
   xmlns:svg="http://www.w3.org/2000/svg"
   xmlns="http://www.w3.org/2000/svg"
   xmlns:xlink="http://www.w3.org/1999/xlink"
   xmlns:sodipodi="http://sodipodi.sourceforge.net/DTD/sodipodi-0.dtd"
   xmlns:inkscape="http://www.inkscape.org/namespaces/inkscape"
   width="450"
   height="450"
   id="svg4711"
   version="1.1"
   inkscape:version="0.47 r22583"
   sodipodi:docname="sprite2.svg">
  <defs
     id="defs4713">
    <inkscape:perspective
       sodipodi:type="inkscape:persp3d"
       inkscape:vp_x="0 : 225 : 1"
       inkscape:vp_y="0 : 1000 : 0"
       inkscape:vp_z="450 : 225 : 1"
       inkscape:persp3d-origin="225 : 150 : 1"
       id="perspective3881" />
    <linearGradient
       inkscape:collect="always"
       id="linearGradient11246">
      <stop
         style="stop-color:#c8beb7;stop-opacity:1;"
         offset="0"
         id="stop11248" />
      <stop
         style="stop-color:#c8beb7;stop-opacity:0;"
         offset="1"
         id="stop11250" />
    </linearGradient>
    <linearGradient
       inkscape:collect="always"
       id="linearGradient11236">
      <stop
         style="stop-color:#c8beb7;stop-opacity:1;"
         offset="0"
         id="stop11238" />
      <stop
         style="stop-color:#c8beb7;stop-opacity:0;"
         offset="1"
         id="stop11240" />
    </linearGradient>
    <linearGradient
       inkscape:collect="always"
       id="linearGradient11226">
      <stop
         style="stop-color:#c8beb7;stop-opacity:1;"
         offset="0"
         id="stop11228" />
      <stop
         style="stop-color:#c8beb7;stop-opacity:0;"
         offset="1"
         id="stop11230" />
    </linearGradient>
    <linearGradient
       inkscape:collect="always"
       id="linearGradient11216">
      <stop
         style="stop-color:#c8beb7;stop-opacity:1;"
         offset="0"
         id="stop11218" />
      <stop
         style="stop-color:#c8beb7;stop-opacity:0;"
         offset="1"
         id="stop11220" />
    </linearGradient>
    <linearGradient
       inkscape:collect="always"
       id="linearGradient11206">
      <stop
         style="stop-color:#c8beb7;stop-opacity:1;"
         offset="0"
         id="stop11208" />
      <stop
         style="stop-color:#c8beb7;stop-opacity:0;"
         offset="1"
         id="stop11210" />
    </linearGradient>
    <linearGradient
       inkscape:collect="always"
       id="linearGradient4790">
      <stop
         style="stop-color:#b3b3b3;stop-opacity:1;"
         offset="0"
         id="stop4792" />
      <stop
         style="stop-color:#b3b3b3;stop-opacity:0;"
         offset="1"
         id="stop4794" />
    </linearGradient>
    <linearGradient
       inkscape:collect="always"
       id="linearGradient4766">
      <stop
         style="stop-color:#999999;stop-opacity:1;"
         offset="0"
         id="stop4768" />
      <stop
         style="stop-color:#999999;stop-opacity:0;"
         offset="1"
         id="stop4770" />
    </linearGradient>
    <linearGradient
       inkscape:collect="always"
       id="linearGradient4758">
      <stop
         style="stop-color:#999999;stop-opacity:1;"
         offset="0"
         id="stop4760" />
      <stop
         style="stop-color:#999999;stop-opacity:0;"
         offset="1"
         id="stop4762" />
    </linearGradient>
    <linearGradient
       inkscape:collect="always"
       id="linearGradient4742">
      <stop
         style="stop-color:#999999;stop-opacity:1;"
         offset="0"
         id="stop4744" />
      <stop
         style="stop-color:#999999;stop-opacity:0;"
         offset="1"
         id="stop4746" />
    </linearGradient>
    <linearGradient
       inkscape:collect="always"
       id="linearGradient4734">
      <stop
         style="stop-color:#550000;stop-opacity:1;"
         offset="0"
         id="stop4736" />
      <stop
         style="stop-color:#550000;stop-opacity:0;"
         offset="1"
         id="stop4738" />
    </linearGradient>
    <linearGradient
       id="linearGradient4098">
      <stop
         style="stop-color:#999999;stop-opacity:1;"
         offset="0"
         id="stop4100" />
      <stop
         style="stop-color:#000000;stop-opacity:0.89803922;"
         offset="1"
         id="stop4102" />
    </linearGradient>
    <linearGradient
       inkscape:collect="always"
       id="linearGradient4090">
      <stop
         style="stop-color:#999999;stop-opacity:1;"
         offset="0"
         id="stop4092" />
      <stop
         style="stop-color:#999999;stop-opacity:0;"
         offset="1"
         id="stop4094" />
    </linearGradient>
    <linearGradient
       inkscape:collect="always"
       id="linearGradient4082">
      <stop
         style="stop-color:#999999;stop-opacity:1;"
         offset="0"
         id="stop4084" />
      <stop
         style="stop-color:#999999;stop-opacity:0;"
         offset="1"
         id="stop4086" />
    </linearGradient>
    <linearGradient
       id="linearGradient4053"
       osb:paint="solid">
      <stop
         style="stop-color:#deaa87;stop-opacity:1;"
         offset="0"
         id="stop4055" />
    </linearGradient>
    <linearGradient
       inkscape:collect="always"
       xlink:href="#linearGradient4082"
       id="linearGradient4088"
       x1="58.62747"
       y1="159.28927"
       x2="187.45112"
       y2="159.28927"
       gradientUnits="userSpaceOnUse" />
    <linearGradient
       inkscape:collect="always"
       xlink:href="#linearGradient4090"
       id="linearGradient4096"
       x1="115.04848"
       y1="258.46546"
       x2="217.46752"
       y2="258.46546"
       gradientUnits="userSpaceOnUse" />
    <linearGradient
       inkscape:collect="always"
       xlink:href="#linearGradient4098"
       id="linearGradient4104"
       x1="121.83112"
       y1="122.16554"
       x2="149.34438"
       y2="122.16554"
       gradientUnits="userSpaceOnUse" />
    <linearGradient
       gradientTransform="translate(460.35718,-48.544704)"
       inkscape:collect="always"
       xlink:href="#linearGradient6448"
       id="linearGradient6454"
       x1="122.79939"
       y1="724.83551"
       x2="149.67725"
       y2="724.83551"
       gradientUnits="userSpaceOnUse" />
    <linearGradient
       inkscape:collect="always"
       id="linearGradient6448">
      <stop
         style="stop-color:#deaa87;stop-opacity:1;"
         offset="0"
         id="stop6450" />
      <stop
         style="stop-color:#deaa87;stop-opacity:0;"
         offset="1"
         id="stop6452" />
    </linearGradient>
    <linearGradient
       gradientTransform="translate(460.35718,-48.544704)"
       inkscape:collect="always"
       xlink:href="#linearGradient6440"
       id="linearGradient6446"
       x1="113.62627"
       y1="860.45245"
       x2="220.20416"
       y2="860.45245"
       gradientUnits="userSpaceOnUse" />
    <linearGradient
       inkscape:collect="always"
       id="linearGradient6440">
      <stop
         style="stop-color:#deaa87;stop-opacity:1;"
         offset="0"
         id="stop6442" />
      <stop
         style="stop-color:#deaa87;stop-opacity:0;"
         offset="1"
         id="stop6444" />
    </linearGradient>
    <linearGradient
       gradientTransform="translate(460.35718,-48.544704)"
       inkscape:collect="always"
       xlink:href="#linearGradient6424"
       id="linearGradient6430"
       x1="200.4371"
       y1="981.70251"
       x2="298.90799"
       y2="981.70251"
       gradientUnits="userSpaceOnUse" />
    <linearGradient
       inkscape:collect="always"
       id="linearGradient6424">
      <stop
         style="stop-color:#552200;stop-opacity:1;"
         offset="0"
         id="stop6426" />
      <stop
         style="stop-color:#552200;stop-opacity:0;"
         offset="1"
         id="stop6428" />
    </linearGradient>
    <linearGradient
       gradientTransform="translate(460.35718,-48.544704)"
       inkscape:collect="always"
       xlink:href="#linearGradient6400"
       id="linearGradient6406"
       x1="195.01718"
       y1="855.6828"
       x2="283.60852"
       y2="855.6828"
       gradientUnits="userSpaceOnUse" />
    <linearGradient
       inkscape:collect="always"
       id="linearGradient6400">
      <stop
         style="stop-color:#552200;stop-opacity:1;"
         offset="0"
         id="stop6402" />
      <stop
         style="stop-color:#552200;stop-opacity:0;"
         offset="1"
         id="stop6404" />
    </linearGradient>
    <linearGradient
       gradientTransform="translate(460.35718,-48.544704)"
       inkscape:collect="always"
       xlink:href="#linearGradient6408"
       id="linearGradient6414"
       x1="206.65604"
       y1="883.33215"
       x2="389.7699"
       y2="883.33215"
       gradientUnits="userSpaceOnUse" />
    <linearGradient
       inkscape:collect="always"
       id="linearGradient6408">
      <stop
         style="stop-color:#552200;stop-opacity:1;"
         offset="0"
         id="stop6410" />
      <stop
         style="stop-color:#552200;stop-opacity:0;"
         offset="1"
         id="stop6412" />
    </linearGradient>
    <linearGradient
       inkscape:collect="always"
       xlink:href="#linearGradient4734"
       id="linearGradient4740"
       x1="91.320822"
       y1="130.9522"
       x2="97.926714"
       y2="130.9522"
       gradientUnits="userSpaceOnUse" />
    <linearGradient
       inkscape:collect="always"
       xlink:href="#linearGradient4742"
       id="linearGradient4748"
       x1="91.320822"
       y1="130.9522"
       x2="97.926714"
       y2="130.9522"
       gradientUnits="userSpaceOnUse" />
    <linearGradient
       inkscape:collect="always"
       xlink:href="#linearGradient4758"
       id="linearGradient4764"
       x1="122.55107"
       y1="122.28796"
       x2="149.18581"
       y2="122.28796"
       gradientUnits="userSpaceOnUse" />
    <linearGradient
       inkscape:collect="always"
       xlink:href="#linearGradient4766"
       id="linearGradient4772"
       x1="115.25364"
       y1="257.55704"
       x2="212.89926"
       y2="257.55704"
       gradientUnits="userSpaceOnUse" />
    <linearGradient
       inkscape:collect="always"
       xlink:href="#linearGradient4098"
       id="linearGradient4788"
       x1="158.25713"
       y1="277.78516"
       x2="286.25"
       y2="277.78516"
       gradientUnits="userSpaceOnUse" />
    <linearGradient
       inkscape:collect="always"
       xlink:href="#linearGradient4790"
       id="linearGradient4796"
       x1="58.758353"
       y1="159.29699"
       x2="186.97799"
       y2="159.29699"
       gradientUnits="userSpaceOnUse" />
    <linearGradient
       inkscape:collect="always"
       xlink:href="#linearGradient4098"
       id="linearGradient4804"
       x1="207.75069"
       y1="278.72302"
       x2="389.4339"
       y2="278.72302"
       gradientUnits="userSpaceOnUse" />
    <linearGradient
       inkscape:collect="always"
       xlink:href="#linearGradient4098"
       id="linearGradient4812"
       x1="77.039139"
       y1="126.90265"
       x2="234.39935"
       y2="126.90265"
       gradientUnits="userSpaceOnUse" />
    <linearGradient
       inkscape:collect="always"
       xlink:href="#linearGradient4098"
       id="linearGradient4820"
       x1="74.523369"
       y1="319.43274"
       x2="137.5959"
       y2="319.43274"
       gradientUnits="userSpaceOnUse" />
    <linearGradient
       inkscape:collect="always"
       xlink:href="#linearGradient4098"
       id="linearGradient11168"
       x1="157.9118"
       y1="277.14236"
       x2="286.69986"
       y2="277.14236"
       gradientUnits="userSpaceOnUse" />
    <linearGradient
       inkscape:collect="always"
       xlink:href="#linearGradient4098"
       id="linearGradient11176"
       x1="207.90576"
       y1="278.27713"
       x2="389.85788"
       y2="278.27713"
       gradientUnits="userSpaceOnUse" />
    <linearGradient
       inkscape:collect="always"
       xlink:href="#linearGradient4098"
       id="linearGradient11184"
       x1="77.181694"
       y1="127.22464"
       x2="235.01636"
       y2="127.22464"
       gradientUnits="userSpaceOnUse" />
    <linearGradient
       inkscape:collect="always"
       xlink:href="#linearGradient4098"
       id="linearGradient11192"
       x1="74.481033"
       y1="319.2774"
       x2="137.36227"
       y2="319.2774"
       gradientUnits="userSpaceOnUse" />
    <linearGradient
       inkscape:collect="always"
       xlink:href="#linearGradient4098"
       id="linearGradient11202"
       x1="215.08235"
       y1="373.26819"
       x2="302.04959"
       y2="373.26819"
       gradientUnits="userSpaceOnUse" />
    <linearGradient
       inkscape:collect="always"
       xlink:href="#linearGradient11206"
       id="linearGradient11212"
       x1="113.96831"
       y1="258.23737"
       x2="212.29727"
       y2="258.23737"
       gradientUnits="userSpaceOnUse" />
    <linearGradient
       inkscape:collect="always"
       xlink:href="#linearGradient11216"
       id="linearGradient11222"
       x1="56.956834"
       y1="160.20518"
       x2="186.76382"
       y2="160.20518"
       gradientUnits="userSpaceOnUse" />
    <linearGradient
       inkscape:collect="always"
       xlink:href="#linearGradient11226"
       id="linearGradient11232"
       x1="128.32713"
       y1="122.33465"
       x2="149.32142"
       y2="122.33465"
       gradientUnits="userSpaceOnUse" />
    <linearGradient
       inkscape:collect="always"
       xlink:href="#linearGradient11236"
       id="linearGradient11242"
       x1="124.39648"
       y1="119.15878"
       x2="138.66826"
       y2="119.15878"
       gradientUnits="userSpaceOnUse" />
    <linearGradient
       inkscape:collect="always"
       xlink:href="#linearGradient11246"
       id="linearGradient11252"
       x1="91.089428"
       y1="131.82138"
       x2="99.006341"
       y2="131.82138"
       gradientUnits="userSpaceOnUse" />
    <inkscape:perspective
       id="perspective5540"
       inkscape:persp3d-origin="0.5 : 0.33333333 : 1"
       inkscape:vp_z="1 : 0.5 : 1"
       inkscape:vp_y="0 : 1000 : 0"
       inkscape:vp_x="0 : 0.5 : 1"
       sodipodi:type="inkscape:persp3d" />
    <inkscape:perspective
       id="perspective5686"
       inkscape:persp3d-origin="0.5 : 0.33333333 : 1"
       inkscape:vp_z="1 : 0.5 : 1"
       inkscape:vp_y="0 : 1000 : 0"
       inkscape:vp_x="0 : 0.5 : 1"
       sodipodi:type="inkscape:persp3d" />
    <inkscape:perspective
       id="perspective6528"
       inkscape:persp3d-origin="0.5 : 0.33333333 : 1"
       inkscape:vp_z="1 : 0.5 : 1"
       inkscape:vp_y="0 : 1000 : 0"
       inkscape:vp_x="0 : 0.5 : 1"
       sodipodi:type="inkscape:persp3d" />
    <inkscape:perspective
       id="perspective6619"
       inkscape:persp3d-origin="0.5 : 0.33333333 : 1"
       inkscape:vp_z="1 : 0.5 : 1"
       inkscape:vp_y="0 : 1000 : 0"
       inkscape:vp_x="0 : 0.5 : 1"
       sodipodi:type="inkscape:persp3d" />
    <inkscape:perspective
       id="perspective8445"
       inkscape:persp3d-origin="0.5 : 0.33333333 : 1"
       inkscape:vp_z="1 : 0.5 : 1"
       inkscape:vp_y="0 : 1000 : 0"
       inkscape:vp_x="0 : 0.5 : 1"
       sodipodi:type="inkscape:persp3d" />
  </defs>
  <sodipodi:namedview
     id="base"
     pagecolor="#ffffff"
     bordercolor="#666666"
     borderopacity="1.0"
     inkscape:pageopacity="0.0"
     inkscape:pageshadow="2"
     inkscape:zoom="1"
     inkscape:cx="139.4237"
     inkscape:cy="319.00382"
     inkscape:document-units="px"
     inkscape:current-layer="layer1"
     showgrid="false"
     inkscape:window-width="1280"
     inkscape:window-height="969"
     inkscape:window-x="-4"
     inkscape:window-y="-3"
     inkscape:window-maximized="1" />
  <metadata
     id="metadata4716">
    <rdf:RDF>
      <cc:Work
         rdf:about="">
        <dc:format>image/svg+xml</dc:format>
        <dc:type
           rdf:resource="http://purl.org/dc/dcmitype/StillImage" />
        <dc:title />
      </cc:Work>
    </rdf:RDF>
  </metadata>
  <g
     inkscape:label="Layer 1"
     inkscape:groupmode="layer"
     id="layer1"
     transform="translate(0,-602.36218)">
    <path
       inkscape:connector-curvature="0"
       style="fill:none;stroke:#000000;stroke-width:0.92107457000000004;stroke-linecap:butt;stroke-linejoin:miter;stroke-miterlimit:4;stroke-opacity:1;stroke-dasharray:none"
       d="m 81.2244,733.10776 c -22.1899,-28.77796 -5.1149,-46.83211 30.5798,-33.56316 27.0006,-14.98021 48.7561,-14.5989 59.4689,-15.34191 4.993,-0.34631 2.7457,8.17944 7.9586,11.83911 10.7194,7.52541 3.9145,34.41228 -8.3183,58.9927 l -0.1872,2.68627"
       id="path2836"
       sodipodi:nodetypes="cccscc" />
    <path
       inkscape:connector-curvature="0"
       style="fill:none;stroke:#000000;stroke-width:0.97224540000000004;stroke-linecap:butt;stroke-linejoin:miter;stroke-miterlimit:4;stroke-opacity:1;stroke-dasharray:none"
       d="M 72.4681,744.5381 C 71.536,737.72765 89.31382,726.93734 88.22932,731.61256"
       id="path2838"
       sodipodi:nodetypes="cc" />
    <path
       inkscape:connector-curvature="0"
       style="fill:none;stroke:#000000;stroke-width:0.92107457;stroke-linecap:butt;stroke-linejoin:miter;stroke-miterlimit:4;stroke-opacity:1;stroke-dasharray:none"
       d="m 228.99267,729.32958 c 36.28701,-10.6515 60.98045,13.60235 63.9014,37.49042 0.53123,4.34453 17.24756,19.16962 23.85622,30.09948 8.52079,14.09226 6.95412,42.53187 16.35621,60.21693 4.7875,9.00515 19.943,13.57385 32.6199,24.06923 2.7781,2.30003 6.3672,4.83327 9.0641,7.75129"
       id="path2840"
       sodipodi:nodetypes="cssssc" />
    <g
       id="g2848"
       transform="matrix(0.5117081,0,0,0.5117081,11.8958,330.08022)"
       style="stroke-width:2;stroke-miterlimit:4;stroke-dasharray:none;stroke:#000000;stroke-opacity:1">
      <path
         inkscape:connector-curvature="0"
         sodipodi:nodetypes="csc"
         id="path2842"
         d="m 163.66004,796.12331 c -15.06441,-1.96 -17.6486,-13.7399 -11.44903,-20.76461 4.6524,-5.27162 12.72023,-5.57324 28.53089,-0.98586"
         style="fill:none;stroke:#000000;stroke-width:2;stroke-linecap:butt;stroke-linejoin:miter;stroke-miterlimit:4;stroke-opacity:1;stroke-dasharray:none" />
      <path
         inkscape:connector-curvature="0"
         sodipodi:nodetypes="cc"
         id="path2844"
         d="m 176.36541,772.50963 c 33.17587,-13.23558 79.04976,19.84961 31.02392,34.77383"
         style="fill:none;stroke:#000000;stroke-width:2;stroke-linecap:butt;stroke-linejoin:miter;stroke-miterlimit:4;stroke-opacity:1;stroke-dasharray:none" />
      <path
         inkscape:connector-curvature="0"
         sodipodi:nodetypes="cccssscc"
         id="path2846"
         d="m 163.71996,795.69958 c -8.94354,-0.85182 -14.64063,-14.91382 -6.3029,-17.35968 13.11319,2.03166 17.33071,10.53839 11.96892,14.86294 -2.80385,5.41271 -4.80995,5.60405 -3.22353,11.37323 1.18766,4.31904 5.75819,9.301 10.20296,8.7454 l 11.66052,-1.45757 c -4.67446,-2.05388 -8.5233,-3.91241 -7.28783,-10.20296 16.58218,-17.74391 60.17258,-12.45467 17.97862,4.52494"
         style="fill:none;stroke:#000000;stroke-width:2;stroke-linecap:butt;stroke-linejoin:miter;stroke-miterlimit:4;stroke-opacity:1;stroke-dasharray:none" />
    </g>
    <path
       style="fill:none;stroke:#000000;stroke-width:0.76756215000000005;stroke-linecap:butt;stroke-linejoin:miter;stroke-miterlimit:4;stroke-opacity:1;stroke-dasharray:none"
       d="m 98.802,724.0677 c -5.025,-0.639 -7.6348,-7.29165 -12.4239,-7.21935 -2.7833,0.042 -7.4977,0.54263 -7.597,3.98511 -0.01,0.22574 0.01,0.46413 0.042,0.71586"
       id="path2859"
       sodipodi:nodetypes="cssc"
       inkscape:connector-curvature="0" />
    <path
       style="fill:none;stroke:#000000;stroke-width:0.76756215000000005;stroke-linecap:butt;stroke-linejoin:miter;stroke-miterlimit:4;stroke-opacity:1;stroke-dasharray:none"
       d="m 79.4945,723.56402 c 0.4898,2.75045 4.491414,4.52207 9.005014,5.03676"
       id="path2861"
       sodipodi:nodetypes="cc"
       inkscape:connector-curvature="0" />
    <path
       inkscape:connector-curvature="0"
       style="fill:none;stroke:#000000;stroke-width:0.76756215000000005;stroke-linecap:butt;stroke-linejoin:miter;stroke-miterlimit:4;stroke-opacity:1;stroke-dasharray:none"
       d="m 79.4945,718.86305 c 7.3583,10.8312 10.359,7.34071 10.6519,7.56581"
       id="path2863"
       sodipodi:nodetypes="cc" />
    <path
       style="fill:none;stroke:#000000;stroke-width:0.92107457000000004;stroke-linecap:butt;stroke-linejoin:miter;stroke-miterlimit:4;stroke-opacity:1;stroke-dasharray:none"
       d="m 97.9595,715.72907 c -1.622715,4.60048 2.70925,2.84926 6.3799,7.05145"
       id="path2865"
       sodipodi:nodetypes="cc"
       inkscape:connector-curvature="0" />
    <path
       inkscape:connector-curvature="0"
       style="fill:none;stroke:#000000;stroke-width:0.71639132000000005;stroke-linecap:butt;stroke-linejoin:miter;stroke-miterlimit:4;stroke-opacity:1;stroke-dasharray:none"
       d="m 84.867,716.84835 c -1.8833,3.87194 0.710714,8.18475 6.411914,8.9303"
       id="path2898"
       sodipodi:nodetypes="cc" />
    <path
       inkscape:connector-curvature="0"
       style="fill:none;stroke:#000000;stroke-width:1.02341616000000002;stroke-linecap:butt;stroke-linejoin:miter;stroke-miterlimit:4;stroke-opacity:1;stroke-dasharray:none"
       d="m 112.48373,723.78532 c 9.0749,-6.32409 21.79887,-14.10685 25.30357,-12.52686 9.2188,4.15608 9.9488,4.89612 14.908,5.5899"
       id="path3680"
       sodipodi:nodetypes="csc" />
    <path
       style="fill:none;stroke:#000000;stroke-width:0.81873298000000005;stroke-linecap:butt;stroke-linejoin:miter;stroke-miterlimit:4;stroke-opacity:1;stroke-dasharray:none"
       d="m 127.23275,728.5431 c 15.17709,3.54119 13.2604,-8.45843 10.8382,-16.79216 -4.28263,13.01156 -8.90377,13.39282 -17.82586,14.04396"
       id="path3682"
       sodipodi:nodetypes="ccc"
       inkscape:connector-curvature="0" />
    <path
       inkscape:connector-curvature="0"
       style="fill:none;stroke:#000000;stroke-width:0.92107457000000004;stroke-linecap:butt;stroke-linejoin:miter;stroke-miterlimit:4;stroke-opacity:1;stroke-dasharray:none"
       d="m 146.3154,715.67311 c 7.366,11.21697 4.8731,16.92837 -14.6066,20.98648"
       id="path3684"
       sodipodi:nodetypes="cc" />
    <path
       inkscape:connector-curvature="0"
       style="fill:none;stroke:#000000;stroke-width:1.02341616000000002;stroke-linecap:butt;stroke-linejoin:miter;stroke-miterlimit:4;stroke-opacity:1;stroke-dasharray:none"
       d="m 128.40141,736.64891 c 3.3472,-0.69504 11.93913,1.91616 14.18263,6.04896"
       id="path3686"
       sodipodi:nodetypes="cc" />
    <path
       style="fill:none;stroke:#000000;stroke-width:0.812;stroke-linecap:butt;stroke-linejoin:miter;stroke-opacity:1;stroke-miterlimit:4;stroke-dasharray:none"
       d="m 127.0078,714.83365 c 4.711,0.50646 8.2279,4.07992 2.1694,9.09262"
       id="path3688"
       sodipodi:nodetypes="cc"
       inkscape:connector-curvature="0" />
    <path
       inkscape:connector-curvature="0"
       style="fill:none;stroke:#000000;stroke-width:0.86990380000000000;stroke-linecap:butt;stroke-linejoin:miter;stroke-miterlimit:4;stroke-opacity:1;stroke-dasharray:none"
       d="m 66.4046,755.04135 c -4.2183,-3.99917 -5.618787,-11.34309 -1.8995,-10.922 27.331037,3.09438 51.53623,15.00088 75.0294,25.38843 3.931,1.7381 13.73683,-0.63117 15.54903,-3.88832"
       id="path3692"
       sodipodi:nodetypes="cssc" />
    <path
       inkscape:connector-curvature="0"
       style="fill:none;stroke:#000000;stroke-width:0.76756215;stroke-linecap:butt;stroke-linejoin:miter;stroke-miterlimit:4;stroke-opacity:1;stroke-dasharray:none"
       d="m 66.5668,754.62402 c -32.419244,49.58659 16.77,71.1561 58.0905,79.58071 3.5453,0.708 5.5081,3.74847 6.3873,7.12252 6.6499,-3.46308 12.8693,-9.74912 12.4166,-18.53917 0.1312,3.13399 0.3295,9.95426 -1.9215,13.08821 18.0208,-20.25585 6.1419,-4.74797 10.1914,-5.97863 36.9224,-17.66099 48.7965,-38.57098 19.6075,-75.78835"
       id="path3698"
       sodipodi:nodetypes="ccccccc" />
    <path
       inkscape:connector-curvature="0"
       style="fill:none;stroke:#000000;stroke-width:0.81709552;stroke-linecap:butt;stroke-linejoin:miter;stroke-miterlimit:4;stroke-opacity:1;stroke-dasharray:none"
       d="m 204.0591,793.4412 c -14.93309,-26.78963 10.8474,-55.02329 45.5876,-48.43671 18.5484,6.57494 30.5443,14.15282 27.3259,40.47915"
       id="path3700"
       sodipodi:nodetypes="ccc" />
    <path
       inkscape:connector-curvature="0"
       style="fill:none;stroke:#000000;stroke-width:0.81709552;stroke-linecap:butt;stroke-linejoin:miter;stroke-miterlimit:4;stroke-opacity:1;stroke-dasharray:none"
       d="m 206.7993,817.4299 c -13.30759,29.27964 -5.00307,57.8135 4.4246,68.86134 l 4.8241,-4.77384"
       id="path3706"
       sodipodi:nodetypes="ccc" />
    <path
       inkscape:connector-curvature="0"
       style="fill:none;stroke:#000000;stroke-width:0.88016659;stroke-linecap:butt;stroke-linejoin:miter;stroke-miterlimit:4;stroke-opacity:1;stroke-dasharray:none"
       d="m 272.3236,780.48748 c 7.2198,4.68332 11.9848,20.70943 11.9848,20.70944 1.5201,7.03366 -0.2265,9.81596 0,11.86244 l -4.9432,-5.21947 c 6.636,7.91897 9.51283,21.77544 7.17313,30.08426 l -6.41933,-4.24732 c 5.26323,19.23335 -2.70277,33.22508 -8.3544,37.18683"
       id="path3708"
       sodipodi:nodetypes="ccccccc" />
    <path
       inkscape:connector-curvature="0"
       style="fill:none;stroke:#000000;stroke-width:0.81709552;stroke-linecap:butt;stroke-linejoin:miter;stroke-miterlimit:4;stroke-opacity:1;stroke-dasharray:none"
       d="m 213.82824,884.06495 c -1.99229,24.52783 -40.06597,41.89642 -53.55314,85.53317 -5.3065,11.43754 -2.6084,24.81584 -0.2728,28.28874 8.1165,12.06854 4.6306,6.95024 4.6306,6.95024 3.3391,9.3842 7.7778,7.0556 9.9991,5.1829 4.4865,7.6537 10.6135,5.3768 10.6845,-0.2374 5.1919,3.539 8.8469,6.7658 11.1595,-1.1872 13.9319,6.9807 11.8772,-8.5686 17.3327,-14.00868 0.2914,-2.73017 1.0354,-12.07079 -4.9861,-10.20971 l 0,4.98614"
       id="path3712"
       sodipodi:nodetypes="ccsccccccc" />
    <path
       inkscape:connector-curvature="0"
       style="fill:none;stroke:#000000;stroke-width:0.81873298;stroke-linecap:butt;stroke-linejoin:miter;stroke-miterlimit:4;stroke-opacity:1;stroke-dasharray:none"
       d="m 178.8573,811.6352 c -4.6094,16.73236 6.873,19.84538 6.873,19.84538 l 1.6747,-9.39825 3.7486,10.77257 3.3744,-4.59919 5.5239,9.32406"
       id="path3714"
       sodipodi:nodetypes="cccccc" />
    <path
       inkscape:connector-curvature="0"
       style="fill:none;stroke:#000000;stroke-width:0.92107457;stroke-linecap:butt;stroke-linejoin:miter;stroke-miterlimit:4;stroke-opacity:1;stroke-dasharray:none"
       d="m 118.7199,832.76406 c -11.03567,26.40778 -6.64227,50.68949 19.3965,59.99338 10.52195,3.75959 20.47512,-0.0158 28.0654,-4.64718 1.85858,-1.13406 3.9029,-6.0903 3.8497,-9.23613"
       id="path3722"
       sodipodi:nodetypes="cssc" />
    <g
       id="g3258" />
    <path
       inkscape:connector-curvature="0"
       style="fill:none;stroke:#000000;stroke-width:0.92107457;stroke-linecap:butt;stroke-linejoin:miter;stroke-miterlimit:4;stroke-opacity:1;stroke-dasharray:none"
       d="m 151.68214,894.26364 c 21.80275,16.0505 29.66042,9.78544 50.05549,13.28903"
       id="path3726"
       sodipodi:nodetypes="cc" />
    <path
       inkscape:connector-curvature="0"
       style="fill:none;stroke:#000000;stroke-width:0.81709552;stroke-linecap:butt;stroke-linejoin:miter;stroke-miterlimit:4;stroke-opacity:1;stroke-dasharray:none"
       d="m 182.8315,874.71985 c 1.2867,1.7002 8.48785,4.97674 10.5246,4.82964 3.38215,-0.24426 7.69634,-0.92158 10.66473,-4.14171"
       id="path3730"
       sodipodi:nodetypes="csc" />
    <path
       inkscape:connector-curvature="0"
       style="fill:none;stroke:#000000;stroke-width:0.81709552;stroke-linecap:butt;stroke-linejoin:miter;stroke-miterlimit:4;stroke-opacity:1;stroke-dasharray:none"
       d="m 271.9392,862.97235 c 1.70814,0.56383 -1.91968,4.32295 -1.02704,6.34794 2.44653,5.55006 3.04084,13.97519 -4.67316,18.43378 -1.26683,-0.34746 -6.2804,2.33691 -5.9934,6.05396"
       id="path3732"
       sodipodi:nodetypes="cscc" />
    <path
       inkscape:connector-curvature="0"
       style="fill:none;stroke:#000000;stroke-width:0.81709552;stroke-linecap:butt;stroke-linejoin:miter;stroke-miterlimit:4;stroke-opacity:1;stroke-dasharray:none"
       d="m 265.414,888.02135 c 6.37746,21.37065 -67.96931,73.15192 -65.6863,95.99863"
       id="path3734"
       sodipodi:nodetypes="cc" />
    <path
       inkscape:connector-curvature="0"
       style="fill:none;stroke:#000000;stroke-width:0.81709552;stroke-linecap:butt;stroke-linejoin:miter;stroke-miterlimit:4;stroke-opacity:1;stroke-dasharray:none"
       d="m 199.8478,980.58468 c 0.5946,-3.00859 0.6158,1.90038 4.2562,3.2715 2.4241,0.91299 8.9578,10.06279 -1.3732,17.21122"
       id="path3736"
       sodipodi:nodetypes="csc" />
    <path
       inkscape:connector-curvature="0"
       style="fill:none;stroke:#000000;stroke-width:0.91923243;stroke-linecap:butt;stroke-linejoin:miter;stroke-miterlimit:4;stroke-opacity:1;stroke-dasharray:none"
       d="m 210.2324,784.89354 c -8.217,9.28107 -13.26416,26.81084 -5.6481,37.41679"
       id="path3738"
       sodipodi:nodetypes="cc" />
    <path
       inkscape:connector-curvature="0"
       style="fill:none;stroke:#000000;stroke-width:0.92107457;stroke-linecap:butt;stroke-linejoin:miter;stroke-miterlimit:4;stroke-opacity:1;stroke-dasharray:none"
       d="m 374.3156,888.48206 c 19.32538,14.9423 30.3019,55.22385 -18.5066,68.84792"
       id="path3740"
       sodipodi:nodetypes="cc" />
    <path
       inkscape:connector-curvature="0"
       style="fill:none;stroke:#000000;stroke-width:0.92107457;stroke-linecap:butt;stroke-linejoin:miter;stroke-miterlimit:4;stroke-opacity:1;stroke-dasharray:none"
       d="m 248.69541,919.55904 c 9.72057,2.69578 16.27927,15.76623 25.13025,20.13979 7.43084,3.67183 23.18584,6.78866 24.77067,6.72622"
       id="path3742"
       sodipodi:nodetypes="csc" />
    <path
       inkscape:connector-curvature="0"
       style="fill:none;stroke:#000000;stroke-width:0.92107457;stroke-linecap:butt;stroke-linejoin:miter;stroke-miterlimit:4;stroke-opacity:1;stroke-dasharray:none"
       d="m 278.08396,921.57916 c 6.73631,-1.2511 7.66794,-2.46736 12.43797,4.68909"
       id="path3744"
       sodipodi:nodetypes="cc" />
    <path
       inkscape:connector-curvature="0"
       style="fill:none;stroke:#000000;stroke-width:0.92107457;stroke-linecap:butt;stroke-linejoin:miter;stroke-miterlimit:4;stroke-opacity:1;stroke-dasharray:none"
       d="m 358.8311,956.65842 c -9.2706,30.14523 9.62686,37.3445 17.16846,52.77048"
       id="path3766"
       sodipodi:nodetypes="cc" />
    <path
       inkscape:connector-curvature="0"
       style="fill:none;stroke:#000000;stroke-width:0.92107457;stroke-linecap:butt;stroke-linejoin:miter;stroke-miterlimit:4;stroke-opacity:1;stroke-dasharray:none"
       d="m 328.8748,923.53519 c -36.3492,-2.14175 -34.7513,30.11746 -24.6714,48.28939 0,0 1.2409,-7.40201 1.248,3.48872 0,0 6.2964,-7.14309 4.7803,-4.0953 -1.4288,2.87227 0.7448,8.66015 0.7448,8.66015 0,0 1.1846,-5.36542 2.2652,-3.58928 7.2602,11.93324 32.17955,21.01436 29.52395,32.42253"
       id="path3768"
       sodipodi:nodetypes="cccscsc" />
    <path
       inkscape:connector-curvature="0"
       style="fill:none;stroke:#000000;stroke-width:1.04076064;stroke-linecap:butt;stroke-linejoin:miter;stroke-miterlimit:4;stroke-opacity:1;stroke-dasharray:none"
       d="m 373.49236,1004.3629 c 10.09026,12.1712 13.73218,18.7142 6.258,23.5536 -15.05485,9.7478 -58.831,2.6281 -70.3745,2.9148 -5.2008,2.9695 -8.216,5.3772 -14.3371,1.9777 3.5025,-3.3656 6.9171,-6.0678 12.4401,-5.3925 -9.7132,-2.9211 -13.4856,9.914 -18.212,4.1737 -1.1347,-3.361 4.5752,-6.5937 11.0031,-7.9678 -8.5774,-0.015 -11.792,9.1456 -15.1767,6.4501 -5.2068,-7.3377 5.8242,-11.6299 12.1413,-9.106 -4.8075,-2.8214 -12.008,0.6492 -13.7894,4.3915 -1.082,2.2732 -4.1234,-0.2155 -3.9056,-1.8665 -1.804,-3.7123 6.059,-5.1325 9.7273,-6.3191 l 18.9708,-1.5177 c -18.6569,5.7872 -21.784,-8.389 31.871,-5.6912 1.8303,-0.5292 3.586,-1.2078 4.1735,-4.2226"
       id="path3774"
       sodipodi:nodetypes="cscccccccsccccc" />
    <path
       inkscape:connector-curvature="0"
       style="fill:none;stroke:#000000;stroke-width:0.92107457;stroke-linecap:butt;stroke-linejoin:miter;stroke-miterlimit:4;stroke-opacity:1;stroke-dasharray:none"
       d="m 256.99369,924.78702 c -5.18038,-0.52338 -17.98101,15.67137 -21.31067,29.82459 0.43735,1.45067 1.96431,-4.93444 3.08658,-2.87394 0.77101,1.4156 -2.27181,5.84203 -1.68722,8.60709 0.29193,1.38078 2.01849,-3.07943 3.04769,-2.44287 -12.02486,22.69713 32.19722,30.31152 35.76289,43.97481"
       id="path3790"
       sodipodi:nodetypes="ccsccc" />
    <path
       inkscape:connector-curvature="0"
       style="fill:none;stroke:#000000;stroke-width:0.92107457;stroke-linecap:butt;stroke-linejoin:miter;stroke-miterlimit:4;stroke-opacity:1;stroke-dasharray:none"
       d="m 299.0616,959.0089 c -20.33388,15.23193 -6.94415,28.52737 0.30287,41.652 1.86445,3.3766 3.32232,6.7419 3.69475,10.126 l 0.3358,0"
       id="path3792"
       sodipodi:nodetypes="cscc" />
    <path
       inkscape:connector-curvature="0"
       style="fill:none;stroke:#000000;stroke-width:0.92107457;stroke-linecap:butt;stroke-linejoin:miter;stroke-miterlimit:4;stroke-opacity:1;stroke-dasharray:none"
       d="m 272.33292,1014.9674 c -2.249,1.9374 -5.964,1.7868 -11.601,3.9386 -3.0969,0.9653 -3.5708,2.0136 -4.2139,3.5692 -0.6159,1.4897 0.9882,3.4241 2.5296,3.578 3.0253,2.4624 5.97882,-1.7163 8.2403,-2.2172 4.507,-0.9982 8.65929,-2.454 12.57433,-2.7613"
       id="path3820"
       sodipodi:nodetypes="cczcsc" />
    <path
       inkscape:connector-curvature="0"
       style="fill:none;stroke:#000000;stroke-width:1.04076064;stroke-linecap:butt;stroke-linejoin:miter;stroke-miterlimit:4;stroke-opacity:1;stroke-dasharray:none"
       d="m 259.20412,1019.2828 c 6.1665,-0.036 -9.0036,-0.2929 -10.1238,-0.2999 -4.9835,-0.031 -8.7045,0.6883 -11.9445,1.1964 -6.623,1.0387 -11.46,6.9349 -14.4355,1.1959 3.5025,-3.3657 7.2529,-6.2357 12.7759,-5.5604 -9.6897,-2.9083 -13.3537,10.6302 -18.212,4.1736 -0.7811,-3.777 5.7048,-6.8852 11.0031,-7.9677 -4.0298,0.6632 -7.889,2.5312 -10.9999,5.2239 -1.2586,1.0894 -1.2222,-0.1281 -2.4978,-0.117 -1.3331,-2.4673 -1.1148,-2.6904 0.2299,-4.9292 2.3214,-5.1765 10.1382,-3.3463 10.0339,-3.583 -0.6118,-1.3901 -8.0337,0.2133 -10.2294,2.955 -5.194,3.2162 -0.4701,-7.6304 7.6838,-6.2372 l 9.9582,-1.5232 c 19.5037,-4.50302 33.2538,-4.83172 43.4406,-1.6565"
       id="path3774-8"
       sodipodi:nodetypes="cssccccsccscccc" />
    <path
       sodipodi:type="arc"
       style="fill:#ffffff;fill-opacity:1;stroke:#000000;stroke-width:2;stroke-miterlimit:4;stroke-opacity:1;stroke-dasharray:none"
       id="path4585"
       sodipodi:cx="-33.392857"
       sodipodi:cy="257.71933"
       sodipodi:rx="8.3928576"
       sodipodi:ry="8.5714283"
       d="m -24.999999,257.71933 c 0,4.73387 -3.75761,8.57143 -8.392858,8.57143 -4.635247,0 -8.392857,-3.83756 -8.392857,-8.57143 0,-4.73387 3.75761,-8.57143 8.392857,-8.57143 4.635248,0 8.392858,3.83756 8.392858,8.57143 z"
       transform="matrix(0.19067451,0,0,0.19067451,94.378,671.16222)" />
    <path
       sodipodi:type="arc"
       style="fill:#ffffff;fill-opacity:1;stroke:#000000;stroke-width:2;stroke-miterlimit:4;stroke-opacity:1;stroke-dasharray:none"
       id="path4585-5"
       sodipodi:cx="-33.392857"
       sodipodi:cy="257.71933"
       sodipodi:rx="8.3928576"
       sodipodi:ry="8.5714283"
       d="m -24.999999,257.71933 c 0,4.73387 -3.75761,8.57143 -8.392858,8.57143 -4.635247,0 -8.392857,-3.83756 -8.392857,-8.57143 0,-4.73387 3.75761,-8.57143 8.392857,-8.57143 4.635248,0 8.392858,3.83756 8.392858,8.57143 z"
       transform="matrix(0.19067451,0,0,0.19067451,129.4666,671.12817)" />
    <path
       inkscape:connector-curvature="0"
       style="fill:none;stroke:#000000;stroke-width:0.92107457;stroke-linecap:butt;stroke-linejoin:miter;stroke-miterlimit:4;stroke-opacity:1;stroke-dasharray:none"
       d="m 96.57248,827.15824 c -6.337217,12.02084 -11.648201,17.28195 -7.127461,38.86456 0.470846,2.24788 1.226701,0.3387 3.92114,-1.82485 -2.081587,3.58114 -2.441635,6.63424 -1.641634,7.53886 0.846189,0.95685 1.689803,-3.68076 2.025401,-2.93736 2.443061,5.41174 -2.393609,14.37013 -4.201846,18.80493 -6.509603,13.36531 -11.003592,27.94232 -12.930782,42.68316 -4.328702,22.19522 -4.064597,41.20972 -0.192218,54.17035 l 10.6663,16.94921 -0.6786,-5.5649 c 2.7254,9.7387 6.4505,13.4792 10.4317,15.6833 l -0.057,-6.2493 c 3.5736,10.491 14.6831,11.1751 21.901,11.9478 l 14.721,-5.2236 c 0,0 5.2206,-6.5537 5.2235,-10.4472 0,-2.685 -3.1165,-10.0594 -3.1165,-10.0594 l -7.2406,-3.77812 c -1.72039,-0.8977 -5.2869,3.86392 -0.9282,6.74562 l 1.3131,3.293"
       id="path3720-6"
       sodipodi:nodetypes="cscsscccccccccscscc" />
    <path
       inkscape:connector-curvature="0"
       style="fill:none;stroke:#000000;stroke-width:0.92107457;stroke-linecap:butt;stroke-linejoin:miter;stroke-miterlimit:4;stroke-opacity:1;stroke-dasharray:none"
       d="m 137.47058,892.48831 c -22.51192,32.07555 -24.7065,49.39773 -23.6313,53.95228 1.48716,6.29961 6.6759,9.72617 6.6759,9.72617 l -7.18906,-2.24869 2.21416,7.84663 -3.3743,-1.79897 c 0,0 -6.6787,12.85295 7.2487,17.41946 4.06742,2.05029 4.43538,9.50972 4.1391,13.72841 -0.1527,2.358 4.2717,3.9352 5.258,7.519 1.152,4.1859 1.7709,5.3695 -1.6518,7.4516 -1.1977,0.7286 -2.5991,1.224 -6.5791,-2.9709 -2.4751,-2.6087 -2.8196,-2.4808 -5.9119,-7.6708"
       id="path3724-2"
       sodipodi:nodetypes="csccccccssss" />
    <g
       id="g6711"
       transform="translate(-249.60869,66.821591)"
       style="stroke:#000000;stroke-opacity:1">
      <path
         sodipodi:nodetypes="cccc"
         id="path2820-8"
         d="m 392.01839,576.01727 c -20.7688,0.83391 -34.9397,11.04762 -49.7105,23.3445 -5.0381,4.88678 2.5852,7.91402 2.5852,7.91402 -8.4298,0.2977 -19.4122,9.7842 -19.2552,24.68007"
         style="fill:none;stroke:#000000;stroke-width:1.02341616000000002;stroke-linecap:butt;stroke-linejoin:miter;stroke-miterlimit:4;stroke-opacity:1;stroke-dasharray:none"
         inkscape:connector-curvature="0" />
      <path
         sodipodi:nodetypes="ccccc"
         id="path2822-6"
         d="m 393.51009,579.00065 -5.221,-8.95017 12.6794,2.98339 -1.4917,-17.1545 c 18.5281,6.0569 20.0644,15.77805 20.4363,21.48042"
         style="fill:none;stroke:#000000;stroke-width:0.92107457000000004;stroke-linecap:butt;stroke-linejoin:miter;stroke-miterlimit:4;stroke-opacity:1;stroke-dasharray:none"
         inkscape:connector-curvature="0" />
      <path
         sodipodi:nodetypes="cc"
         id="path2824-1"
         d="m 418.86889,571.54217 c 17.2611,9.85434 53.8674,34.14562 41.7675,58.17615"
         style="fill:none;stroke:#000000;stroke-width:0.92107457000000004;stroke-linecap:butt;stroke-linejoin:miter;stroke-miterlimit:4;stroke-opacity:1;stroke-dasharray:none"
         inkscape:connector-curvature="0" />
      <path
         sodipodi:nodetypes="ccccc"
         id="path2834-9"
         d="m 459.89049,629.71832 c 29.0792,-2.59018 33.7632,25.36917 8.9502,41.02164 l 0.7459,-5.96679 c -5.6572,8.51399 -10.1863,11.44334 -14.1712,21.6296 l 11.1878,-3.72924"
         style="fill:none;stroke:#000000;stroke-width:0.92107457000000004;stroke-linecap:butt;stroke-linejoin:miter;stroke-miterlimit:4;stroke-opacity:1;stroke-dasharray:none"
         inkscape:connector-curvature="0" />
      <path
         sodipodi:nodetypes="csc"
         id="path3702-9"
         d="m 458.44219,641.12176 c 3.2226,-6.05158 13.3086,-4.22808 16.6077,1.90637 2.5018,4.65199 0.8866,19.03663 -13.7584,14.71407"
         style="fill:none;stroke:#000000;stroke-width:1.27927028999999992;stroke-linecap:butt;stroke-linejoin:miter;stroke-miterlimit:4;stroke-opacity:0.47058824;stroke-dasharray:none"
         inkscape:connector-curvature="0" />
      <path
         sodipodi:nodetypes="csc"
         id="path3704-3"
         d="m 461.76639,640.17202 c -1.0638,5.86058 -1.6711,2.57862 4.2738,3.32409 3.979,0.49896 4.0904,9.23293 -1.4247,11.87174"
         style="fill:none;stroke:#000000;stroke-width:1.07458699000000002;stroke-linecap:butt;stroke-linejoin:miter;stroke-miterlimit:4;stroke-opacity:0.47058824;stroke-dasharray:none"
         inkscape:connector-curvature="0" />
    </g>
    <path
       style="fill:#241c1c;fill-opacity:1;stroke:#000000;stroke-width:0.57417065;stroke-miterlimit:4;stroke-opacity:0.47058824;stroke-dasharray:none;stroke-dashoffset:0"
       d="m 196.05017,829.65868 c -1.12374,-1.44566 -0.36961,-1.55666 -0.63754,-1.95343 -0.30911,-0.45775 -1.20124,-0.49738 -1.77409,0.44325 -2.34485,3.85027 -1.1778,9.64515 -5.30508,-4.30895 -1.57823,-5.33592 -1.06049,-3.75651 -1.89954,0.91496 -0.56409,3.14066 0.0999,10.56676 -5.4179,2.77612 -3.94218,-5.56604 -3.77499,-13.82434 0.99657,-19.21685 7.75085,-8.75951 7.97366,-20.19654 3.26621,-32.79141 -1.86379,-4.98661 -6.73344,-12.45751 -10.30434,-17.387 -1.1306,-1.56075 -2.55564,-3.53394 -2.55564,-4.00516 0,-0.47122 2.12664,-5.05372 3.25052,-7.53819 5.9449,-13.14193 9.40664,-26.36673 9.42096,-35.9907 0.0117,-7.85716 -0.9177,-11.10786 -5.48854,-15.04232 -2.55189,-2.1966 -3.08012,-4.80892 -3.59146,-7.21641 -0.61906,-2.91467 -1.74395,-4.22619 -2.84587,-4.64514 -1.90573,-0.72456 -16.70599,0.36612 -24.99435,1.84192 -10.38659,1.84941 -22.01787,6.2093 -31.28801,10.88271 l -4.9004,2.46902 -5.99162,-1.88041 c -7.864692,-2.33975 -18.371992,-3.27866 -23.607342,-1.65662 -2.12446,0.6582 -5.19155,2.41032 -5.62744,2.59722 -1.25424,0.5378 0.53784,-7.92124 2.52579,-11.84428 3.03314,-5.98562 10.60996,-13.02295 15.82883,-11.33536 l 0.59154,-0.70483 -1.47542,-1.28331 c -5.03492,-2.83067 -3.86708,-4.78164 3.82788,-10.32878 8.790102,-6.33661 13.540822,-9.80993 19.748002,-13.18233 6.65133,-3.61371 14.7045,-5.00658 20.91064,-5.80152 4.2199,-0.54052 2.83739,0.2414 3.92911,1.62088 2.04401,2.58276 2.24409,0.69604 0.29585,-2.78973 -1.02251,-1.82948 -1.71044,-3.47501 -1.52872,-3.65673 0.18172,-0.18172 2.58791,0.22284 5.3471,0.89901 2.75919,0.67618 5.14228,1.10383 5.29576,0.95035 0.15348,-0.15348 -0.0552,-3.71008 -0.46387,-7.90356 -0.4086,-4.19349 -0.54554,-7.82189 -0.3043,-8.06313 0.8649,-0.8649 9.04345,3.23471 12.26756,6.36544 3.13557,3.04478 5.83227,8.6673 5.83227,11.95885 0,0.70853 0.31819,1.28825 0.7071,1.28825 0.38891,0 1.01411,-0.87714 0.70711,-1.84342 -1.23744,-3.89488 0.87851,-3.34488 9.27856,2.82685 15.46993,11.36616 27.08627,20.68475 30.41655,30.2776 1.88266,5.42301 2.6429,6.00468 2.6429,11.27711 0,4.06116 -1.06625,6.33204 -1.94453,8.04024 -0.68059,1.3237 -1.50261,2.0351 -1.50261,2.12104 0,0.0859 2.75013,-0.2009 5.95863,-0.0263 6.75471,0.3676 11.31856,2.01445 14.73385,5.52936 6.85331,7.05318 5.69239,18.60144 -3.32884,28.14007 -1.99304,2.10735 -6.06916,5.51184 -6.76637,5.88497 -1.15092,0.61596 0.0245,-1.20998 0.43977,-3.8071 0.25158,-1.57329 -0.0719,-1.59022 -0.41329,-1.56541 -0.92399,0.0672 -10.94446,13.60077 -13.18748,17.9317 -2.71477,5.24183 -2.76965,5.44401 0.65632,3.9299 14.6157,-6.45942 4.43455,-0.81807 0.61472,3.36144 -8.27089,9.04968 -10.71756,20.88483 -6.78027,32.79785 1.78635,5.40493 1.80135,5.61052 0.68162,9.34448 -0.62972,2.09988 -1.3304,6.20444 -1.55708,9.12126 -0.34465,4.43462 -0.13778,6.11516 1.26293,10.25969 l 2.05008,5.0814 -1.81751,4.96424 c -0.79338,2.79909 -1.95616,8.12067 -2.17805,8.96755 l -4.00723,-7.09635 z m 25.67005,-104.78354 c 3.59281,-1.88075 5.81867,-6.48811 5.45465,-11.29072 -0.47549,-6.27333 -4.56254,-10.05822 -11.02003,-10.20531 -3.62693,-0.0826 -6.86559,1.36142 -7.65248,3.41205 -0.58854,1.53367 0.26895,2.04347 1.59126,0.94605 0.99373,-0.82473 1.18096,-0.76029 0.99632,0.42957 -0.56509,3.64151 -0.59612,2.36491 2.75268,2.57979 l 2.25191,-0.0503 1.99074,1.06136 0.47786,2.5547 c 0.16897,2.31053 -0.35289,3.90067 -1.85576,5.68674 -1.04042,1.23646 -2.05646,2.17171 -1.82575,2.40242 0.92946,0.92946 3.99212,-2.05948 4.76974,-4.65492 1.48971,-4.97221 -0.77165,-8.68397 -4.70186,-8.5522 -3.07494,0.1031 -2.83482,1.63752 -2.24759,-1.59099 0.0766,-0.42094 -2.11407,-0.34929 -1.97319,-0.66878 0.87248,-1.97862 7.62306,-2.89262 10.33456,-0.67302 1.48968,1.21943 2.91981,2.31173 3.6936,3.79356 1.43022,2.73887 1.25896,6.16778 -0.403,9.67012 -1.22158,2.57427 -3.73674,4.42343 -6.85117,4.71199 -0.81437,0.0755 -1.77623,-0.008 -2.70588,-0.0693 -1.46286,-0.32942 -2.28239,-0.32563 -3.49541,0.14664 -0.63094,1.87732 7.01582,2.14199 10.4188,0.36062 l 0,0 0,-4e-5 0,-3e-5 z"
       id="path8433"
       sodipodi:nodetypes="cssssssssssssssscccssscccsssssssssssssssssssssssssssssssccccccssssccccssssssssssccccccc" />
    <path
       style="fill:none;stroke:#000000;stroke-width:0;stroke-miterlimit:4;stroke-opacity:0.47058824;stroke-dasharray:none;stroke-dashoffset:0"
       d="m 297.7291,430.55882 c -1.48615,-0.94191 2.98398,-3.74348 6.62846,-4.15427 4.58244,-0.51651 4.79829,-2.29353 0.27858,-2.29353 -2.93746,0 -4.2884,0.48389 -7.89658,2.82843 -4.79703,3.11704 -4.6968,3.08218 -6.17445,2.14773 -1.58585,-1.00288 1.5375,-3.95935 5.90339,-5.58797 1.96021,-0.73122 3.69978,-1.73676 3.8657,-2.23453 0.60372,-1.81115 -5.13823,-0.0487 -9.22046,2.8302 -4.59483,3.24037 -5.24565,3.39894 -5.87045,1.43035 -1.20759,-3.80477 2.21423,-6.36396 8.50909,-6.36396 5.19864,0 5.01096,-1.67328 -0.22211,-1.98031 -4.12782,-0.24219 -7.40987,1.07865 -9.9029,3.98535 -1.57302,1.83404 -1.64327,1.84782 -2.64597,0.51923 -0.90289,-1.19631 -0.90106,-1.50734 0.0148,-2.5193 1.79661,-1.98523 8.57813,-3.66695 14.7622,-3.6608 6.89366,0.007 13.35916,-1.08901 12.98834,-2.20144 -0.26585,-0.79756 -6.03515,-0.84063 -9.89161,-0.0738 -2.52491,0.50203 -2.47658,-0.12139 0.11324,-1.46064 4.19235,-2.16795 14.01879,-3.2888 28.56357,-3.25809 13.92902,0.0294 14.01364,0.0203 15.73313,-1.69922 1.69994,-1.69994 2.32645,-3.91438 1.10746,-3.91438 -0.34172,0 -0.9876,-0.88427 -1.43526,-1.96504 -1.21187,-2.92569 -6.61575,-8.18803 -14.56043,-14.17904 -3.88909,-2.93272 -9.02855,-7.3615 -11.42103,-9.84174 -2.88932,-2.99529 -4.52485,-4.22652 -4.87082,-3.66673 -0.94277,1.52544 -1.74337,-1.10198 -1.0609,-3.48164 0.52671,-1.83651 0.43917,-2.22115 -0.50548,-2.22115 -0.62838,0 -1.87896,0.69186 -2.77907,1.53747 l -1.63658,1.53747 0,-2.24458 c 0,-1.71739 -0.30912,-2.24458 -1.31609,-2.24458 -2.82093,0 -6.13873,-12.85097 -5.61246,-21.73903 0.83756,-14.14544 9.72988,-22.07291 24.78299,-22.09394 4.61776,-0.006 5.48008,-0.19121 5.48008,-1.17419 0,-1.03024 -0.73679,-1.11424 -6.30579,-0.71895 -13.98605,0.99276 -22.69999,7.3975 -24.96151,18.34673 l -0.85913,4.15945 -3.17458,-0.47606 c -4.60694,-0.69085 -14.66375,-3.68937 -19.01291,-5.66886 -2.5864,-1.17717 -6.32914,-4.19732 -12.02081,-9.7 -4.54577,-4.39483 -9.31518,-8.49308 -10.59868,-9.10723 l -2.33365,-1.11664 3.47663,-4.17024 c 7.84604,-9.41139 12.85793,-18.89661 12.85793,-24.33424 0,-1.18746 0.76821,-2.56057 2.09287,-3.74086 3.30822,-2.94763 4.51755,-5.93113 4.47963,-11.05154 -0.0313,-4.22555 0.15855,-4.79403 2.65595,-7.95348 5.87204,-7.4287 8.12648,-19.14318 5.87494,-30.52729 l -0.39939,-2.01938 2.68407,1.82387 c 1.47624,1.00314 2.83935,1.66861 3.02913,1.47883 0.18978,-0.18978 0.56364,-2.01099 0.8308,-4.04714 0.58499,-4.4585 -0.39493,-12.31968 -2.09263,-16.78765 -0.74953,-1.97262 -1.02605,-3.80106 -0.70058,-4.63259 1.93316,-4.93895 -0.47016,-16.74064 -5.03668,-24.73296 -1.87889,-3.28844 -2.03076,-4.0982 -1.98925,-10.6066 0.0966,-15.1383 -4.78309,-22.9058 -18.57847,-29.57347 -9.04646,-4.3724 -11.74272,-4.92821 -22.02352,-4.53995 -6.71709,0.25368 -9.60783,0.68763 -12.89973,1.93646 -10.35503,3.92837 -16.02231,5.80846 -16.39261,5.43817 -0.54943,-0.54943 2.02492,-4.82527 6.38072,-10.59801 2.9434,-3.90089 3.69157,-4.54958 3.87389,-3.35876 0.12427,0.81172 0.41244,1.47585 0.64036,1.47585 0.60956,0 5.07465,-3.40475 8.37376,-6.38522 3.55205,-3.20897 9.47666,-4.57767 19.39775,-4.48124 15.7364,0.15295 29.4745,7.52669 38.12794,20.46466 3.24493,4.85157 7.1223,14.55308 7.12953,17.83869 0.004,2.0142 2.65309,5.71615 10.19648,14.25137 16.60293,18.78594 16.92228,19.47425 21.99537,47.40719 3.92041,21.58618 7.03667,30.23373 12.66778,35.15279 1.68574,1.47259 7.23927,5.21347 12.34116,8.31308 10.35909,6.29356 14.30506,9.12311 22.7371,16.30415 11.99677,10.2169 17.61148,20.87173 17.63181,33.45925 0.0245,15.13883 -9.4163,26.39098 -28.0991,33.49045 -5.3254,2.02365 -7.29591,3.38793 -4.89339,3.38793 0.77582,0 0.76444,0.83465 -0.0651,4.77297 -2.47524,11.75147 0.0711,21.58329 8.43677,32.57547 2.46217,3.2352 5.84214,7.84907 7.51105,10.25305 1.66891,2.40397 3.2599,4.33732 3.53553,4.29632 0.66282,-0.0986 3.45069,3.65706 5.15215,6.94066 0.74768,1.44292 1.35941,3.72157 1.35941,5.06367 0,6.30254 -12.03226,10.30435 -31.1127,10.34775 -3.69463,0.008 -14.60416,-0.5124 -24.24339,-1.15736 l -17.52589,-1.17264 -3.81958,1.87027 c -3.92473,1.92175 -6.37545,2.30186 -8.03981,1.247 l 3e-5,0 z m -6.47541,-106.61344 c 0,-0.9147 -3.6222,-5.1899 -5.04014,-5.94876 -1.84335,-0.98652 -8.39489,-0.16178 -8.39489,1.05679 0,0.62664 1.08055,0.7861 3.79906,0.56066 3.63049,-0.30106 3.90221,-0.20169 6.12402,2.23993 2.16757,2.38199 3.51195,3.18258 3.51195,2.09138 z"
       id="path8459"
       transform="translate(0,602.36218)" />
    <path
       style="fill:none;stroke:#000000;stroke-width:0;stroke-miterlimit:4;stroke-opacity:0.47058824;stroke-dasharray:none;stroke-dashoffset:0"
       d="m 297.7291,430.55882 c -1.48615,-0.94191 2.98398,-3.74348 6.62846,-4.15427 4.58244,-0.51651 4.79829,-2.29353 0.27858,-2.29353 -2.93746,0 -4.2884,0.48389 -7.89658,2.82843 -4.79703,3.11704 -4.6968,3.08218 -6.17445,2.14773 -1.58585,-1.00288 1.5375,-3.95935 5.90339,-5.58797 1.96021,-0.73122 3.69978,-1.73676 3.8657,-2.23453 0.60372,-1.81115 -5.13823,-0.0487 -9.22046,2.8302 -4.59483,3.24037 -5.24565,3.39894 -5.87045,1.43035 -1.20759,-3.80477 2.21423,-6.36396 8.50909,-6.36396 5.19864,0 5.01096,-1.67328 -0.22211,-1.98031 -4.12782,-0.24219 -7.40987,1.07865 -9.9029,3.98535 -1.57302,1.83404 -1.64327,1.84782 -2.64597,0.51923 -0.90289,-1.19631 -0.90106,-1.50734 0.0148,-2.5193 1.79661,-1.98523 8.57813,-3.66695 14.7622,-3.6608 6.89366,0.007 13.35916,-1.08901 12.98834,-2.20144 -0.26585,-0.79756 -6.03515,-0.84063 -9.89161,-0.0738 -2.52491,0.50203 -2.47658,-0.12139 0.11324,-1.46064 4.19235,-2.16795 14.01879,-3.2888 28.56357,-3.25809 13.92902,0.0294 14.01364,0.0203 15.73313,-1.69922 1.69994,-1.69994 2.32645,-3.91438 1.10746,-3.91438 -0.34172,0 -0.9876,-0.88427 -1.43526,-1.96504 -1.21187,-2.92569 -6.61575,-8.18803 -14.56043,-14.17904 -3.88909,-2.93272 -9.02855,-7.3615 -11.42103,-9.84174 -2.88932,-2.99529 -4.52485,-4.22652 -4.87082,-3.66673 -0.94277,1.52544 -1.74337,-1.10198 -1.0609,-3.48164 0.52671,-1.83651 0.43917,-2.22115 -0.50548,-2.22115 -0.62838,0 -1.87896,0.69186 -2.77907,1.53747 l -1.63658,1.53747 0,-2.24458 c 0,-1.71739 -0.30912,-2.24458 -1.31609,-2.24458 -2.82093,0 -6.13873,-12.85097 -5.61246,-21.73903 0.83756,-14.14544 9.72988,-22.07291 24.78299,-22.09394 4.61776,-0.006 5.48008,-0.19121 5.48008,-1.17419 0,-1.03024 -0.73679,-1.11424 -6.30579,-0.71895 -13.98605,0.99276 -22.69999,7.3975 -24.96151,18.34673 l -0.85913,4.15945 -3.17458,-0.47606 c -4.60694,-0.69085 -14.66375,-3.68937 -19.01291,-5.66886 -2.5864,-1.17717 -6.32914,-4.19732 -12.02081,-9.7 -4.54577,-4.39483 -9.31518,-8.49308 -10.59868,-9.10723 l -2.33365,-1.11664 3.47663,-4.17024 c 7.84604,-9.41139 12.85793,-18.89661 12.85793,-24.33424 0,-1.18746 0.76821,-2.56057 2.09287,-3.74086 3.30822,-2.94763 4.51755,-5.93113 4.47963,-11.05154 -0.0313,-4.22555 0.15855,-4.79403 2.65595,-7.95348 5.87204,-7.4287 8.12648,-19.14318 5.87494,-30.52729 l -0.39939,-2.01938 2.68407,1.82387 c 1.47624,1.00314 2.83935,1.66861 3.02913,1.47883 0.18978,-0.18978 0.56364,-2.01099 0.8308,-4.04714 0.58499,-4.4585 -0.39493,-12.31968 -2.09263,-16.78765 -0.74953,-1.97262 -1.02605,-3.80106 -0.70058,-4.63259 1.93316,-4.93895 -0.47016,-16.74064 -5.03668,-24.73296 -1.87889,-3.28844 -2.03076,-4.0982 -1.98925,-10.6066 0.0966,-15.1383 -4.78309,-22.9058 -18.57847,-29.57347 -9.04646,-4.3724 -11.74272,-4.92821 -22.02352,-4.53995 -6.71709,0.25368 -9.60783,0.68763 -12.89973,1.93646 -10.35503,3.92837 -16.02231,5.80846 -16.39261,5.43817 -0.54943,-0.54943 2.02492,-4.82527 6.38072,-10.59801 2.9434,-3.90089 3.69157,-4.54958 3.87389,-3.35876 0.12427,0.81172 0.41244,1.47585 0.64036,1.47585 0.60956,0 5.07465,-3.40475 8.37376,-6.38522 3.55205,-3.20897 9.47666,-4.57767 19.39775,-4.48124 15.7364,0.15295 29.4745,7.52669 38.12794,20.46466 3.24493,4.85157 7.1223,14.55308 7.12953,17.83869 0.004,2.0142 2.65309,5.71615 10.19648,14.25137 16.60293,18.78594 16.92228,19.47425 21.99537,47.40719 3.92041,21.58618 7.03667,30.23373 12.66778,35.15279 1.68574,1.47259 7.23927,5.21347 12.34116,8.31308 10.35909,6.29356 14.30506,9.12311 22.7371,16.30415 11.99677,10.2169 17.61148,20.87173 17.63181,33.45925 0.0245,15.13883 -9.4163,26.39098 -28.0991,33.49045 -5.3254,2.02365 -7.29591,3.38793 -4.89339,3.38793 0.77582,0 0.76444,0.83465 -0.0651,4.77297 -2.47524,11.75147 0.0711,21.58329 8.43677,32.57547 2.46217,3.2352 5.84214,7.84907 7.51105,10.25305 1.66891,2.40397 3.2599,4.33732 3.53553,4.29632 0.66282,-0.0986 3.45069,3.65706 5.15215,6.94066 0.74768,1.44292 1.35941,3.72157 1.35941,5.06367 0,6.30254 -12.03226,10.30435 -31.1127,10.34775 -3.69463,0.008 -14.60416,-0.5124 -24.24339,-1.15736 l -17.52589,-1.17264 -3.81958,1.87027 c -3.92473,1.92175 -6.37545,2.30186 -8.03981,1.247 l 3e-5,0 z m -6.47541,-106.61344 c 0,-0.9147 -3.6222,-5.1899 -5.04014,-5.94876 -1.84335,-0.98652 -8.39489,-0.16178 -8.39489,1.05679 0,0.62664 1.08055,0.7861 3.79906,0.56066 3.63049,-0.30106 3.90221,-0.20169 6.12402,2.23993 2.16757,2.38199 3.51195,3.18258 3.51195,2.09138 z"
       id="path8461"
       transform="translate(0,602.36218)" />
    <path
       style="fill:none;stroke:#000000;stroke-width:0;stroke-miterlimit:4;stroke-opacity:0.47058824;stroke-dasharray:none;stroke-dashoffset:0"
       d="m 112.4561,413.14086 c -6.54224,-1.18392 -11.18621,-3.94499 -13.411654,-7.97392 -2.002293,-3.62494 -2.952224,-3.78626 -2.952224,-0.50136 0,1.36118 -0.262732,2.47488 -0.583848,2.47488 -1.631389,0 -5.880007,-6.53722 -7.238028,-11.13693 -0.816357,-2.76506 -2.337478,-3.97595 -2.902577,-2.31059 -0.129636,0.38204 -2.077011,-2.29899 -4.327498,-5.95784 -4.702482,-7.64531 -5.851521,-11.84847 -6.583327,-24.08171 -0.55737,-9.31728 0.464554,-20.90347 3.269361,-37.06679 2.556906,-14.73473 5.178655,-23.57309 11.23839,-37.88653 2.634374,-6.22254 5.175244,-12.88073 5.646379,-14.79599 1.046377,-4.25372 0.442486,-8.99181 -1.071976,-8.41066 -0.865996,0.33231 -0.89515,0.10071 -0.183842,-1.46044 1.021822,-2.24266 0.334316,-3.16261 -1.505051,-2.0139 -1.783684,1.11393 -1.972873,0.67882 -2.729949,-6.27843 -0.704661,-6.47559 -0.139167,-12.72994 1.576643,-17.43763 0.872974,-2.3952 5.539388,-11.50989 6.561017,-12.81534 0.12047,-0.15394 2.532606,0.45424 5.360304,1.3515 2.82769,0.89726 7.20955,2.1627 9.73746,2.81209 5.3384,1.37136 5.24224,0.98401 2.45861,9.90488 -2.49187,7.98584 -3.09749,18.78063 -1.44676,25.78746 2.31459,9.82471 8.68089,17.93617 17.95813,22.88088 2.4005,1.27946 4.36454,2.48418 4.36454,2.67717 0,0.19298 -1.23489,2.16934 -2.7442,4.3919 -7.14335,10.51905 -12.74529,21.0906 -16.73991,31.59028 -2.37697,6.24775 -2.696,7.82515 -2.73998,13.54756 -0.0441,5.73644 0.14058,6.73452 1.61608,8.73468 l 1.66586,2.2582 -2.29927,-0.50501 c -2.16337,-0.47516 -2.27195,-0.40631 -1.83711,1.16481 1.31757,4.76039 1.32132,4.8518 0.1991,4.8518 -1.73273,0 -2.81211,2.79119 -2.81211,7.27185 0,4.63365 1.26377,6.91597 5.25046,9.4821 5.32895,3.43011 6.16952,4.40219 6.94883,8.03598 0.42038,1.96017 0.76433,4.76154 0.76433,6.22528 0,2.01931 0.49935,3.13973 2.06994,4.64446 3.91075,3.74673 4.62051,8.16301 1.62954,10.13922 -1.53135,1.01181 -1.77101,0.88765 -5.3033,-2.74739 -2.03472,-2.09389 -4.35778,-4.74501 -5.16237,-5.89137 -0.90328,-1.28699 -1.6468,-1.78671 -1.94368,-1.30636 -0.6587,1.06579 5.22437,8.66452 8.29886,10.71904 2.94921,1.97079 5.47827,1.65342 7.14951,-0.89722 0.92476,-1.41137 0.96855,-2.22445 0.27549,-5.1153 -0.45322,-1.89045 -1.44228,-4.52511 -2.19791,-5.85479 -0.82889,-1.4586 -1.21104,-3.06638 -0.96338,-4.05314 l 0.4105,-1.63554 3.86849,1.89729 c 3.6653,1.79763 3.94503,2.12726 5.32549,6.27556 1.66558,5.00506 1.42942,6.82088 -1.50921,11.60465 -1.84044,2.99601 -2.37079,3.32971 -8.89708,5.59807 -3.81699,1.32668 -7.25818,2.48909 -7.64708,2.58314 -0.38891,0.094 -3.04841,-0.2527 -5.90999,-0.77055 z"
       id="path8463"
       transform="translate(0,602.36218)" />
    <path
       style="fill:#241c1c;fill-opacity:1;stroke:#000000;stroke-width:0;stroke-miterlimit:4;stroke-opacity:0.40444444;stroke-dasharray:none;stroke-dashoffset:0"
       d="m 114.11248,413.69388 c -7.83456,-1.0191 -13.44094,-4.21237 -15.779046,-8.98741 -0.636416,-1.29973 -1.169336,-1.95007 -1.59797,-1.95007 -0.581003,0 -0.626305,0.26186 -0.469093,2.71157 l 0.174019,2.71157 -1.080099,-0.7691 c -3.035783,-2.16167 -6.150643,-7.07271 -7.717027,-12.16705 -0.474995,-1.54483 -0.786813,-2.03294 -1.298693,-2.03294 -0.594363,0 -0.645434,0.17679 -0.434078,1.50261 l 0.239538,1.5026 -1.143495,-1.76777 c -6.430985,-9.94188 -8.002147,-12.77215 -8.744747,-15.75268 -2.42274,-9.72401 -2.767433,-23.89385 -0.932677,-38.34099 0.998304,-7.86078 3.653163,-22.77457 4.957019,-27.84626 0.711821,-2.76881 2.158744,-7.5549 3.215384,-10.63574 1.838167,-5.35955 2.867129,-7.88967 7.326004,-18.01395 3.402518,-7.72572 3.903761,-9.46034 3.913063,-13.54167 0.0057,-2.51592 -0.135093,-3.74216 -0.477096,-4.15425 -0.680353,-0.81978 -0.894411,-0.74327 -1.579206,0.56438 l -0.601736,1.14905 0.207246,-1.36414 c 0.113986,-0.75027 0.546743,-2.06292 0.961682,-2.91699 0.559388,-1.15139 0.651478,-1.65581 0.356201,-1.95109 -0.295278,-0.29528 -0.802304,-0.0671 -1.961158,0.88247 l -1.562923,1.28069 -0.629473,-3.62232 c -0.34621,-1.99229 -0.707236,-5.9294 -0.802278,-8.74914 -0.27598,-8.18779 0.784307,-12.08446 5.820146,-21.3897 1.473296,-2.72236 2.713938,-4.99508 2.75698,-5.05049 0.04304,-0.0554 2.27994,0.62741 4.970883,1.51737 4.17191,1.37975 7.84081,2.42694 14.33148,4.09053 l 1.27652,0.32718 -1.1848,3.15428 c -1.38446,3.68584 -2.79913,9.09679 -3.50679,13.41302 -0.66135,4.03378 -0.65118,11.89249 0.0204,15.74352 1.65314,9.4798 6.74489,17.37074 14.67449,22.74179 1.93431,1.31018 7.07913,3.98832 7.66374,3.98935 1.01104,0.002 0.62944,0.88976 -2.22345,5.17379 -12.42831,18.66292 -20.06099,36.25874 -20.07046,46.26898 -0.004,3.77176 0.74923,6.03386 2.98763,8.9776 0.79734,1.04859 1.23612,1.82748 0.97507,1.73087 -2.19582,-0.81261 -4.26859,-1.37551 -4.4387,-1.20541 -0.11327,0.11327 0.21215,1.67052 0.72315,3.46057 0.511,1.79004 0.86742,3.3163 0.79203,3.39168 -0.0754,0.0754 -0.64393,-0.12505 -1.26343,-0.44541 -0.6195,-0.32035 -1.1767,-0.53096 -1.23822,-0.46801 -0.60521,0.61937 -1.62354,5.04671 -1.64822,7.16589 -0.0609,5.23293 2.09341,8.46153 7.19361,10.78073 4.06318,1.84764 5.28868,4.10021 5.49403,10.09856 0.0732,2.139 0.21363,4.26998 0.31201,4.73551 0.0984,0.46553 1.13346,1.84053 2.30019,3.05555 2.35604,2.45357 3.4965,4.86394 3.4965,7.38987 0,1.26994 -0.17577,1.6998 -0.94133,2.30198 -1.28926,1.01414 -2.48598,1.25605 -3.50793,0.70912 -1.42781,-0.76415 -6.12131,-5.67211 -7.67658,-8.02737 -1.372,-2.07772 -2.07866,-2.61333 -2.51545,-1.90659 -0.30465,0.49293 2.87175,5.00044 5.21872,7.40568 2.63131,2.69665 4.972,4.31202 6.24816,4.31202 1.08677,0 3.64564,-1.72707 4.26017,-2.87533 0.92191,-1.72259 -0.93978,-8.96441 -2.86952,-11.16227 -0.61406,-0.69937 -1.04468,-1.58951 -1.04468,-2.1595 0,-1.14741 0.88715,-2.54123 1.61746,-2.54123 0.28419,0 2.08294,0.78597 3.99721,1.74659 l 3.48051,1.7466 1.49297,4.4896 c 1.66484,5.00642 1.67701,5.77583 0.13936,8.81099 -0.79233,1.56398 -3.63481,6.18719 -3.80407,6.18719 -0.0355,0 -3.20808,1.11369 -7.05016,2.47487 -7.19113,2.54769 -7.67931,2.63452 -11.79899,2.09865 l 0,0 z"
       id="path8481"
       transform="translate(0,602.36218)" />
    <path
       style="fill:#241c1c;fill-opacity:1;stroke:#000000;stroke-width:0;stroke-miterlimit:4;stroke-opacity:0.40444444;stroke-dasharray:none;stroke-dashoffset:0"
       d="m 259.29091,423.14539 c -1.53359,-0.68823 -2.08441,-1.33196 -2.08441,-2.43599 0,-1.11022 1.73025,-3.10376 2.69384,-3.10376 0.27375,0 0.774,-0.1505 1.11166,-0.33444 0.76203,-0.41512 4.45687,-1.56308 7.50821,-2.33273 2.15589,-0.54379 4.24943,-1.49088 4.23723,-1.91687 -0.003,-0.10391 -0.13738,-0.39701 -0.29868,-0.65133 -0.23354,-0.36825 -0.53839,-0.31923 -1.49719,0.24075 -0.66216,0.38673 -2.47885,1.02611 -4.03709,1.42084 -1.55824,0.39473 -3.54698,0.99271 -4.41941,1.32886 -1.33928,0.51601 -2.98995,0.61912 -10.60187,0.66224 -11.00545,0.0623 -14.97013,0.65624 -21.03643,3.15127 -2.13899,0.87975 -4.23818,1.60267 -4.66486,1.60647 -0.42668,0.004 -1.2032,-0.36074 -1.72561,-0.81008 l -0.94982,-0.81701 1.90238,-1.52988 c 2.67177,-2.14862 5.34645,-3.3154 8.00118,-3.49037 1.83609,-0.12101 2.20971,-0.25297 2.20971,-0.78047 0,-0.46513 -0.37808,-0.69872 -1.41422,-0.87378 -3.05997,-0.51698 -5.77227,0.50819 -10.24461,3.87215 -1.45377,1.09348 -3.00614,2.07924 -3.44972,2.19057 -1.03097,0.25875 -2.56912,-0.72937 -2.56912,-1.65043 0,-1.90239 4.43218,-4.95628 8.75044,-6.02929 1.80955,-0.44964 2.42952,-1.19037 1.34471,-1.60665 -1.25524,-0.48168 -6.71705,1.73581 -9.78897,3.97432 -1.85535,1.352 -2.1539,1.41698 -2.93258,0.63829 -1.37839,-1.37838 0.24353,-4.69335 2.97161,-6.07354 1.31344,-0.66449 2.15684,-0.79733 5.12139,-0.80667 l 3.54901,-0.0112 -0.99199,-0.87271 c -1.32569,-1.16629 -3.18498,-1.25097 -6.57048,-0.29925 -1.97809,0.55608 -3.04065,1.11757 -4.76791,2.51951 -1.33061,1.07999 -1.5507,0.78494 -0.58275,-0.78124 1.49988,-2.42685 4.76825,-4.08132 7.96338,-4.0311 2.07051,0.0325 9.35952,-1.09133 15.07416,-2.32425 7.28025,-1.57069 13.65206,-2.36416 20.63473,-2.56959 6.9122,-0.20336 10.48065,0.0744 15.25931,1.18789 2.25129,0.52457 2.59013,0.53109 3.06226,0.0589 0.47214,-0.47213 0.46175,-0.68531 -0.094,-1.92649 -0.88522,-1.97719 -4.15792,-5.38404 -7.1713,-7.46525 -1.41407,-0.97663 -5.51437,-3.56741 -9.11177,-5.75727 -11.24906,-6.84768 -14.62959,-9.38469 -17.55795,-13.17681 -3.89924,-5.04935 -4.26904,-9.31813 -1.37687,-15.89367 0.42776,-0.97254 -1.77147,-0.8588 -2.29459,0.11866 -0.78326,1.46353 -0.69218,0.36383 0.2051,-2.47659 1.04586,-3.31072 1.02506,-4.30316 -0.10051,-4.79698 -0.43752,-0.19195 -0.79549,-0.45628 -0.79549,-0.58739 0,-0.59266 2.56727,-6.14678 4.08076,-8.82844 4.6013,-8.15275 11.66244,-15.86779 14.5229,-15.86779 0.57106,0 2.52999,1.73404 6.74529,5.97091 6.38725,6.41992 8.77852,8.21708 13.20479,9.92403 3.75401,1.4477 11.786,3.66799 16.89737,4.67096 l 4.19975,0.82408 0.21986,4.41942 c 0.12092,2.43068 0.36986,5.03652 0.55319,5.79076 0.31374,1.29072 0.26736,1.42412 -0.78875,2.269 -6.72969,5.38369 -10.26355,12.156 -9.62639,18.44806 0.46284,4.57064 2.33031,8.7836 8.00677,18.06308 4.01109,6.55704 5.88153,10.55197 6.47134,13.82165 l 0.23337,1.29367 -2.2893,0.76183 c -3.01699,1.00399 -4.59648,2.08776 -4.73259,3.24727 -0.10462,0.89117 -0.19834,0.92376 -3.35876,1.16775 -3.8362,0.29617 -10.28386,2.23276 -11.86597,3.56403 -0.56825,0.47815 -1.41931,0.86936 -1.89124,0.86936 -0.47193,0 -3.35451,0.61501 -6.40574,1.36669 -4.25834,1.04906 -6.0315,1.66533 -7.62947,2.65165 -2.16364,1.33547 -3.40653,1.53719 -5.01734,0.81431 l 0,0 z"
       id="path8483"
       transform="translate(0,602.36218)" />
    <path
       style="fill:#241c1c;fill-opacity:1;stroke:#000000;stroke-width:0;stroke-miterlimit:4;stroke-opacity:0.40444444;stroke-dasharray:none;stroke-dashoffset:0"
       d="m 297.9789,430.92538 c -0.61802,-0.22828 -1.22681,-0.52002 -1.35287,-0.64833 -0.26562,-0.27036 2.95687,-2.74842 4.77465,-3.67166 0.6961,-0.35355 2.35877,-0.70123 3.80069,-0.79475 2.14327,-0.13902 2.56327,-0.26775 2.56327,-0.78564 0,-0.72756 -0.96572,-1.04388 -3.20739,-1.05058 -2.29017,-0.007 -4.3703,0.80603 -7.22244,2.82237 -4.74526,3.3547 -6.33996,3.81895 -7.25367,2.11168 -0.92913,-1.73611 2.51958,-4.54617 7.54218,-6.14546 2.50983,-0.79918 2.96647,-1.05844 2.82398,-1.60329 -0.1414,-0.54072 -0.41724,-0.61825 -1.64123,-0.46125 -2.9869,0.38312 -5.39127,1.60731 -8.89588,4.52934 -3.23132,2.69418 -4.08323,2.81472 -4.96571,0.70266 -0.87801,-2.10137 -0.67392,-2.98986 1.07074,-4.66154 2.02766,-1.94284 4.62309,-2.76423 7.93433,-2.51103 1.27853,0.0978 2.56325,0.23647 2.85493,0.30824 0.33107,0.0815 0.53033,-0.12183 0.53033,-0.54104 0,-1.00171 -2.34181,-1.71747 -4.98145,-1.52254 -3.28832,0.24284 -6.16692,1.69663 -8.46278,4.27403 l -1.90455,2.13808 -0.8634,-0.81112 c -2.42785,-2.28084 -0.86771,-4.24405 4.75376,-5.98196 4.095,-1.266 10.10874,-1.93916 12.51908,-1.40135 1.56913,0.35011 4.08585,0.12936 7.68979,-0.6745 2.00066,-0.44626 2.38648,-0.64993 2.38648,-1.25985 0,-0.6876 -0.14069,-0.7155 -2.56326,-0.50833 -7.93058,0.67821 -9.20329,0.70654 -9.0348,0.20105 0.44942,-1.34824 5.91604,-3.10197 12.66676,-4.0636 3.4903,-0.49718 7.23779,-0.6469 17.94811,-0.71708 15.08029,-0.0988 14.90062,-0.0707 16.6025,-2.59612 1.02434,-1.52002 1.00486,-2.07666 -0.0872,-2.49186 -0.48614,-0.18483 -0.88538,-0.61842 -0.8872,-0.96352 -0.007,-1.22916 -2.25764,-4.55473 -4.73265,-6.99143 -1.38258,-1.36118 -5.75294,-4.93285 -9.71193,-7.93704 -7.8768,-5.97714 -11.77771,-9.42879 -13.89476,-12.29454 -1.56319,-2.11601 -2.48185,-2.36758 -3.26182,-0.89324 -0.37811,0.71473 -0.562,0.8318 -0.69421,0.44194 -0.43155,-1.27245 -0.4305,-3.49148 0.002,-5.12652 0.25744,-0.97227 0.46995,-1.80754 0.47226,-1.85616 0.002,-0.0486 -0.31054,-0.0884 -0.69522,-0.0884 -0.38468,0 -1.57792,0.8785 -2.65165,1.95223 l -1.95228,1.95223 -0.005,-1.68707 c -0.006,-2.17167 -0.31091,-3.27805 -0.90274,-3.27805 -0.25934,0 -0.62857,0.27842 -0.82052,0.61871 -0.29167,0.5171 -0.50389,0.2703 -1.29206,-1.5026 -2.78233,-6.25851 -4.18497,-12.60519 -4.1803,-18.9151 0.004,-5.35493 0.67254,-8.57031 2.62428,-12.62105 3.6623,-7.60091 11.13697,-11.59457 22.51898,-12.0317 4.74825,-0.18235 5.03814,-0.23441 5.03814,-0.9048 0,-0.68729 -0.1582,-0.70436 -4.68458,-0.50531 -7.3381,0.32269 -12.4076,1.69823 -16.79991,4.55843 -5.19745,3.38449 -8.34142,8.49532 -9.65558,15.6961 l -0.45629,2.50018 -1.61433,-0.26249 c -5.10691,-0.83035 -14.99756,-3.52612 -19.38953,-5.28475 -3.95756,-1.58469 -6.62168,-3.68055 -13.50725,-10.62617 -4.25209,-4.28916 -7.06752,-6.81495 -8.9796,-8.05579 -1.53197,-0.99417 -3.00364,-1.80759 -3.27037,-1.80759 -0.77496,0 -0.56994,-0.60865 0.68445,-2.03191 4.73905,-5.37704 9.89461,-12.64232 12.30594,-17.34168 1.87766,-3.65934 2.96821,-7.7751 2.69721,-10.17941 -0.0967,-0.85783 -0.0453,-1.55969 0.11417,-1.55969 0.15948,0 1.22962,-0.86995 2.37808,-1.93322 3.56457,-3.30017 4.98018,-7.88716 3.98896,-12.92542 l -0.42261,-2.14808 1.95553,-2.1122 c 3.22769,-3.48629 5.71148,-8.4104 7.11985,-14.1151 0.86132,-3.48883 1.07692,-12.50137 0.39299,-16.42814 -0.30365,-1.74344 -0.4933,-3.22869 -0.42144,-3.30055 0.0719,-0.0719 1.33932,0.68495 2.81658,1.68179 1.78889,1.20713 2.73209,1.66001 2.82414,1.35601 1.71372,-5.66013 0.79599,-14.90953 -2.23029,-22.47824 -0.83958,-2.09979 -0.8858,-2.32388 -0.41988,-2.03593 0.49644,0.30681 0.91201,-3.39091 0.89223,-7.93886 -0.015,-3.44888 -0.1584,-4.46825 -0.94495,-6.71752 -1.49236,-4.26766 -3.356,-8.50232 -5.04996,-11.47484 l -1.57852,-2.76994 0.22337,-4.65746 c 0.8759,-18.26345 -6.04863,-27.816 -25.33594,-34.95154 -9.42358,-3.48635 -23.94722,-2.29898 -33.96351,2.77666 -0.95996,0.48645 -1.74538,0.81334 -1.74538,0.72643 0,-0.0869 -2.10144,0.5468 -4.66986,1.40825 -2.56843,0.86146 -4.8033,1.56629 -4.9664,1.56629 -0.62509,0 3.0268,-6.34726 5.59396,-9.72272 1.4789,-1.94454 3.41905,-4.52854 4.31145,-5.74221 0.89239,-1.21366 1.66529,-2.16392 1.71754,-2.11166 0.0522,0.0522 -0.0286,1.00547 -0.17956,2.11828 -0.15101,1.1128 -0.14267,2.02328 0.0185,2.02328 0.64593,0 5.57941,-3.77876 8.07383,-6.18408 2.61506,-2.52166 2.69556,-2.56705 5.83363,-3.28923 9.83062,-2.26236 21.08017,-1.90289 29.16816,0.93205 15.47144,5.42292 27.49052,19.35885 30.08319,34.88099 0.69386,4.15414 1.05731,4.67836 11.24164,16.21447 11.72671,13.28323 13.58606,15.954 16.06498,23.07576 1.47952,4.25054 2.85871,10.54906 5.02213,22.93516 2.76597,15.83585 4.46511,22.24566 7.61813,28.73848 2.77922,5.72306 5.53646,8.11462 17.82794,15.46348 10.38748,6.21049 16.33259,10.53925 24.16221,17.59306 5.97779,5.38546 8.92103,9.07117 11.73198,14.69153 3.14195,6.28217 4.35752,11.25417 4.33602,17.73543 -0.0176,5.29313 -0.75255,8.4843 -3.05367,13.25825 -4.42968,9.18988 -13.88751,16.42425 -27.27455,20.8625 -2.13763,0.70869 -3.93124,1.33317 -3.9858,1.38774 -0.0546,0.0546 -0.002,0.35153 0.11598,0.65994 0.17015,0.4434 0.40412,0.48891 1.11802,0.21749 0.49655,-0.18879 0.95978,-0.28631 1.02937,-0.21671 0.0696,0.0696 -0.10249,0.90931 -0.38242,1.86604 -1.49109,5.0961 -2.0605,13.38482 -1.23837,18.02642 0.79351,4.48008 2.90564,9.56504 5.64415,13.58835 0.72797,1.0695 3.55913,4.78944 6.29147,8.26654 2.73233,3.47709 5.46966,7.26342 6.08294,8.41405 0.81748,1.53375 1.28785,2.06389 1.76253,1.98651 0.74025,-0.12067 2.24801,1.71802 4.55219,5.55131 3.73606,6.2154 3.08008,9.80741 -2.30813,12.63884 -9.08669,4.77492 -22.95424,5.54685 -55.2772,3.07698 -12.97961,-0.99181 -13.62716,-0.96942 -16.23914,0.56142 -3.81401,2.23533 -6.24629,2.74002 -8.74939,1.81547 l 0,0 z m -7.01247,-107.00423 c 0.2607,-0.42184 -2.2449,-3.88201 -3.56035,-4.91674 -1.73122,-1.36178 -3.22799,-1.58537 -6.49178,-0.96979 -3.23355,0.60987 -3.52706,0.74569 -2.92107,1.35167 0.31132,0.31132 0.95498,0.3099 2.66884,-0.006 4.29302,-0.79102 5.32615,-0.4003 7.8352,2.96326 1.38286,1.85383 2.03921,2.27315 2.46916,1.57748 l 0,2e-5 z"
       id="path8485"
       transform="translate(0,602.36218)" />
    <path
       style="fill:#241c1c;fill-opacity:1;stroke:#000000;stroke-width:0;stroke-miterlimit:4;stroke-opacity:0.40444444;stroke-dasharray:none;stroke-dashoffset:0"
       d="m 179.08205,411.32952 c -0.67463,-0.34 -1.86787,-1.44161 -2.65165,-2.44803 -1.52567,-1.95904 -1.97085,-2.18551 -2.66115,-1.35375 -0.24133,0.29079 -1.06943,0.71765 -1.84021,0.94858 -1.20713,0.36167 -1.56871,0.32979 -2.60798,-0.22989 -1.18749,-0.63951 -2.93413,-2.96766 -3.65241,-4.86842 -0.20148,-0.53315 -1.51478,-2.68099 -2.91845,-4.77297 -1.40367,-2.09198 -2.84056,-4.5625 -3.19308,-5.49005 -1.94781,-5.12499 -2.18218,-14.08793 -0.52911,-20.23386 2.78183,-10.34248 8.44304,-22.68168 14.92331,-32.52691 4.90426,-7.45084 9.97926,-13.69867 24.41075,-30.05204 9.94525,-11.26968 14.41067,-18.75156 15.72038,-26.33972 0.30664,-1.77659 0.64727,-2.55901 1.50105,-3.44784 0.86338,-0.89881 1.01115,-1.24299 0.67708,-1.57706 -0.33406,-0.33406 -0.91278,0.0538 -2.65173,1.77731 l -2.2244,2.20463 -0.7144,-0.80435 c -2.07693,-2.33841 -5.07697,-8.37433 -6.81382,-13.70904 -2.23823,-6.87469 -3.25364,-13.67624 -3.24945,-21.76598 0.005,-10.24489 1.73902,-19.08775 5.56901,-28.40483 0.95371,-2.32006 1.12066,-3.03373 0.76159,-3.25564 -0.59041,-0.3649 -0.7695,-0.1425 -1.52898,1.89864 -0.78006,2.09643 -1.17959,1.85172 -2.41402,-1.47859 -2.34692,-6.33165 -1.93753,-13.27371 1.26299,-21.41659 1.27235,-3.23717 3.64628,-7.42494 5.48133,-9.66944 1.00501,-1.22927 1.15802,-1.60051 0.76281,-1.85075 -0.27191,-0.17216 -0.57975,-0.31546 -0.68408,-0.31844 -0.31838,-0.009 -2.82524,3.49482 -4.21817,5.89585 l -1.31494,2.2666 -1.15173,-2.57579 c -1.96413,-4.39269 -2.591,-7.34627 -2.61261,-12.30959 -0.0228,-5.2349 0.54385,-7.91036 2.60849,-12.31618 4.71698,-10.06577 14.48581,-17.18835 27.30214,-19.90634 4.23594,-0.89833 13.04854,-1.08111 16.8764,-0.35003 4.39452,0.83931 13.02278,4.56183 17.50089,7.55048 4.06519,2.71307 7.71577,6.88304 9.44191,10.78528 1.93912,4.3837 2.98327,11.27634 2.56427,16.92735 l -0.23881,3.22088 -1.44212,-1.56451 c -1.76487,-1.91467 -2.65805,-2.45493 -2.92188,-1.7674 -0.10868,0.28322 0.674,1.38408 1.8614,2.61811 1.12692,1.17118 2.86955,3.5082 3.87253,5.1934 2.52562,4.24353 5.62948,12.12849 6.0766,15.43683 0.3309,2.44845 0.10793,7.11728 -0.36236,7.58757 -0.11341,0.11341 -0.96033,-0.6765 -1.88203,-1.75537 -1.59509,-1.86708 -2.3799,-2.33206 -2.79699,-1.65718 -0.10347,0.16742 0.68136,1.62601 1.74408,3.24131 2.05364,3.12149 3.52665,6.55512 4.77912,11.14025 0.84965,3.11046 1.35772,11.47455 0.82056,13.50839 l -0.30308,1.14752 -3.18198,-2.11904 c -1.75009,-1.16548 -3.28089,-2.11938 -3.40179,-2.11979 -0.1209,-3.6e-4 0.0702,1.23227 0.42474,2.73929 2.34866,9.98419 1.51132,19.0893 -2.49547,27.13522 -1.07416,2.15699 -2.50805,4.36266 -3.67747,5.65686 l -1.91681,2.12132 -0.24989,-0.97115 c -0.17496,-0.67995 0.0246,-1.65691 0.66565,-3.25812 0.50354,-1.25783 0.81884,-2.53894 0.70067,-2.84691 -0.27756,-0.72329 -1.39364,-0.50311 -1.26705,0.24998 0.053,0.31503 -0.22547,1.38907 -0.61872,2.38675 -0.85469,2.16836 -0.88493,2.98503 -0.18409,4.97142 1.46019,4.13864 1.35284,8.93916 -0.26088,11.66562 -1.33532,2.25609 -3.48889,4.19806 -5.33575,4.81149 -2.8903,0.96 -5.54088,3.80837 -5.54088,5.95433 0,1.38971 0.89593,1.07768 1.3608,-0.47395 0.38122,-1.27236 2.78237,-3.92791 3.55163,-3.92791 0.86277,0 0.66686,3.88071 -0.35518,7.03579 -1.15716,3.57216 -5.10849,9.99829 -9.75051,15.85746 -4.08411,5.15497 -6.60475,7.98208 -18.64031,20.90671 -6.0453,6.49185 -12.55819,13.49221 -14.47311,15.55635 -11.82389,12.74527 -19.65013,23.77278 -21.59055,30.42203 -0.74154,2.54101 -0.75816,5.68107 -0.0301,5.68107 0.39613,0 0.53183,-0.42494 0.53628,-1.67937 l 0.006,-1.67938 0.72658,1.13436 c 0.39961,0.6239 1.50584,1.61386 2.45829,2.1999 2.62097,1.61271 4.23117,4.57325 4.22439,7.76704 -0.005,2.27672 -1.37978,5.01011 -3.58255,7.12211 -1.33435,1.27937 -1.73672,1.87436 -1.45682,2.15425 0.27989,0.27989 0.78115,0.0697 1.8149,-0.76104 2.84149,-2.28348 4.2886,-5.20061 4.2886,-8.64511 0,-1.30393 0.15393,-2.30945 0.35355,-2.30945 0.19962,0 0.35355,-1.00544 0.35355,-2.3092 0,-2.50149 0.39294,-3.02279 1.73649,-2.30374 1.30633,0.69913 1.92205,2.45009 2.08405,5.92662 0.14126,3.03127 0.0932,3.32791 -0.68982,4.25848 -0.82321,0.97834 -1.60103,2.67846 -3.83897,8.3911 -2.37448,6.06116 -4.88604,7.36833 -10.12797,5.27123 -1.26212,-0.50493 -2.34358,-0.8629 -2.40323,-0.7955 -0.0597,0.0674 -0.53774,1.03816 -1.06241,2.15723 -1.5872,3.38539 -2.75792,3.48659 -7.22023,0.62414 -1.52182,-0.97621 -2.87038,-1.77493 -2.99679,-1.77493 -0.12642,0 -0.22985,0.31498 -0.22985,0.69995 0,1.39101 -1.1438,3.56753 -2.14759,4.08661 -1.29882,0.67164 -2.00326,0.651 -3.49842,-0.10252 z"
       id="path8487"
       transform="translate(0,602.36218)" />
    <path
       style="fill:none;stroke:#000000;stroke-width:1px;stroke-linecap:butt;stroke-linejoin:miter;stroke-opacity:1"
       d="m 117.75,140 c 0.33333,0 1.2357,0.2357 1,0 -0.26634,-0.26634 -1.03402,-0.25 -1.5,-0.25 -0.0833,0 -0.17546,0.0373 -0.25,0 -0.10541,-0.0527 -0.14459,-0.1973 -0.25,-0.25 -0.0745,-0.0373 -0.16667,0 -0.25,0 -0.16667,0 -0.33333,0 -0.5,0 -0.0833,0 -0.16667,0 -0.25,0 -0.0833,0 -0.25,0.0833 -0.25,0 0,-0.0833 0.25,0.0833 0.25,0 0,-0.30893 -0.35059,-0.25 -0.5,-0.25"
       id="path8489"
       transform="translate(0,602.36218)" />
    <path
       style="fill:#501616;fill-opacity:1;stroke:#501616;stroke-width:0;stroke-miterlimit:4;stroke-opacity:0.40444444;stroke-dasharray:none;stroke-dashoffset:0"
       d="m 100.61848,143.00888 c -0.36874,-0.17166 -0.846612,-0.46035 -1.061943,-0.64153 -1.751495,-1.47379 -2.782732,-4.24424 -2.103283,-5.65054 0.422367,-0.8742 1.563737,-2.70331 1.979248,-3.17186 0.579838,-0.65385 0.810598,-1.2772 0.828228,-2.23732 0.0217,-1.18155 -0.489993,-2.1883 -1.665344,-3.27649 -1.29799,-1.20174 -3.709246,-2.2679 -5.711122,-2.52521 -1.083947,-0.13933 -2.265972,0.64365 -2.781772,1.84266 -0.239937,0.55775 -0.270795,0.80589 -0.221377,1.7802 0.06471,1.27591 0.363816,2.20054 1.033977,3.19639 0.230673,0.34278 0.371867,0.62324 0.313764,0.62324 -0.256464,0 -1.598049,-1.5159 -1.924555,-2.17461 -1.513315,-3.05306 0.452135,-6.81361 3.99748,-7.64849 1.055445,-0.24854 3.878388,-0.18453 5.612122,0.12726 1.046346,0.18817 4.748207,1.08308 5.204417,1.25814 0.15622,0.06 0.22587,-0.0311 0.305,-0.39856 0.15128,-0.70249 0.15614,-0.69173 -0.38442,-0.851 l -0.5,-0.14731 0.5,-0.13765 c 2.63145,-0.72444 3.56013,-0.84066 6.6875,-0.83693 2.12588,0.003 3.10241,0.0566 4,0.22136 5.61086,1.0301 10.19744,3.48044 12.24499,6.54178 2.58708,3.868 0.30818,7.62649 -6.24446,10.29873 -1.24303,0.50693 -1.45555,0.56062 -1.57456,0.39787 -0.0757,-0.10348 -0.46311,-0.25315 -0.86099,-0.3326 l -0.72342,-0.14445 0.92297,-0.48071 c 4.20371,-2.18941 5.74033,-4.30853 4.20948,-5.80522 -1.91464,-1.87191 -9.1133,-1.20685 -14.09901,1.30256 -1.2622,0.63529 -2.97654,1.81504 -3.92735,2.70267 l -0.86485,0.80738 -0.0567,1.07981 c -0.0876,1.66967 0.42974,2.76812 1.75644,3.72918 l 0.48482,0.3512 -0.41494,0.0695 c -0.93612,0.15674 -3.4347,0.44502 -3.84724,0.44388 -0.24349,-6.2e-4 -0.74439,-0.14166 -1.11312,-0.31331 l 0,0 z"
       id="path8493"
       transform="translate(0,602.36218)" />
    <path
       style="fill:#c8beb7;fill-opacity:1;stroke:#c8beb7;stroke-width:0;stroke-miterlimit:4;stroke-opacity:0.40444443000000002;stroke-dasharray:none;stroke-dashoffset:0"
       d="m 130.69488,236.39991 c -0.90861,-1.97838 -2.68237,-3.88028 -4.22252,-4.52755 -0.61625,-0.25898 -2.60499,-0.7972 -4.41942,-1.19603 -31.974723,-7.02843 -53.155701,-18.55248 -61.286373,-33.34442 -6.551096,-11.91826 -5.243611,-25.11159 4.067261,-41.04117 l 2.187213,-3.74201 -1.04493,-1.32785 c -2.388736,-3.03552 -3.677264,-7.49614 -2.457753,-8.50824 1.044778,-0.86709 15.410228,1.84382 25.108964,4.73832 11.783028,3.51654 20.201988,6.79346 40.449918,15.74437 5.6778,2.50995 11.13763,4.71799 12.13296,4.90675 2.8017,0.53133 8.2682,-0.42227 11.35413,-1.98067 0.51144,-0.25827 1.43082,-0.89109 2.04306,-1.40626 0.85369,-0.71833 1.0225,-1.04594 0.72418,-1.4054 -0.31382,-0.37813 -0.68124,-0.24564 -1.90111,0.6855 -2.32732,1.77649 -6.10637,2.86833 -9.92775,2.86833 l -3.18198,0 -10.8948,-4.87756 c -22.89699,-10.25088 -36.758286,-15.27784 -50.44671,-18.29508 -2.819588,-0.6215 -5.322631,-1.18454 -5.562318,-1.2512 -0.50701,-0.14101 -0.257522,-1.92058 0.473265,-3.37575 0.72808,-1.44977 3.859655,-4.71637 6.26394,-6.53403 2.070949,-1.56564 5.978507,-3.67249 6.81249,-3.67309 0.212288,-1.5e-4 0.574499,0.62895 0.804913,1.398 0.790992,2.6401 2.713142,4.25964 6.124036,5.15992 1.776178,0.4688 2.054237,0.39039 2.054237,-0.57929 0,-0.39077 -0.439216,-0.76572 -1.185447,-1.012 -1.445216,-0.47697 -2.491229,-1.54376 -3.217095,-3.281 -0.699969,-1.67525 -0.688222,-2.14053 0.07793,-3.08669 0.583091,-0.72008 0.738156,-0.74354 2.3056,-0.34885 2.043889,0.51465 4.396436,2.15439 4.867133,3.39241 0.297306,0.78197 0.13178,1.2467 -1.160642,3.25856 -1.279531,1.9918 -1.505003,2.61747 -1.491553,4.13902 0.01976,2.23554 1.37178,4.70195 3.19527,5.82893 1.177891,0.72798 1.538751,0.76976 4.687711,0.54271 1.87637,-0.13529 4.04797,-0.36581 4.82579,-0.51227 l 1.41422,-0.26629 -1.59099,-0.82215 c -3.11156,-1.6079 -3.5848,-2.08678 -3.46625,-3.50752 0.0955,-1.14426 0.35658,-1.45512 2.33724,-2.78274 2.80061,-1.87723 6.14176,-2.96071 9.82517,-3.18616 4.5113,-0.27611 5.60977,0.7782 2.88271,2.76684 -1.31995,0.96254 -5.03814,3.04065 -5.03814,2.81584 0,-0.0459 -0.43752,0.11591 -0.97227,0.35956 -0.97898,0.44605 -1.26745,1.166 -0.62603,1.56242 0.19044,0.11769 0.66997,0.0407 1.06562,-0.17101 0.91874,-0.49169 3.18433,-0.0873 3.18433,0.56842 0,0.63257 -0.12572,0.65622 2.76388,-0.51972 3.50933,-1.42813 5.47483,-2.65469 6.87469,-4.2901 0.95482,-1.1155 1.45768,-1.41671 2.36513,-1.41671 3.32716,0 9.50431,2.66888 11.34465,4.90153 0.82238,0.99769 1.12842,1.16872 1.47361,0.82353 1.05515,-1.05515 -2.53009,-4.20847 -6.39536,-5.6249 l -1.90272,-0.69725 3.05464,-0.74645 c 6.11268,-1.49374 11.24776,-4.60999 12.64234,-7.67207 1.17285,-2.57523 0.60962,-6.23502 -1.54311,-10.02706 -1.07468,-1.89304 -1.07497,-1.895 -0.23213,-1.62479 3.12733,1.0026 4.55617,1.07278 4.55617,0.22377 0,-0.50863 -0.44895,-0.7282 -2.12704,-1.04027 -1.7463,-0.32476 -10.91718,-4.08646 -12.19187,-5.00085 -2.30234,-1.65156 -11.08638,2.1817 -22.62742,9.87436 -3.50136,2.33382 -3.56458,2.35882 -6.54074,2.58584 -1.65286,0.12608 -4.13464,0.54286 -5.51505,0.92618 -2.63555,0.73184 -5.179697,0.65806 -4.872947,-0.14132 0.09785,-0.25498 -0.384426,-0.59252 -1.192557,-0.83464 -0.755148,-0.22625 -2.676509,-1.52116 -4.33274,-2.92008 -3.698082,-3.12355 -5.11599,-3.86518 -7.389737,-3.86518 -4.545194,0 -7.809661,1.75866 -7.809661,4.20729 0,0.73853 0.172974,1.09601 0.53033,1.09601 0.294627,0 0.53033,-0.31427 0.53033,-0.7071 0,-0.38891 0.159099,-0.70711 0.353553,-0.70711 0.194454,0 0.353553,0.13198 0.353553,0.2933 0,0.16132 0.913815,1.3031 2.0307,2.5373 2.133404,2.35749 4.725571,4.24047 5.83756,4.24047 0.362314,0 0.572777,0.13911 0.467695,0.30913 -0.413334,0.66879 -5.382283,-0.86728 -6.952379,-2.14922 -0.308532,-0.2519 -0.751652,-0.81598 -0.984711,-1.25351 -0.469727,-0.88182 -1.459525,-1.08004 -1.459525,-0.29229 0,0.79486 1.73436,2.64831 3.138066,3.35354 1.29457,0.6504 2.905626,1.19347 4.779637,1.61115 1.21767,0.2714 0.904959,0.65224 -1.023412,1.24637 -0.777817,0.23964 -2.093057,0.806 -2.922754,1.25858 l -1.508542,0.82286 -1.788456,-2.5417 C 73.931888,119.2007 70.988845,110.22665 72.256953,104.77779 74.84564,93.654609 88.50313,90.481117 107.68119,96.546517 l 4.13,1.306187 5.41594,-2.680421 c 15.92132,-7.879682 30.64548,-11.517423 50.54429,-12.487444 l 4.82327,-0.235123 0.5714,0.872061 c 0.31426,0.479633 1.02594,2.216768 1.58148,3.8603 1.3809,4.085247 1.75894,4.712585 4.56931,7.582624 2.84964,2.910136 3.78652,4.968729 4.39042,9.646979 1.18816,9.2043 -2.96282,25.28964 -11.08953,42.97277 -2.45476,5.34138 -3.01221,7.68643 -1.92621,8.10316 0.34611,0.13282 0.56655,-0.1882 0.73093,-1.06441 l 0.23536,-1.25459 2.12472,2.89473 c 10.97473,14.95202 15.29756,28.49464 12.47585,39.08451 -2.93644,11.02043 -13.42739,21.1133 -31.2137,30.02929 -1.81897,0.91183 -3.37189,1.59321 -3.45092,1.51418 -0.079,-0.079 0.0967,-0.82491 0.39042,-1.65751 0.71966,-2.03974 0.67458,-2.48557 -0.25137,-2.48557 -0.53475,0 -1.93514,1.19222 -4.38702,3.73486 l -3.60153,3.73486 0.19684,-4.9723 c 0.17666,-4.46267 0.1371,-4.97229 -0.38596,-4.97229 -0.42877,0 -0.5828,0.32245 -0.5828,1.22003 0,6.11241 -4.3882,12.62452 -11.15061,16.54754 -0.20197,0.11717 -0.70908,-0.5313 -1.12689,-1.44103 z M 104.24706,119.32463 c -0.38273,-0.37967 -1.80957,-1.29634 -3.17075,-2.03704 -2.254408,-1.22675 -2.485313,-1.45619 -2.592026,-2.57556 -0.210064,-2.20342 -1.469428,-2.04855 -1.457181,0.1792 0.0079,1.43942 0.498856,1.97582 3.046177,3.32828 1.19843,0.63628 2.54181,1.54311 2.9853,2.01518 0.72251,0.76909 0.86236,0.80227 1.34535,0.31928 0.48299,-0.48299 0.46668,-0.61077 -0.15687,-1.22934 l 0,0 z"
       id="path8495"
       transform="translate(0,602.36218)" />
    <path
       style="fill:#c8beb7;fill-opacity:1;stroke:#c8beb7;stroke-width:0;stroke-miterlimit:4;stroke-opacity:0.40444444;stroke-dasharray:none;stroke-dashoffset:0"
       d="m 130.43892,133.52495 c -1.07629,-0.10956 -1.14905,-0.20282 -1.14905,-1.47287 0,-0.82315 -0.41725,-2.14912 -1.06193,-3.37467 -0.77821,-1.4794 -0.91197,-1.96122 -0.50066,-1.80338 0.3087,0.11845 1.63148,0.31484 2.93953,0.43641 4.1346,0.38427 7.26284,-0.99369 8.7558,-3.85685 0.8729,-1.67403 1.01211,-5.8744 0.31734,-9.57465 -0.32362,-1.72349 -0.52442,-3.19759 -0.44623,-3.27577 0.0782,-0.0782 1.52823,0.47499 3.22232,1.22927 3.31001,1.47376 3.68261,1.90088 5.90692,6.77111 2.36812,5.18511 0.46199,9.0234 -5.87532,11.83085 -2.78212,1.23249 -10.64553,3.2395 -12.10872,3.09055 z"
       id="path8497"
       transform="translate(0,602.36218)" />
    <path
       style="fill:#c8beb7;fill-opacity:1;stroke:#c8beb7;stroke-width:0;stroke-miterlimit:4;stroke-opacity:0.40444444;stroke-dasharray:none;stroke-dashoffset:0"
       d="m 125.4412,125.45667 c -0.85282,-0.65795 -1.69748,-1.19627 -1.87703,-1.19627 -0.17954,0 -0.22811,-0.1591 -0.10793,-0.35355 0.12018,-0.19446 0.72619,-0.35528 1.34669,-0.35738 1.37953,-0.005 3.91902,-0.75274 5.78217,-1.70324 2.12904,-1.08616 4.27766,-3.68549 5.94268,-7.18927 1.68466,-3.54511 1.59684,-3.59292 2.31351,1.25943 1.16469,7.88583 -1.95703,11.06272 -9.78511,9.95803 -1.4613,-0.20622 -1.84854,-0.15434 -1.94454,0.26051 -0.0897,0.38775 -0.50981,0.21718 -1.67044,-0.67826 l 0,0 z"
       id="path8499"
       transform="translate(0,602.36218)" />
    <path
       style="fill:#c8beb7;fill-opacity:1;stroke:#803300;stroke-width:0.28708535;stroke-miterlimit:4;stroke-opacity:0.40444444;stroke-dasharray:none;stroke-dashoffset:0"
       d="m 197.5696,304.02963 c -1.84732,-0.25194 -7.01199,-0.6401 -11.47706,-0.86257 -4.46506,-0.22247 -9.39866,-0.62777 -10.96355,-0.90066 -5.96675,-1.04052 -12.05009,-3.62006 -18.68985,-7.92513 l -3.47702,-2.25442 3.57936,-1.17109 c 3.81087,-1.24684 8.64604,-3.59333 10.33795,-5.01698 1.60907,-1.35394 3.1259,-4.7236 3.6497,-8.10782 0.20667,-1.33531 0.15549,-1.5026 -0.45964,-1.5026 -0.55022,0 -0.72938,0.3082 -0.87346,1.5026 -0.24512,2.03197 -1.54611,5.35691 -2.57409,6.5786 -1.0214,1.21385 -7.01637,4.21125 -11.1252,5.56244 -2.73476,0.89932 -3.48244,0.98988 -8.3085,1.0064 -4.93015,0.0169 -5.50232,-0.0517 -8.13173,-0.97472 -11.70814,-4.11 -19.42838,-11.17427 -23.14764,-21.18084 -2.54508,-6.84748 -2.7828,-16.24629 -0.64627,-25.55172 0.7829,-3.40984 3.31565,-11.10543 3.82878,-11.6335 0.35851,-0.36894 5.68542,0.68621 7.09634,1.40565 1.42211,0.72514 3.04737,2.78396 3.74231,4.74062 0.34672,0.9762 0.75849,1.77491 0.91505,1.77491 0.59573,0 3.02616,-1.418 4.70039,-2.74239 2.4123,-1.90822 4.6748,-4.34454 5.89645,-6.34943 1.01772,-1.67022 1.02809,-1.67634 0.82268,-0.48544 -0.11442,0.66337 -0.44798,1.6871 -0.74124,2.27497 -0.37673,0.75516 -0.42286,1.1792 -0.15719,1.44487 0.26568,0.26568 1.66906,-0.97268 4.78182,-4.2195 4.17344,-4.35319 4.39486,-4.52909 4.1986,-3.33543 -0.15344,0.93324 -0.053,1.38808 0.38724,1.75344 0.52305,0.43409 1.15239,0.21008 5.24193,-1.86589 8.16353,-4.14405 15.0356,-8.62848 19.52131,-12.73882 2.24813,-2.06001 2.35145,-2.11359 2.15926,-1.11982 -0.78295,4.04842 -0.48464,8.07306 0.81635,11.01418 0.92302,2.08663 3.62292,4.85716 5.78167,5.93291 l 1.81713,0.90551 0.21363,-0.80304 c 0.11751,-0.44168 0.42675,-2.11833 0.68722,-3.72589 0.26047,-1.60757 0.58498,-2.80081 0.72112,-2.65165 0.13615,0.14915 0.84871,2.02128 1.58348,4.16028 0.73476,2.139 1.46955,4.04047 1.63286,4.2255 0.31084,0.35218 0.55083,0.099 2.44426,-2.57901 0.59711,-0.84452 1.13475,-1.48091 1.19476,-1.41421 0.06,0.0667 1.18757,1.95091 2.5057,4.18714 1.31812,2.23622 2.53256,4.15632 2.69875,4.26688 0.16618,0.11057 0.12016,1.86066 -0.10229,3.88909 -0.49492,4.5132 -0.20627,14.46322 0.54736,18.86844 0.70042,4.0941 1.83179,8.60192 2.91528,11.61553 l 0.86313,2.40072 -0.81709,0.69168 c -2.7633,2.33921 -8.65982,3.98414 -11.37681,3.17374 -2.09468,-0.62478 -5.83974,-2.36091 -7.36235,-3.41304 -1.20772,-0.83453 -2.05369,-0.88488 -2.05369,-0.12222 0,0.50218 4.53247,3.0558 7.24785,4.08348 2.11243,0.79949 2.83731,0.90834 4.94974,0.74325 3.28424,-0.25667 5.73471,-1.0396 7.97731,-2.54875 1.01444,-0.68267 1.88306,-1.19721 1.93026,-1.14342 0.0472,0.0538 0.65751,1.23975 1.35625,2.63547 1.399,2.79446 2.69391,4.90542 4.25754,6.94067 l 1.02567,1.33502 1.03426,-0.98726 1.03426,-0.98726 -0.23463,1.06066 c -1.30118,5.88195 -3.93555,11.04947 -9.14718,17.94283 -1.13936,1.50702 -2.25116,2.72093 -2.47067,2.69758 -0.21951,-0.0234 -1.91055,-0.2486 -3.75786,-0.50054 l 0,0 z"
       id="path8505"
       transform="translate(0,602.36218)" />
    <path
       style="fill:#803300;fill-opacity:1;stroke:#803300;stroke-width:0.07177134;stroke-miterlimit:4;stroke-opacity:0.40444444;stroke-dasharray:none;stroke-dashoffset:0"
       d="m 89.72323,122.67828 c -2.402258,-0.71179 -4.244292,-2.32699 -4.83781,-4.24209 -0.26572,-0.85739 -0.262431,-1.9799 0.0084,-2.8604 l 0.200131,-0.65069 1.209795,0.0394 c 1.047399,0.0341 1.292704,0.0716 1.82743,0.27899 1.215369,0.4714 1.973699,1.02478 4.420502,3.22579 2.054375,1.84801 3.180795,2.66742 4.340336,3.15739 l 0.521023,0.22016 -1.149049,-0.0558 c -1.224399,-0.0595 -2.635267,0.0528 -3.535534,0.28138 -0.291681,0.0741 -0.863977,0.29051 -1.271769,0.48101 -0.407791,0.19049 -0.805539,0.34365 -0.883883,0.34035 -0.07834,-0.003 -0.460643,-0.10029 -0.849552,-0.21552 z m -0.971513,-3.03691 c 1.144454,-0.51991 1.451805,-1.99414 0.610001,-2.92592 -0.392761,-0.43474 -0.795164,-0.62203 -1.331224,-0.61961 -1.418678,0.006 -2.275745,1.49593 -1.600946,2.7823 0.424183,0.80861 1.467468,1.15151 2.322169,0.76323 z"
       id="path8509"
       transform="translate(0,602.36218)" />
    <path
       style="fill:#803300;fill-opacity:1;stroke:#803300;stroke-width:0.07177134;stroke-miterlimit:4;stroke-opacity:0.40444444;stroke-dasharray:none;stroke-dashoffset:0"
       d="m 120.48488,122.80343 c -0.63905,-0.37206 -3.57476,-1.19699 -5.33909,-1.50028 l -1.16436,-0.20015 0.32467,-0.23488 c 2.22483,-1.60951 8.90511,-5.80905 11.71648,-7.36553 1.13908,-0.63064 1.04875,-0.61553 2.13161,-0.35648 1.35974,0.3253 2.60113,1.03155 3.20186,1.82161 1.11602,1.46775 0.51918,3.4356 -1.66586,5.49251 -0.52563,0.4948 -0.78588,0.80238 -0.76782,0.90746 0.0217,0.12646 -0.11724,0.2099 -0.67979,0.40812 -1.31345,0.46281 -2.95395,0.76072 -5.45765,0.99109 -1.67648,0.15426 -2.08666,0.16077 -2.30005,0.0365 l 0,0 z m 3.34326,-3.17637 c 0.32866,-0.12408 0.76861,-0.55853 0.93373,-0.92204 0.29937,-0.65905 0.16712,-1.56332 -0.30211,-2.06588 -0.86725,-0.92883 -2.47002,-0.68179 -3.014,0.46457 -0.1799,0.37912 -0.1829,1.21889 -0.006,1.59236 0.41627,0.87723 1.45642,1.28273 2.38805,0.93099 l 0,0 z"
       id="path8511"
       transform="translate(0,602.36218)" />
  </g>
</svg>
